<?xml version="1.0" encoding="UTF-8" standalone="no"?>
<svg width="112px" height="33px" viewBox="0 0 112 33" version="1.1" xmlns="http://www.w3.org/2000/svg" xmlns:xlink="http://www.w3.org/1999/xlink">
    <!-- Generator: Sketch 46 (44423) - http://www.bohemiancoding.com/sketch -->
    <title>ANDROID</title>
    <desc>Created with Sketch.</desc>
    <defs>
        <rect id="path-1" x="0" y="0" width="112" height="32" rx="4"></rect>
    </defs>
    <g id="Page-1" stroke="none" stroke-width="1" fill="none" fill-rule="evenodd">
        <g id="13Push活动推广通知" transform="translate(-756.000000, -382.000000)">
            <g id="右侧-copy" transform="translate(653.000000, 120.000000)">
                <g id="目标平台" transform="translate(26.000000, 262.000000)">
                    <g id="ANDROID" transform="translate(77.000000, 0.000000)">
                        <g id="Rectangle-19">
                            <use fill="#FFFFFF" fill-rule="evenodd" xlink:href="#path-1"></use>
                            <rect stroke="#C3CBD6" stroke-width="1" x="0.5" y="0.5" width="111" height="31" rx="4"></rect>
                        </g>
                        <text id="Android" font-family="PingFangSC-Regular, PingFang SC" font-size="12" font-weight="normal" letter-spacing="0.0023965" fill="#657180">
                            <tspan x="49" y="21">Android</tspan>
                        </text>
                        <path d="M30.5,0.5 L30.5,31.5161248" id="Line-8" stroke="#C3CBD6" stroke-linecap="square"></path>
                        <g id="Page-1" transform="translate(9.000000, 8.000000)" fill="#9EA7B4">
                            <path d="M0.980405479,5.13275616 C0.707967123,5.13275616 0.476076712,5.22787945 0.286049315,5.41790685 C0.0951452055,5.60881096 2.19178082e-05,5.8374137 2.19178082e-05,6.10371507 L2.19178082e-05,10.1986192 C2.19178082e-05,10.4717151 0.0951452055,10.7029479 0.286049315,10.8938521 C0.476076712,11.0836603 0.707967123,11.1790027 0.980405479,11.1790027 C1.25350137,11.1790027 1.48385753,11.0836603 1.67125479,10.8938521 C1.85799452,10.7029479 1.95202192,10.4717151 1.95202192,10.1986192 L1.95202192,6.10371507 C1.95202192,5.8374137 1.85711781,5.60881096 1.6662137,5.41790685 C1.47596712,5.22787945 1.24736438,5.13275616 0.980405479,5.13275616" id="Fill-1"></path>
                            <path d="M8.97012603,3.27059726 C8.89976986,3.3442411 8.81429041,3.38106301 8.71324932,3.38106301 C8.61111233,3.38106301 8.52409863,3.3442411 8.45133151,3.27059726 C8.37768767,3.19783014 8.34174247,3.11103562 8.34174247,3.00955616 C8.34174247,2.90763836 8.37768767,2.8201863 8.45133151,2.74741918 C8.52409863,2.67465205 8.61111233,2.63783014 8.71324932,2.63783014 C8.81429041,2.63783014 8.89976986,2.67465205 8.97012603,2.74741918 C9.03916712,2.8201863 9.07445479,2.90763836 9.07445479,3.00955616 C9.07445479,3.11059726 9.03916712,3.19783014 8.97012603,3.27059726 M4.95631781,3.27059726 C4.88333151,3.3442411 4.79631781,3.38106301 4.6944,3.38106301 C4.59226301,3.38106301 4.50678356,3.3442411 4.43730411,3.27059726 C4.3673863,3.19783014 4.33319452,3.11103562 4.33319452,3.00955616 C4.33319452,2.90763836 4.3673863,2.8201863 4.43730411,2.74741918 C4.50678356,2.67465205 4.59313973,2.63783014 4.6944,2.63783014 C4.79631781,2.63783014 4.88333151,2.67465205 4.95631781,2.74741918 C5.02908493,2.8201863 5.06590685,2.90763836 5.06590685,3.00955616 C5.06590685,3.11059726 5.02908493,3.19783014 4.95631781,3.27059726 M8.8653589,1.45733699 L9.54086575,0.209775342 C9.58557808,0.126706849 9.57001644,0.0633643836 9.49396164,0.0188712329 C9.41111233,-0.0188273973 9.34755068,2.19178082e-05 9.30305753,0.0762958904 L8.61812603,1.33306301 C8.01450959,1.06676164 7.37648219,0.933282192 6.70382466,0.933282192 C6.03094795,0.933282192 5.39292055,1.06676164 4.79018082,1.33306301 L4.10459178,0.0762958904 C4.05987945,2.19178082e-05 3.99653699,-0.0188273973 3.91346849,0.0188712329 C3.8374137,0.0642410959 3.82207123,0.126706849 3.86656438,0.209775342 L4.54294795,1.45733699 C3.85713973,1.80648767 3.31072877,2.29372055 2.90503014,2.91881644 C2.49823562,3.54456986 2.29549589,4.22774795 2.29549589,4.97098082 L11.1025096,4.97098082 C11.1025096,4.22774795 10.8997699,3.54456986 10.4931945,2.91881644 C10.0872767,2.29372055 9.54459178,1.80648767 8.8653589,1.45733699" id="Fill-3"></path>
                            <path d="M2.33315068,11.6550137 C2.33315068,11.9478356 2.4339726,12.1952877 2.63780822,12.3982466 C2.84076712,12.6009863 3.08821918,12.7029041 3.38016438,12.7029041 L4.08482192,12.7029041 L4.09424658,14.8646575 C4.09424658,15.1370959 4.1900274,15.3689863 4.38005479,15.5598904 C4.5709589,15.750137 4.79956164,15.8450411 5.06586301,15.8450411 C5.3389589,15.8450411 5.57019178,15.750137 5.76109589,15.5598904 C5.95112329,15.3689863 6.04624658,15.1370959 6.04624658,14.8646575 L6.04624658,12.7029041 L7.36043836,12.7029041 L7.36043836,14.8646575 C7.36043836,15.1370959 7.45556164,15.3689863 7.64646575,15.5598904 C7.83649315,15.750137 8.06838356,15.8450411 8.34169863,15.8450411 C8.61391781,15.8450411 8.84580822,15.750137 9.03605479,15.5598904 C9.2269589,15.3689863 9.32186301,15.1370959 9.32186301,14.8646575 L9.32186301,12.7029041 L10.0359452,12.7029041 C10.3219726,12.7029041 10.566137,12.6009863 10.7697534,12.3982466 C10.9724932,12.1952877 11.0735342,11.9478356 11.0735342,11.6558904 L11.0735342,5.31331507 L2.33315068,5.31331507 L2.33315068,11.6550137 Z" id="Fill-5"></path>
                            <path d="M12.4262575,5.13275616 C12.1599562,5.13275616 11.9315726,5.22612603 11.741326,5.41352329 C11.5504219,5.60113973 11.4555178,5.83149589 11.4555178,6.10371507 L11.4555178,10.1986192 C11.4555178,10.4717151 11.5504219,10.7029479 11.741326,10.8938521 C11.9315726,11.0836603 12.1599562,11.1790027 12.4262575,11.1790027 C12.6993534,11.1790027 12.9316822,11.0836603 13.1214904,10.8938521 C13.3123945,10.7029479 13.407737,10.4717151 13.407737,10.1986192 L13.407737,6.10371507 C13.407737,5.83149589 13.3123945,5.60113973 13.1214904,5.41352329 C12.9316822,5.22612603 12.6993534,5.13275616 12.4262575,5.13275616" id="Fill-7"></path>
                        </g>
                    </g>
                </g>
            </g>
        </g>
    </g>
</svg>