<?xml version="1.0" encoding="UTF-8" standalone="no"?>
<svg width="112px" height="33px" viewBox="0 0 112 33" version="1.1" xmlns="http://www.w3.org/2000/svg" xmlns:xlink="http://www.w3.org/1999/xlink">
    <!-- Generator: Sketch 46 (44423) - http://www.bohemiancoding.com/sketch -->
    <title>IOS2</title>
    <desc>Created with Sketch.</desc>
    <defs>
        <rect id="path-1" x="0" y="0" width="112" height="32" rx="4"></rect>
    </defs>
    <g id="Page-1" stroke="none" stroke-width="1" fill="none" fill-rule="evenodd">
        <g id="13Push活动推广通知" transform="translate(-884.000000, -382.000000)">
            <g id="右侧-copy" transform="translate(653.000000, 120.000000)">
                <g id="目标平台" transform="translate(26.000000, 262.000000)">
                    <g id="IOS2" transform="translate(205.000000, 0.000000)">
                        <g id="Rectangle-19-Copy">
                            <use fill="#FFFFFF" fill-rule="evenodd" xlink:href="#path-1"></use>
                            <rect stroke="#2D8CF0" stroke-width="1" x="0.5" y="0.5" width="111" height="31" rx="4"></rect>
                        </g>
                        <text id="IOS" font-family="PingFangSC-Regular, PingFang SC" font-size="12" font-weight="normal" letter-spacing="0.0023965" fill="#2D8CF0">
                            <tspan x="61" y="21">IOS</tspan>
                        </text>
                        <path d="M30.5,0.5 L30.5,31.5161248" id="Line-8-Copy" stroke="#2D8CF0" stroke-linecap="square"></path>
                        <g id="Page-1" transform="translate(9.000000, 7.000000)" fill="#2D8CF0">
                            <path d="M10.8669583,8.61737175 C10.8467737,5.64421371 12.517487,5.56730182 12.5925639,5.51965986 C11.6527933,4.14578573 10.1909975,3.9296179 9.67071776,3.90943329 C8.42683524,3.7830221 7.24343944,4.62750881 6.61145063,4.62750881 C5.98129678,4.62750881 5.00672895,3.90759832 3.97534434,3.92594797 C2.61975273,3.94604308 1.36861986,4.71178294 0.668804476,5.92637315 C-0.739933986,8.37193399 0.307965315,11.9935955 1.68181706,13.9756934 C2.35227301,14.946569 3.15289958,16.0366053 4.2043793,15.9981382 C5.21555692,15.9578585 5.59843804,15.3423172 6.82211357,15.3423172 C8.04581147,15.3423172 8.38836811,15.9981382 9.46005483,15.9761186 C10.5481667,15.9560235 11.2388073,14.9868934 11.9037583,14.0123032 C12.6750031,12.8857466 12.9919597,11.850692 13.0102199,11.7957773 C12.9864548,11.7847676 10.8870534,10.5995368 10.8651234,8.61737175 L10.8669583,8.61737175 Z" id="Fill-1"></path>
                            <path d="M6.5052442,4.01206154 C6.5052442,1.80645594 8.29317147,0.0166937063 10.500612,0.0166937063 C10.500612,2.22411189 8.71084979,4.01206154 6.5052442,4.01206154" id="Fill-3"></path>
                        </g>
                    </g>
                </g>
            </g>
        </g>
    </g>
</svg>