<?xml version="1.0" encoding="UTF-8" standalone="no"?>
<svg width="16px" height="16px" viewBox="0 0 16 16" version="1.1" xmlns="http://www.w3.org/2000/svg" xmlns:xlink="http://www.w3.org/1999/xlink">
    <!-- Generator: Sketch 46 (44423) - http://www.bohemiancoding.com/sketch -->
    <title>icon－download</title>
    <desc>Created with Sketch.</desc>
    <defs></defs>
    <g id="Symbols" stroke="none" stroke-width="1" fill="none" fill-rule="evenodd">
        <g id="icon－download" fill="#818596">
            <path d="M13.25,15 L2.75,15 C1.783125,15 1,14.216413 1,13.2499453 L1,2.74961718 C1,1.78314947 1.783125,1 2.75,1 L13.25,1 C14.216875,1 15,1.78314947 15,2.74961718 L15,13.2499453 C15,14.216413 14.216875,15 13.25,15 Z M13.25,3.62464452 C13.25,3.14162943 12.860625,2.74961718 12.375,2.74961718 L3.625,2.74961718 C3.14375,2.74961718 2.75,3.14162943 2.75,3.62464452 L2.75,9.74983593 C2.75,10.2332885 3.14375,10.6248633 3.625,10.6248633 L4.5,10.6248633 C5.370625,10.6248633 5.375,11.4998906 5.375,11.4998906 L5.375,11.9374043 L5.375,12.374918 C5.375,12.8579331 5.76875,13.2499453 6.25,13.2499453 L9.75,13.2499453 C10.235625,13.2499453 10.625,12.8579331 10.625,12.374918 L10.625,11.4998906 C10.625,11.4998906 10.743125,10.6248633 11.5,10.6248633 L12.375,10.6248633 C12.860625,10.6248633 13.25,10.2332885 13.25,9.74983593 L13.25,3.62464452 Z M4.5,7.99978124 L7.125,7.99978124 L7.125,4.49967186 L8.875,4.49967186 L8.875,7.99978124 L11.5,7.99978124 L8,11.4998906 L4.5,7.99978124 Z"></path>
        </g>
    </g>
</svg>