<?xml version="1.0" standalone="no"?><!DOCTYPE svg PUBLIC "-//W3C//DTD SVG 1.1//EN" "http://www.w3.org/Graphics/SVG/1.1/DTD/svg11.dtd"><svg t="1523175787574" class="icon" style="" viewBox="0 0 1024 1024" version="1.1" xmlns="http://www.w3.org/2000/svg" p-id="1918" xmlns:xlink="http://www.w3.org/1999/xlink" width="200" height="200"><defs><style type="text/css"></style></defs><path d="M817.472 553.824c1.696-13.664 2.976-27.296 2.976-41.824s-1.28-28.16-2.976-41.824l90.016-70.4c8.096-6.4 10.24-17.92 5.12-27.296l-85.344-147.616a21.44 21.44 0 0 0-26.016-9.376l-106.24 42.656a312.832 312.832 0 0 0-72.096-41.824l-16.224-113.056a20.8 20.8 0 0 0-20.896-17.92h-170.656a20.8 20.8 0 0 0-20.896 17.92l-16.224 113.056A327.36 327.36 0 0 0 305.92 258.144L199.68 215.488a20.8 20.8 0 0 0-26.016 9.376L88.32 372.48a21.056 21.056 0 0 0 5.12 27.296l90.016 70.4c-1.696 13.664-2.976 27.744-2.976 41.824s1.28 28.16 2.976 41.824l-90.016 70.4c-8.096 6.4-10.24 17.92-5.12 27.296l85.344 147.616c5.12 9.376 16.64 12.8 26.016 9.376l106.24-42.656c22.176 17.056 46.08 31.136 72.096 41.824l16.224 113.056c1.28 10.24 10.24 17.92 20.896 17.92h170.656a20.8 20.8 0 0 0 20.896-17.92l16.224-113.056a327.36 327.36 0 0 0 72.096-41.824l106.24 42.656a20.8 20.8 0 0 0 26.016-9.376l85.344-147.616a21.536 21.536 0 0 0-5.12-27.296l-90.016-70.4z m-317.024 107.52c-82.336 0-149.344-66.976-149.344-149.344s66.976-149.344 149.344-149.344c82.336 0 149.344 66.976 149.344 149.344s-66.976 149.344-149.344 149.344z" p-id="1919"></path></svg>