<?xml version="1.0" encoding="utf-8"?>
<!-- Generator: Adobe Illustrator 16.0.0, SVG Export Plug-In . SVG Version: 6.00 Build 0)  -->
<!DOCTYPE svg PUBLIC "-//W3C//DTD SVG 1.1//EN" "http://www.w3.org/Graphics/SVG/1.1/DTD/svg11.dtd">
<svg version="1.1" id="图层_1" xmlns="http://www.w3.org/2000/svg" xmlns:xlink="http://www.w3.org/1999/xlink" x="0px" y="0px"
	 width="24px" height="24px" viewBox="0 0 24 24" enable-background="new 0 0 24 24" xml:space="preserve">
<path fill-rule="evenodd" clip-rule="evenodd" fill="#F18A1A" d="M12,0c6.627,0,12,5.373,12,12c0,6.628-5.373,12-12,12
	C5.373,24,0,18.628,0,12C0,5.373,5.373,0,12,0z"/>
<g>
	<g>
		<path fill-rule="evenodd" clip-rule="evenodd" fill="#FFFFFF" d="M11.625,4.5c-0.552,0-1,0.448-1,1v8c0,0.553,0.448,1,1,1
			s1-0.447,1-1v-8C12.625,4.948,12.177,4.5,11.625,4.5z M11.625,16.5c-0.552,0-1,0.447-1,1s0.448,1,1,1s1-0.447,1-1
			S12.177,16.5,11.625,16.5z"/>
	</g>
</g>
</svg>
