<?xml version="1.0" standalone="no"?><!DOCTYPE svg PUBLIC "-//W3C//DTD SVG 1.1//EN" "http://www.w3.org/Graphics/SVG/1.1/DTD/svg11.dtd"><svg t="1490148579599" class="icon" style="" viewBox="0 0 1024 1024" version="1.1" xmlns="http://www.w3.org/2000/svg" p-id="2632" xmlns:xlink="http://www.w3.org/1999/xlink" width="16" height="16"><defs><style type="text/css"></style></defs><path d="M512 18.407c-275.781 0-499.322 223.54-499.322 499.322s223.54 499.322 499.322 499.322c275.781 0 499.322-223.54 499.322-499.322s-223.54-499.322-499.322-499.322zM355.962 564.54c-25.84 0-46.812-20.941-46.812-46.812 0-25.84 20.972-46.812 46.812-46.812s46.812 20.972 46.812 46.812c0 25.871-20.972 46.812-46.812 46.812zM512 564.54c-25.84 0-46.812-20.941-46.812-46.812 0-25.84 20.972-46.812 46.812-46.812 25.871 0 46.812 20.972 46.812 46.812 0 25.871-20.941 46.812-46.812 46.812zM668.038 564.54c-25.871 0-46.812-20.941-46.812-46.812 0-25.84 20.941-46.812 46.812-46.812s46.812 20.972 46.812 46.812c0 25.871-20.941 46.812-46.812 46.812z" p-id="2633" fill="#5697f1"></path></svg>