<?xml version="1.0" encoding="UTF-8" standalone="no"?>
<svg width="40px" height="40px" viewBox="0 0 40 40" version="1.1" xmlns="http://www.w3.org/2000/svg" xmlns:xlink="http://www.w3.org/1999/xlink">
    <!-- Generator: Sketch 49.1 (51147) - http://www.bohemiancoding.com/sketch -->
    <title>小程序码</title>
    <desc>Created with Sketch.</desc>
    <defs></defs>
    <g id="Page-1" stroke="none" stroke-width="1" fill="none" fill-rule="evenodd" fill-opacity="0.75">
        <g id="系统管理－小程序二维码-创建" transform="translate(-410.000000, -381.000000)" fill="#17233D" fill-rule="nonzero">
            <g id="弹窗" transform="translate(272.000000, 88.000000)">
                <g id="Group-7" transform="translate(24.000000, 285.000000)">
                    <g id="小程序码" transform="translate(114.000000, 8.000000)">
                        <path d="M32.9809522,26.0336307 C29.1362473,26.0336307 26.0181862,29.1608357 26.0181862,33.0168154 C26.0181862,36.872795 29.1362473,40 32.9809522,40 C36.8256571,40 39.9437182,36.872795 39.9437182,33.0168154 C39.9437182,29.1608357 36.8310798,26.0336307 32.9809522,26.0336307 Z M37.1184837,32.5599715 C36.7876981,33.1038332 36.256272,33.5008523 35.6163917,33.6912039 L35.6001235,33.6966425 C35.5892781,33.7020812 35.5784326,33.7020812 35.5675872,33.7075198 C35.4537102,33.7401515 35.3398332,33.7564673 35.2313789,33.7564673 C34.9493977,33.7564673 34.7107982,33.647695 34.5752304,33.4573434 C34.4559306,33.2833076 34.4342398,33.0657629 34.5101578,32.8482182 C34.6240348,32.538217 34.906016,32.282602 35.2639152,32.1575138 C35.6380825,32.0215484 35.8821047,31.7169858 35.8821047,31.3852302 C35.8821047,30.9175091 35.4049058,30.5368059 34.8246752,30.5368059 C34.239022,30.5368059 33.7672458,30.9175091 33.7672458,31.3852302 L33.7672458,34.6538392 C33.7672458,35.4913862 33.3008924,36.2636699 32.5254441,36.7096365 C32.1078951,36.9489357 31.6306962,37.0740239 31.1426518,37.0740239 C29.6947869,37.0740239 28.5126351,35.9863004 28.5126351,34.6538392 C28.5126351,34.2405043 28.6265121,33.832608 28.8488434,33.4736592 C29.179629,32.9297975 29.7164778,32.5273398 30.3563582,32.3424268 L30.3617809,32.3424268 C30.4865033,32.3043565 30.6112257,32.2880407 30.7251028,32.2880407 C31.0070839,32.2880407 31.2511061,32.396813 31.3812513,32.5926032 C31.500551,32.7666389 31.5276646,32.9841837 31.4463239,33.2017284 C31.3432923,33.4845365 31.0830019,33.7347129 30.7467936,33.8706783 L30.7359482,33.8761169 C30.7088346,33.8869941 30.6817211,33.8924328 30.6600302,33.90331 C30.302131,34.0501526 30.0852224,34.3383994 30.0852224,34.6592778 C30.0852224,35.1269989 30.5624213,35.5077021 31.1426518,35.5077021 C31.728305,35.5077021 32.2000812,35.1269989 32.2000812,34.6592778 L32.2000812,31.3906688 C32.2000812,30.5531217 32.6664347,29.780838 33.441883,29.3348714 C33.859432,29.0955723 34.3366309,28.9704841 34.8246752,28.9704841 C36.2725401,28.9704841 37.454692,30.0582075 37.454692,31.3906688 C37.454692,31.7931265 37.340815,32.2010228 37.1184837,32.5599715 Z M11.2304426,20.0022041 C11.2304426,24.8697666 15.1619109,28.8127642 20.0152408,28.8127642 C24.8685706,28.8127642 28.8000389,24.8697666 28.800039,20.0022041 C28.800039,15.1346416 24.8685707,11.1916441 20.0152408,11.1916441 C15.1619109,11.191644 11.2304426,15.1400802 11.2304426,20.0022041 Z M14.5220306,24.2552029 C14.6792893,22.3299323 15.8180594,20.6493996 17.5262147,19.7900981 C16.7887254,19.1265867 16.3549082,18.1748287 16.3549082,17.1795617 C16.3549082,15.243414 17.938341,13.6662149 19.8796729,13.6662149 C21.8264276,13.6662149 23.4044376,15.243414 23.4044376,17.1795617 C23.4044376,18.1367584 23.0031567,19.0613233 22.3198946,19.7139574 C24.1039678,20.5406273 25.3349241,22.2809848 25.4976056,24.2443256 C25.5138737,24.3095891 25.5247191,24.3748524 25.5247191,24.4346772 C25.5247191,24.8480121 25.1885108,25.1797678 24.7763845,25.1797678 C24.5811667,25.1797678 24.3913717,25.1036272 24.2503812,24.9622231 C24.1636177,24.8752052 24.0985451,24.7664329 24.0605861,24.6522219 L24.0280498,24.6522219 L24.0172044,24.4455545 C23.8870593,22.3408096 22.1246769,20.6929085 20.0098181,20.6929085 C17.8949593,20.6929085 16.1325769,22.3408096 16.0024317,24.4455545 L15.9915863,24.6467833 L15.95905,24.6467833 C15.8668639,24.9513459 15.57946,25.1743292 15.2432517,25.1743292 L15.2378289,25.1743292 C15.0426112,25.1743292 14.8528162,25.0981885 14.7118256,24.9567845 C14.570835,24.8153804 14.494917,24.6304675 14.4894943,24.4292386 C14.5003397,24.3802911 14.5057624,24.3204663 14.5220306,24.2552029 Z" id="Shape"></path>
                        <path d="M19.8796729,19.2027274 C21.0021749,19.2027274 21.913191,18.2944783 21.913191,17.1795617 C21.913191,16.0646452 21.0021749,15.1563961 19.8796729,15.1563961 C18.7571709,15.1563961 17.8461548,16.0646452 17.8461548,17.1795617 C17.8407321,18.2944783 18.7571709,19.2027274 19.8796729,19.2027274 Z M6.96276596,26.0336307 C3.12348378,26.0336307 0,29.1662743 0,33.0168154 C0,36.8673564 3.12348378,40 6.96276596,40 C10.8020481,40 13.9255319,36.8673564 13.9255319,33.0168154 C13.9255319,29.1662743 10.8020481,26.0336307 6.96276596,26.0336307 Z M6.96276596,38.3684148 C4.01823177,38.3684148 1.62681446,35.964546 1.62681446,33.0168154 C1.62681446,30.0690848 4.01823173,27.6652159 6.96276596,27.6652159 C9.90730016,27.6652159 12.2987175,30.0636461 12.2987175,33.0168154 C12.2987175,35.9699846 9.90187747,38.3684148 6.96276596,38.3684148 Z" id="Shape"></path>
                        <path d="M5.15157918,33.0168154 C5.15157918,34.0200396 5.96247513,34.8333135 6.96276596,34.8333135 C7.9630568,34.8333135 8.77395275,34.0200396 8.77395275,33.0168154 C8.77395275,32.0135911 7.9630568,31.2003172 6.96276596,31.2003172 C5.96247513,31.2003172 5.15157918,32.0135911 5.15157918,33.0168154 Z" id="Shape"></path>
                        <path d="M6.96276596,14.0306023 C10.8020481,14.0306023 13.9255319,10.8979587 13.9255319,7.04741767 C13.9255319,3.1968766 10.8020481,0.0642330401 6.96276596,0.0642330401 C3.12348378,0.0642330401 0,3.19687664 0,7.04741767 C0,10.8979587 3.12348378,14.0306023 6.96276596,14.0306023 Z M6.96276596,1.69581822 C9.90730016,1.69581822 12.2987175,4.09424845 12.2987175,7.04741767 C12.2987175,10.0005869 9.90730019,12.3990171 6.96276596,12.3990171 C4.01823177,12.3990171 1.62681446,10.0005869 1.62681446,7.04741767 C1.62681446,4.09424845 4.01823173,1.69581822 6.96276596,1.69581822 Z" id="Shape"></path>
                        <path d="M5.15157918,7.04741767 C5.15157918,8.05064192 5.96247513,8.86391586 6.96276596,8.86391586 C7.9630568,8.86391586 8.77395275,8.05064192 8.77395275,7.04741767 C8.77395275,6.04419343 7.9630568,5.23091949 6.96276596,5.23091949 C5.96247513,5.23091949 5.15157918,6.04419343 5.15157918,7.04741767 Z" id="Shape"></path>
                        <path d="M32.9809522,14.0306023 C36.8202344,14.0306023 39.9437182,10.8979587 39.9437182,7.04741767 C39.9437182,3.1968766 36.8202343,0.0642330401 32.9809522,0.0642330401 C29.14167,0.0642330401 26.0181862,3.1968766 26.0181862,7.04741767 C26.0181862,10.8979587 29.1470927,14.0306023 32.9809522,14.0306023 Z M32.9809522,1.69581822 C35.9254864,1.69581822 38.3169037,4.09424845 38.3169037,7.04741767 C38.3169036,10.0005869 35.9254864,12.3990171 32.9809522,12.3990171 C30.036418,12.3990171 27.6450007,10.0005869 27.6450007,7.04741767 C27.6450007,4.09424845 30.0418407,1.69581822 32.9809522,1.69581822 Z" id="Shape"></path>
                        <path d="M31.1697654,7.04741767 C31.1697654,8.05064193 31.9806613,8.86391587 32.9809522,8.86391587 C33.981243,8.86391587 34.792139,8.05064193 34.792139,7.04741767 C34.792139,6.04419342 33.981243,5.23091947 32.9809522,5.23091947 C31.9806613,5.23091947 31.1697654,6.04419342 31.1697654,7.04741767 Z" id="Shape"></path>
                        <path d="M19.8796729,7.77075378 C20.3297582,7.77075378 20.6930802,7.40636641 20.6930802,6.95496117 L20.6930802,0.825639453 C20.6930802,0.374234213 20.3297582,0.00984684262 19.8796729,0.00984688172 C19.4295876,0.00984692082 19.0662657,0.374234252 19.0662657,0.825639453 L19.0662657,6.95496117 C19.0662657,7.40636641 19.4295876,7.77075378 19.8796729,7.77075378 Z M23.9033274,5.11670854 C23.9738227,5.1330244 24.044318,5.14390162 24.1148133,5.14390162 C24.4727125,5.14390162 24.8034981,4.90460246 24.9011069,4.54021509 L25.6928233,1.58160727 C25.8067003,1.14651789 25.5518327,0.700551281 25.1180156,0.580901701 C24.6841984,0.466690753 24.2395358,0.722305767 24.120236,1.15739511 L23.3285196,4.11600293 C23.2092199,4.55109232 23.4695102,5.00249756 23.9033274,5.11670854 Z M17.4991011,29.7210133 C17.0652839,29.6068023 16.6206212,29.8624173 16.5013215,30.2975067 L15.7855232,32.9733064 C15.6716462,33.4083958 15.9265138,33.8543624 16.3603309,33.974012 C16.4308262,33.9903279 16.5013215,34.0012051 16.5718168,34.0012051 C16.929716,34.0012051 17.2605016,33.7619059 17.3581105,33.3975186 L18.0739088,30.7217189 C18.1877858,30.2866295 17.9329182,29.8406629 17.4991011,29.7210133 Z M16.1000406,34.9475245 C15.6662234,34.8333135 15.2215608,35.0889286 15.1022611,35.5240179 L14.3864627,38.1998177 C14.2725857,38.6349071 14.5274533,39.0808737 14.9612705,39.2005232 C15.0317658,39.2168391 15.1022611,39.2277163 15.1727564,39.2277163 C15.5306556,39.2277163 15.8614412,38.9884172 15.95905,38.6240298 L16.6748484,35.9482301 C16.7941481,35.5131407 16.5338578,35.0617355 16.1000406,34.9475245 Z M19.9718591,29.8406628 C19.5217737,29.8406628 19.1584518,30.2050502 19.1584519,30.6564554 L19.1584519,38.3140286 C19.1584519,38.7654339 19.5217738,39.1298212 19.9718591,39.1298212 C20.4219444,39.1298212 20.7852663,38.7654339 20.7852663,38.3140286 L20.7852663,30.6564554 C20.7852663,30.2050502 20.4219444,29.8406628 19.9718591,29.8406628 Z M24.2449584,32.4892695 C24.1310814,32.0541801 23.6809961,31.7985651 23.2471789,31.912776 C22.8133617,32.026987 22.5530714,32.4783922 22.6723711,32.9134816 L24.1473496,38.4391168 C24.2449584,38.8035042 24.575744,39.0428034 24.9336432,39.0428034 C25.0041385,39.0428034 25.0746338,39.0319261 25.1451291,39.0156103 C25.5789463,38.9013993 25.8392366,38.4499941 25.7199369,38.0149047 L24.2449584,32.4892695 Z" id="Shape"></path>
                        <path d="M19.1096474,9.37514588 C19.1095855,9.65109765 19.256338,9.90611416 19.4946101,10.044108 C19.7328823,10.1821018 20.0264636,10.1821018 20.2647357,10.044108 C20.5030079,9.90611416 20.6497604,9.65109765 20.6496984,9.37514588 C20.6497604,9.09919412 20.5030079,8.8441776 20.2647357,8.70618379 C20.0264636,8.56818998 19.7328823,8.56818998 19.4946101,8.70618379 C19.256338,8.8441776 19.1095855,9.09919412 19.1096474,9.37514588 Z" id="Shape"></path>
                        <path d="M22.0379133,30.5569399 C22.0819085,30.8293379 22.2674782,31.0574948 22.5247031,31.1554454 C22.7819281,31.253396 23.0717184,31.2062549 23.2848864,31.031784 C23.4980545,30.8573131 23.6022056,30.5820263 23.5580976,30.3096467 C23.5141024,30.0372487 23.3285327,29.8090917 23.0713078,29.7111411 C22.8140829,29.6131906 22.5242925,29.6603317 22.3111245,29.8348026 C22.0979564,30.0092735 21.9938053,30.2845602 22.0379133,30.5569399 Z" id="Shape"></path>
                        <path d="M9.25657439,18.1150039 C9.32706967,18.1313198 9.39756499,18.142197 9.46806027,18.142197 C9.82595945,18.142197 10.1567451,17.9028978 10.2543539,17.5385105 C10.3682309,17.1034211 10.1133633,16.6574545 9.67954616,16.5378049 L7.01157041,15.8199074 C6.57775322,15.7056965 6.1330906,15.9613115 6.01379084,16.3964009 C5.89991384,16.8314902 6.15478144,17.2774569 6.58859864,17.3971064 L9.25657439,18.1150039 Z M4.04534534,16.7172793 C4.11584062,16.7335951 4.18633595,16.7444723 4.25683123,16.7444723 C4.61473041,16.7444723 4.94551602,16.5051732 5.04312487,16.1407858 C5.15700187,15.7056965 4.90213427,15.2597299 4.46831712,15.1400802 L1.80034136,14.4221828 C1.36652417,14.3079718 0.921861559,14.5635868 0.802561793,14.9986762 C0.683262027,15.4337656 0.943552398,15.8797322 1.37736959,15.9993818 L4.04534534,16.7172793 Z M10.1296315,20.01852 C10.1296315,19.5671147 9.76630959,19.2027274 9.31622425,19.2027274 L1.68646433,19.2027274 C1.23637899,19.2027274 0.873057076,19.5671148 0.873057115,20.01852 C0.873057154,20.4699252 1.23637903,20.8343126 1.68646433,20.8343126 L9.32164694,20.8343126 C9.76630955,20.8343126 10.1296315,20.4699252 10.1296315,20.01852 Z M7.07122027,22.7269514 L1.55631918,24.2116939 C1.12250199,24.3259049 0.862211657,24.7773101 0.981511384,25.2123995 C1.07912023,25.5767869 1.40990585,25.8160861 1.76780507,25.816086 C1.83830035,25.816086 1.90879567,25.8052088 1.97929096,25.7888929 L7.48876932,24.3095891 C7.92258651,24.1953781 8.18287684,23.7439729 8.06357712,23.3088834 C7.94970012,22.8683554 7.50503747,22.6127404 7.07122027,22.7269514 Z" id="Shape"></path>
                        <path d="M8.77395275,22.8520396 C8.77389084,23.1279914 8.92064333,23.3830079 9.15891548,23.5210017 C9.39718763,23.6589955 9.6907689,23.6589955 9.92904105,23.5210017 C10.1673132,23.3830079 10.3140657,23.1279914 10.3140038,22.8520396 C10.3140657,22.5760878 10.1673132,22.3210713 9.92904105,22.1830775 C9.6907689,22.0450837 9.39718763,22.0450837 9.15891548,22.1830775 C8.92064333,22.3210713 8.77389084,22.5760878 8.77395275,22.8520396 Z" id="Shape"></path>
                        <path d="M15.4710057,3.27301724 C15.0371885,3.38722819 14.7768982,3.83863343 14.8961979,4.27372285 L16.3765991,9.79935804 C16.4742079,10.1637454 16.8049935,10.4030446 17.1628927,10.4030446 C17.233388,10.4030446 17.3038834,10.3921674 17.3743786,10.3758515 C17.8081958,10.2616405 18.0684862,9.81023531 17.9491864,9.37514588 L16.4687852,3.84951069 C16.3549082,3.41442131 15.9048229,3.1588063 15.4710057,3.27301724 Z" id="Shape"></path>
                        <path d="M14.7281486,2.5063704 C14.9823246,2.61202477 15.2733961,2.5736335 15.4916926,2.40566174 C15.7099891,2.23768998 15.8223365,1.96566407 15.7864042,1.69207851 C15.750472,1.41849295 15.5717206,1.184924 15.3175006,1.07937627 C15.0633246,0.973721901 14.772253,1.01211317 14.5539565,1.18008493 C14.3356601,1.34805668 14.2233127,1.6200826 14.259245,1.89366815 C14.2951772,2.16725371 14.4739285,2.40082267 14.7281486,2.5063704 Z" id="Shape"></path>
                        <path d="M21.5552919,9.57093611 C21.5552299,9.84688787 21.7019824,10.1019044 21.9402546,10.2398982 C22.1785267,10.377892 22.472108,10.377892 22.7103802,10.2398982 C22.9486523,10.1019044 23.0954048,9.84688787 23.0953429,9.57093611 C23.0954048,9.29498434 22.9486523,9.03996783 22.7103802,8.90197402 C22.472108,8.76398021 22.1785267,8.76398021 21.9402546,8.90197402 C21.7019824,9.03996783 21.5552299,9.29498434 21.5552919,9.57093611 Z" id="Shape"></path>
                        <path d="M22.5252523,6.9093191 C22.5692475,7.1817171 22.7548172,7.40987405 23.0120422,7.50782464 C23.2692671,7.60577523 23.5590574,7.55863412 23.7722255,7.38416323 C23.9853935,7.20969233 24.0895446,6.93440557 24.0454366,6.66202592 C24.0014414,6.38962793 23.8158718,6.16147097 23.5586468,6.06352038 C23.3014219,5.9655698 23.0116316,6.0127109 22.7984635,6.1871818 C22.5852955,6.3616527 22.4811443,6.63693945 22.5252523,6.9093191 Z" id="Shape"></path>
                        <path d="M39.9870999,20.0348358 C39.9870999,19.5834306 39.623778,19.2190432 39.1736926,19.2190432 L33.0568702,19.2190432 C32.6067848,19.2190432 32.2434629,19.5834306 32.243463,20.0348358 C32.243463,20.486241 32.6067849,20.8506284 33.0568702,20.8506284 L39.1682699,20.8506284 C39.6183552,20.8506284 39.9870998,20.4862411 39.9870999,20.0348358 Z M35.8875274,23.4937964 C35.4537102,23.3795855 35.0090476,23.6352005 34.8897478,24.0702899 C34.7758708,24.5053793 35.0307384,24.9513459 35.4645556,25.0709955 L38.4145126,25.8650336 C38.4850078,25.8813494 38.5555032,25.8922267 38.6259984,25.8922267 C38.9838976,25.8922267 39.3146832,25.6529275 39.4122921,25.2885402 C39.5261691,24.8534508 39.2713015,24.4074842 38.8374843,24.2878346 L35.8875274,23.4937964 Z" id="Shape"></path>
                        <path d="M29.8737365,20.0348358 C29.8736746,20.3107876 30.0204271,20.5658041 30.2586993,20.7037979 C30.4969714,20.8417917 30.7905527,20.8417917 31.0288248,20.7037979 C31.267097,20.5658041 31.4138495,20.3107876 31.4137876,20.0348358 C31.4138495,19.7588841 31.267097,19.5038675 31.0288248,19.3658737 C30.7905527,19.2278799 30.4969714,19.2278799 30.2586993,19.3658737 C30.0204271,19.5038675 29.8736746,19.7588841 29.8737365,20.0348358 Z" id="Shape"></path>
                        <path d="M36.7280482,15.61324 C36.6141712,15.1781506 36.1640858,14.9170969 35.7302687,15.0367465 L30.2207903,16.5160504 C29.7869731,16.6302614 29.5266828,17.0816666 29.6459825,17.516756 C29.7435913,17.8811434 30.074377,18.1204425 30.4322762,18.1204425 C30.5027715,18.1204425 30.5732668,18.1095653 30.6437621,18.0932495 L36.1532404,16.6139455 C36.5870576,16.4997346 36.847348,16.0483293 36.7280482,15.61324 Z" id="Shape"></path>
                        <path d="M37.4330011,15.1618347 C37.4329392,15.4377865 37.5796917,15.692803 37.8179639,15.8307968 C38.056236,15.9687906 38.3498173,15.9687906 38.5880894,15.8307968 C38.8263616,15.692803 38.9731141,15.4377865 38.9730522,15.1618347 C38.9731141,14.885883 38.8263616,14.6308664 38.5880894,14.4928726 C38.3498173,14.3548788 38.056236,14.3548788 37.8179639,14.4928726 C37.5796917,14.6308664 37.4329392,14.885883 37.4330011,15.1618347 Z" id="Shape"></path>
                        <path d="M29.6785188,22.4876522 C29.6784569,22.763604 29.8252094,23.0186205 30.0634815,23.1566143 C30.3017537,23.2946081 30.5953349,23.2946081 30.8336071,23.1566143 C31.0718792,23.0186205 31.2186317,22.763604 31.2185698,22.4876522 C31.2186317,22.2117005 31.0718792,21.956684 30.8336071,21.8186901 C30.5953349,21.6806963 30.3017537,21.6806963 30.0634815,21.8186901 C29.8252094,21.956684 29.6784569,22.2117005 29.6785188,22.4876522 Z" id="Shape"></path>
                        <path d="M32.4549488,23.4502875 C32.4548869,23.7262393 32.6016394,23.9812558 32.8399116,24.1192496 C33.0781837,24.2572434 33.371765,24.2572434 33.6100372,24.1192496 C33.8483093,23.9812558 33.9950618,23.7262393 33.9949999,23.4502875 C33.9950618,23.1743357 33.8483093,22.9193192 33.6100372,22.7813254 C33.371765,22.6433316 33.0781837,22.6433316 32.8399116,22.7813254 C32.6016394,22.9193192 32.4548869,23.1743357 32.4549488,23.4502875 Z" id="Shape"></path>
                    </g>
                </g>
            </g>
        </g>
    </g>
</svg>