<?xml version="1.0" standalone="no"?><!DOCTYPE svg PUBLIC "-//W3C//DTD SVG 1.1//EN" "http://www.w3.org/Graphics/SVG/1.1/DTD/svg11.dtd"><svg t="1523443770611" class="icon" style="" viewBox="0 0 1024 1024" version="1.1" xmlns="http://www.w3.org/2000/svg" p-id="12739" xmlns:xlink="http://www.w3.org/1999/xlink" width="16" height="16"><defs><style type="text/css"></style></defs><path d="M932.571429 1024h-841.142858C40.228571 1024 0 983.771429 0 932.571429v-841.142858C0 40.228571 40.228571 0 91.428571 0h841.142858C983.771429 0 1024 40.228571 1024 91.428571v841.142858c0 51.2-40.228571 91.428571-91.428571 91.428571zM91.428571 36.571429C62.171429 36.571429 36.571429 62.171429 36.571429 91.428571v841.142858c0 29.257143 25.6 54.857143 54.857142 54.857142h841.142858c29.257143 0 54.857143-25.6 54.857142-54.857142v-841.142858c0-29.257143-25.6-54.857143-54.857142-54.857142h-841.142858z" p-id="12740"></path><path d="M768 548.571429h-219.428571v219.428571h-73.142858v-219.428571H256v-73.142858h219.428571V256h73.142858v219.428571h219.428571z" p-id="12741"></path></svg>