<?xml version="1.0" encoding="utf-8"?>
<!-- Generator: Adobe Illustrator 19.0.0, SVG Export Plug-In . SVG Version: 6.00 Build 0)  -->
<svg version="1.1" id="图层_1" xmlns="http://www.w3.org/2000/svg" xmlns:xlink="http://www.w3.org/1999/xlink" x="0px" y="0px"
	 viewBox="0 0 32 32" style="enable-background:new 0 0 32 32;" xml:space="preserve">
<style type="text/css">
	.st0{fill:#C3CBD6;}
	.st1{fill:#FFFFFF;}
</style>
<title>未知</title>
<desc>Created with Sketch.</desc>
<g id="Artboard" transform="translate(-170.000000, -107.000000)">
	<g id="未知" transform="translate(170.000000, 107.000000)">
		<rect id="Rectangle-60" y="12" class="st0" width="32" height="16"/>
		<path id="json-copy" class="st0" d="M0,32V0h18l9,9.1V32H0z M18,3.1V8h5L18,3.1z M25,10h-9V2H2v28h23V10z"/>
		<path id="Combined-Shape" class="st1" d="M15.7,23.5c0.4,0,0.7,0.1,0.9,0.3c0.2,0.2,0.4,0.5,0.4,0.9c0,0.4-0.1,0.7-0.4,0.9
			C16.3,25.9,16,26,15.7,26s-0.7-0.1-0.9-0.4c-0.2-0.2-0.4-0.5-0.4-0.9c0-0.4,0.1-0.7,0.4-0.9C15,23.6,15.3,23.5,15.7,23.5z M16,14
			c1.1,0,1.9,0.3,2.6,0.9c0.7,0.6,1,1.4,1,2.4c0,0.8-0.2,1.5-0.6,2c-0.1,0.2-0.6,0.6-1.4,1.3c-0.3,0.2-0.5,0.5-0.7,0.8
			c-0.2,0.3-0.2,0.7-0.2,1.1v0.2h-1.9v-0.2c0-0.6,0.1-1.2,0.3-1.6c0.2-0.4,0.9-1.1,1.9-2.1l0.2-0.2c0.3-0.4,0.4-0.8,0.4-1.2
			c0-0.5-0.2-1-0.5-1.3c-0.3-0.3-0.8-0.5-1.3-0.5c-0.7,0-1.2,0.2-1.5,0.7c-0.3,0.4-0.4,0.9-0.4,1.6H12c0-1.2,0.3-2.2,1.1-2.9
			C13.8,14.3,14.7,14,16,14z"/>
	</g>
</g>
</svg>
