<?xml version="1.0" encoding="utf-8"?>
<!-- Generator: Adobe Illustrator 19.0.0, SVG Export Plug-In . SVG Version: 6.00 Build 0)  -->
<svg version="1.1" id="图层_1" xmlns="http://www.w3.org/2000/svg" xmlns:xlink="http://www.w3.org/1999/xlink" x="0px" y="0px"
	 viewBox="0 0 32 32" style="enable-background:new 0 0 32 32;" xml:space="preserve">
<style type="text/css">
	.st0{fill:#00CC99;}
	.st1{fill:#FFFFFF;}
</style>
<title>parq</title>
<desc>Created with Sketch.</desc>
<g id="Artboard" transform="translate(-122.000000, -107.000000)">
	<g id="parq" transform="translate(122.000000, 107.000000)">
		<rect id="Rectangle-60" y="12" class="st0" width="32" height="16"/>
		<path id="json-copy" class="st0" d="M0,32V0h18l9,9.1V32H0z M18,3.1V8h5L18,3.1z M25,10h-9V2H2v28h23V10z"/>
		<path id="Combined-Shape" class="st1" d="M3,15.2h1.5v1h0c0.2-0.4,0.5-0.7,0.9-0.9C5.8,15.1,6.3,15,6.7,15c0.6,0,1.1,0.1,1.5,0.3
			c0.4,0.2,0.8,0.5,1,0.8c0.3,0.3,0.5,0.8,0.6,1.2s0.2,1,0.2,1.5c0,0.5-0.1,0.9-0.2,1.4c-0.1,0.5-0.3,0.9-0.6,1.2s-0.6,0.6-1,0.8
			C8,22.4,7.5,22.5,7,22.5c-0.2,0-0.5,0-0.7-0.1c-0.2,0-0.5-0.1-0.7-0.2c-0.2-0.1-0.4-0.2-0.6-0.4c-0.2-0.1-0.3-0.3-0.5-0.5h0V25H3
			V15.2z M8.5,18.8c0-0.3,0-0.6-0.1-0.9S8.2,17.3,8,17c-0.2-0.2-0.4-0.4-0.6-0.6c-0.2-0.1-0.5-0.2-0.9-0.2c-0.7,0-1.2,0.2-1.5,0.7
			c-0.3,0.5-0.5,1.1-0.5,1.8c0,0.4,0,0.7,0.1,1s0.2,0.6,0.4,0.8c0.2,0.2,0.4,0.4,0.6,0.5c0.2,0.1,0.5,0.2,0.9,0.2
			c0.4,0,0.7-0.1,0.9-0.2c0.2-0.1,0.5-0.3,0.6-0.6c0.2-0.2,0.3-0.5,0.3-0.8C8.5,19.4,8.5,19.1,8.5,18.8z M17.4,20.8
			c0,0.2,0,0.3,0.1,0.4c0.1,0.1,0.2,0.1,0.3,0.1H18c0.1,0,0.1,0,0.2,0v1.1c-0.1,0-0.1,0-0.2,0.1s-0.2,0-0.3,0.1s-0.2,0-0.3,0
			c-0.1,0-0.2,0-0.2,0c-0.3,0-0.6-0.1-0.8-0.2S16,22,16,21.7c-0.3,0.3-0.7,0.5-1.2,0.7c-0.5,0.1-0.9,0.2-1.3,0.2
			c-0.3,0-0.6,0-0.9-0.1c-0.3-0.1-0.6-0.2-0.8-0.4c-0.2-0.2-0.4-0.4-0.5-0.7c-0.1-0.3-0.2-0.6-0.2-0.9c0-0.4,0.1-0.8,0.2-1.1
			s0.4-0.5,0.6-0.7c0.3-0.2,0.6-0.3,0.9-0.3c0.3-0.1,0.7-0.1,1-0.2c0.3-0.1,0.6-0.1,0.8-0.1c0.3,0,0.5-0.1,0.7-0.1s0.4-0.1,0.5-0.3
			c0.1-0.1,0.2-0.3,0.2-0.5c0-0.2,0-0.4-0.1-0.5c-0.1-0.1-0.2-0.2-0.4-0.3c-0.1-0.1-0.3-0.1-0.5-0.1c-0.2,0-0.3,0-0.5,0
			c-0.4,0-0.8,0.1-1.1,0.3s-0.4,0.5-0.5,0.9h-1.6c0-0.5,0.1-0.8,0.3-1.1s0.4-0.5,0.7-0.7s0.6-0.3,1-0.4c0.4-0.1,0.8-0.1,1.2-0.1
			c0.4,0,0.7,0,1,0.1c0.3,0.1,0.6,0.2,0.9,0.4c0.3,0.2,0.5,0.4,0.7,0.6c0.2,0.3,0.2,0.6,0.2,1V20.8z M15.8,18.8
			c-0.2,0.2-0.5,0.3-0.9,0.3s-0.7,0.1-1.1,0.1c-0.2,0-0.3,0.1-0.5,0.1c-0.2,0.1-0.3,0.1-0.4,0.2c-0.1,0.1-0.2,0.2-0.3,0.3
			c-0.1,0.1-0.1,0.3-0.1,0.5c0,0.2,0.1,0.3,0.2,0.4c0.1,0.1,0.2,0.2,0.4,0.3c0.1,0.1,0.3,0.1,0.5,0.1c0.2,0,0.3,0,0.5,0
			c0.2,0,0.4,0,0.6-0.1s0.4-0.1,0.6-0.2c0.2-0.1,0.3-0.3,0.5-0.4c0.1-0.2,0.2-0.4,0.2-0.6V18.8z M19.1,15.2h1.5v1.4h0
			c0-0.2,0.1-0.4,0.3-0.6c0.1-0.2,0.3-0.4,0.5-0.5c0.2-0.2,0.4-0.3,0.6-0.4s0.5-0.1,0.7-0.1c0.2,0,0.3,0,0.4,0s0.1,0,0.2,0v1.5
			c-0.1,0-0.2,0-0.3,0c-0.1,0-0.2,0-0.3,0c-0.3,0-0.5,0.1-0.8,0.2s-0.4,0.3-0.6,0.5c-0.2,0.2-0.3,0.5-0.4,0.8s-0.2,0.7-0.2,1.1v3.4
			h-1.6V15.2z M30.5,25h-1.6v-3.6h0c-0.1,0.2-0.3,0.4-0.5,0.5s-0.4,0.3-0.6,0.4c-0.2,0.1-0.4,0.2-0.7,0.2c-0.2,0-0.5,0.1-0.7,0.1
			c-0.5,0-1-0.1-1.4-0.3c-0.4-0.2-0.7-0.5-1-0.8s-0.4-0.7-0.6-1.2s-0.2-0.9-0.2-1.4c0-0.5,0.1-1,0.2-1.5c0.1-0.5,0.3-0.9,0.6-1.2
			s0.6-0.6,1-0.8s0.9-0.3,1.5-0.3c0.5,0,0.9,0.1,1.3,0.3c0.4,0.2,0.7,0.5,0.9,0.9h0v-1h1.5V25z M25,18.8c0,0.3,0,0.6,0.1,0.9
			c0.1,0.3,0.2,0.6,0.3,0.8s0.4,0.4,0.6,0.6c0.2,0.1,0.6,0.2,0.9,0.2c0.7,0,1.2-0.2,1.5-0.7c0.3-0.5,0.5-1.1,0.5-1.8
			c0-0.8-0.2-1.4-0.5-1.9c-0.3-0.5-0.8-0.7-1.5-0.7c-0.3,0-0.6,0.1-0.9,0.2c-0.2,0.1-0.5,0.3-0.6,0.6c-0.2,0.2-0.3,0.5-0.4,0.8
			S25,18.5,25,18.8z"/>
	</g>
</g>
</svg>
