<?xml version="1.0" encoding="UTF-8" standalone="no"?>
<svg width="22px" height="22px" viewBox="0 0 22 22" version="1.1" xmlns="http://www.w3.org/2000/svg" xmlns:xlink="http://www.w3.org/1999/xlink">
    <!-- Generator: Sketch 46 (44423) - http://www.bohemiancoding.com/sketch -->
    <title>icon－失败</title>
    <desc>Created with Sketch.</desc>
    <defs></defs>
    <g id="Symbols" stroke="none" stroke-width="1" fill="none" fill-rule="evenodd">
        <g id="icon－失败" fill="#ED4014">
            <path d="M11.0127801,12.8562374 L11.0127801,12.8562374 C12.8076063,12.8562374 14.3914899,13.8022613 15.3354028,15.2438134 C15.6259945,15.6876691 15.3078516,16.2865991 14.7853704,16.2855208 L14.7535107,16.2855208 C14.5425681,16.2855208 14.3382299,16.1848148 14.2200317,16.006075 C13.5179574,14.9424331 12.3428353,14.2620359 11.0127234,14.2620359 C9.68978276,14.2620359 8.52120836,14.9523079 7.81740496,16.0077492 C7.69866826,16.1865173 7.49549215,16.2860883 7.2855983,16.2860883 L7.23449248,16.2860883 C6.71198295,16.2860883 6.39395338,15.6882083 6.68400655,15.2438134 C7.62619039,13.7995372 9.21344704,12.8562374 11.0127801,12.8562374 L11.0127801,12.8562374 Z M7.86077263,9.99625954 C8.57336294,9.99625954 9.1496994,9.42042755 9.1496994,8.71199501 C9.1496994,8.00251256 8.57336294,7.4272197 7.86077263,7.4272197 C7.15093178,7.4272197 6.57136399,8.00254093 6.57136399,8.71199501 C6.57136399,9.42039917 7.15042157,9.99625954 7.86077263,9.99625954 L7.86077263,9.99625954 Z M14.7194969,7.42719133 C14.0086072,7.42719133 13.4311937,8.00254093 13.4311937,8.71199501 C13.4311937,9.42039917 14.0086072,9.99625954 14.7194969,9.99625954 C15.4320872,9.99625954 16.0083953,9.42039917 16.0083953,8.71199501 C16.0083953,8.00251256 15.4320588,7.42719133 14.7194969,7.42719133 L14.7194969,7.42719133 Z M17.7764072,17.7627982 C15.9677487,19.5701155 13.5618636,20.5672444 11.004475,20.5672444 C8.4475967,20.5672444 6.04341224,19.5713073 4.23588753,17.7650399 C2.42839116,15.9572117 1.43280556,13.5531493 1.43342915,10.9956869 C1.43342915,8.43811089 2.42892971,6.03348097 4.23693629,4.22684463 C6.0455948,2.41947051 8.44861712,1.42452657 11.0061474,1.42452657 C13.5635359,1.42452657 15.9677204,2.41944213 17.7764072,4.22684463 C21.5078691,7.95909744 21.5078691,14.0315669 17.7764072,17.7627982 L17.7764072,17.7627982 Z M18.7829056,3.22080572 C16.704007,1.1440025 13.9415149,0 11.0017823,0 C8.06301336,0 5.30003939,1.1440025 3.22284148,3.22077734 C1.14439639,5.29874398 1.70695374e-07,8.06139253 1.70695374e-07,11.0000851 C-0.000510037162,13.9392601 1.14275239,16.7013128 3.22063058,18.779251 C5.29839539,20.8560543 8.06136935,22 10.999543,22 C13.9399559,22 16.7039787,20.854976 18.7829056,18.7780876 C23.072138,14.4897808 23.0725916,7.51084346 18.7829056,3.22080572 L18.7829056,3.22080572 Z" id="Fill-1-Copy"></path>
        </g>
    </g>
</svg>