<?xml version="1.0" encoding="UTF-8" standalone="no"?>
<svg width="14px" height="14px" viewBox="0 0 14 14" version="1.1" xmlns="http://www.w3.org/2000/svg" xmlns:xlink="http://www.w3.org/1999/xlink">
    <!-- Generator: Sketch 46 (44423) - http://www.bohemiancoding.com/sketch -->
    <title>icon－添加</title>
    <desc>Created with Sketch.</desc>
    <defs></defs>
    <g id="Symbols" stroke="none" stroke-width="1" fill="none" fill-rule="evenodd">
        <g id="新建button" transform="translate(-20.000000, -12.000000)" fill="#FFFFFF">
            <g id="icon－添加">
                <path d="M28,18 L28,13.0068455 C28,12.4499488 27.5522847,12 27,12 C26.4438648,12 26,12.4507801 26,13.0068455 L26,18 L21.0068455,18 C20.4499488,18 20,18.4477153 20,19 C20,19.5561352 20.4507801,20 21.0068455,20 L26,20 L26,24.9931545 C26,25.5500512 26.4477153,26 27,26 C27.5561352,26 28,25.5492199 28,24.9931545 L28,20 L32.9931545,20 C33.5500512,20 34,19.5522847 34,19 C34,18.4438648 33.5492199,18 32.9931545,18 L28,18 Z"></path>
            </g>
        </g>
    </g>
</svg>