<?xml version="1.0" standalone="no"?><!DOCTYPE svg PUBLIC "-//W3C//DTD SVG 1.1//EN" "http://www.w3.org/Graphics/SVG/1.1/DTD/svg11.dtd"><svg t="1496805158273" class="icon" style="" viewBox="0 0 1024 1024" version="1.1" xmlns="http://www.w3.org/2000/svg" p-id="1013" xmlns:xlink="http://www.w3.org/1999/xlink" width="200" height="200"><defs><style type="text/css"></style></defs><path d="M665.6 351.573333H285.013333c-17.066667 0-32.426667 13.653333-32.426666 32.426667 0 17.066667 13.653333 32.426667 32.426666 32.426667h382.293334c17.066667 0 32.426667-13.653333 32.426666-32.426667-1.706667-17.066667-15.36-32.426667-34.133333-32.426667zM696.32 547.84c-5.12-11.946667-15.36-20.48-29.013333-20.48H285.013333c-17.066667 0-32.426667 13.653333-32.426666 32.426667s13.653333 32.426667 32.426666 32.426666h324.266667c27.306667-18.773333 56.32-34.133333 87.04-44.373333zM500.053333 703.146667H285.013333c-17.066667 0-32.426667 13.653333-32.426666 32.426666 0 17.066667 13.653333 32.426667 32.426666 32.426667h182.613334c8.533333-23.893333 18.773333-44.373333 32.426666-64.853333z" p-id="1014" fill="#43a3fb"></path><path d="M443.733333 960.853333H189.44c-37.546667 0-68.266667-30.72-68.266667-68.266666V129.706667c0-37.546667 30.72-68.266667 66.56-68.266667 3.413333 0 327.68 0 419.84 1.706667l6.826667 5.12v131.413333c0 42.666667 34.133333 76.8 76.8 76.8h133.12l5.12 5.12v245.76c20.48 0 40.96 3.413333 59.733333 6.826667V257.706667L634.88 3.413333 189.44 1.706667C119.466667 3.413333 63.146667 59.733333 63.146667 129.706667v762.88c0 69.973333 56.32 128 128 128h267.946666c-6.826667-18.773333-11.946667-39.253333-15.36-59.733334z" p-id="1015" fill="#43a3fb"></path><path d="M759.466667 643.413333c-119.466667 0-223.573333 75.093333-264.533334 180.906667 40.96 105.813333 143.36 180.906667 264.533334 180.906667S983.04 928.426667 1024 822.613333c-40.96-104.106667-143.36-179.2-264.533333-179.2z m0 300.373334c-66.56 0-119.466667-52.906667-119.466667-119.466667s52.906667-119.466667 119.466667-119.466667 119.466667 52.906667 119.466666 119.466667c1.706667 66.56-51.2 119.466667-119.466666 119.466667z m0-192.853334c-40.96 0-71.68 30.72-71.68 71.68 0 40.96 30.72 71.68 71.68 71.68s71.68-30.72 71.68-71.68c1.706667-39.253333-30.72-71.68-71.68-71.68z" p-id="1016" fill="#43a3fb"></path></svg>