<?xml version="1.0" standalone="no"?><!DOCTYPE svg PUBLIC "-//W3C//DTD SVG 1.1//EN" "http://www.w3.org/Graphics/SVG/1.1/DTD/svg11.dtd"><svg t="1497607293105" class="icon" style="" viewBox="0 0 1024 1024" version="1.1" xmlns="http://www.w3.org/2000/svg" p-id="1750" xmlns:xlink="http://www.w3.org/1999/xlink" width="200" height="200"><defs><style type="text/css"></style></defs><path d="M119.928832 959.681536l643.183616 0c30.886912 0 55.929856-25.04192 55.929856-55.927808L819.042304 494.19776l-55.929856 53.395456 0 356.160512L119.928832 903.753728 119.928832 204.638208l392.909824 0 56.544256-54.480896-1.462272-1.447936L119.928832 148.709376c-30.885888 0-55.928832 25.042944-55.928832 55.928832l0 699.114496C64 934.639616 89.042944 959.681536 119.928832 959.681536z" p-id="1751" fill="#5ba0ff"></path><path d="M915.935232 100.775936c-25.233408-24.196096-53.088256-36.458496-82.80064-36.458496-46.507008 0-80.42496 30.040064-89.65632 39.230464-13.080576 12.916736-383.789056 383.0784-383.789056 383.0784-2.90816 2.963456-5.03808 6.582272-6.117376 10.609664-10.036224 37.113856-60.366848 201.856-60.858368 203.493376-2.593792 8.43776-0.273408 17.642496 5.940224 23.786496 4.46464 4.48 10.418176 6.85568 16.52224 6.85568 2.403328 0 4.819968-0.356352 7.195648-1.093632 1.707008-0.572416 171.718656-55.545856 199.697408-63.901696 3.687424-1.091584 7.046144-3.086336 9.803776-5.789696 17.655808-17.424384 358.391808-352.874496 385.974272-381.35808 28.510208-29.412352 42.684416-59.998208 42.1376-90.966016C959.465472 157.687808 944.582656 128.234496 915.935232 100.775936zM877.674496 240.325632c-15.565824 16.057344-137.418752 136.46336-362.186752 357.885952l-17.205248 16.958464c-25.765888 7.975936-87.471104 27.8016-134.115328 42.848256 15.020032-49.59232 33.04448-109.507584 41.07264-137.841664 48.036864-47.96928 365.628416-365.0816 377.699328-376.988672 2.349056-2.349056 23.786496-22.939648 50.194432-22.939648 14.993408 0 29.438976 6.841344 44.10368 20.905984 17.532928 16.822272 26.571776 32.989184 26.817536 48.091136C904.329216 204.782592 895.453184 221.959168 877.674496 240.325632z" p-id="1752" fill="#5ba0ff"></path></svg>