<?xml version="1.0" encoding="UTF-8" standalone="no"?>
<svg width="15px" height="14px" viewBox="0 0 15 14" version="1.1" xmlns="http://www.w3.org/2000/svg" xmlns:xlink="http://www.w3.org/1999/xlink">
    <!-- Generator: Sketch 46 (44423) - http://www.bohemiancoding.com/sketch -->
    <title>icon－date</title>
    <desc>Created with Sketch.</desc>
    <defs></defs>
    <g id="Page-1" stroke="none" stroke-width="1" fill="none" fill-rule="evenodd">
        <g id="3活动列表-" transform="translate(-213.000000, -223.000000)" fill="#C7CBD3">
            <g id="列表" transform="translate(100.000000, 140.000000)">
                <g id="选择时间" transform="translate(100.000000, 72.000000)">
                    <g id="icon－date">
                        <path d="M23.99285,11 L23.99285,13.00665 L24.99285,13.00665 L24.99285,11 L25.9924,11 C27.0963,11 27.99115,11.89015 27.99115,12.98825 L27.99115,23.9243 C27.99115,25.02255 27.0963,24.91865 25.9924,24.91865 L14.9988,24.91865 C13.89485,24.91865 13,25.02255 13,23.9243 L13,12.98825 C13,11.89015 13.89485,11 14.9988,11 L16.0085,11 L16.0085,13.00665 L17.0085,13.00665 L17.0085,11 L23.99285,11 Z M26.99175,14.9763 L13.9994,14.9763 L13.9994,23.9243 L26.99175,23.9243 L26.99175,14.9763 Z M14.99285,22.5223 L17.99285,22.5223 L17.99285,20.0223 L14.99285,20.0223 L14.99285,22.5223 Z M18.99285,22.5223 L21.99285,22.5223 L21.99285,20.0223 L18.99285,20.0223 L18.99285,22.5223 Z M22.99285,22.5223 L25.99285,22.5223 L25.99285,20.0223 L22.99285,20.0223 L22.99285,22.5223 Z M14.99285,19.0223 L17.99285,19.0223 L17.99285,16.5223 L14.99285,16.5223 L14.99285,19.0223 Z M18.99285,19.0223 L21.99285,19.0223 L21.99285,16.5223 L18.99285,16.5223 L18.99285,19.0223 Z M22.99285,19.0223 L25.99285,19.0223 L25.99285,16.5223 L22.99285,16.5223 L22.99285,19.0223 Z"></path>
                    </g>
                </g>
            </g>
        </g>
    </g>
</svg>