<?xml version="1.0" encoding="UTF-8" standalone="no"?>
<svg width="16px" height="12px" viewBox="0 0 16 12" version="1.1" xmlns="http://www.w3.org/2000/svg" xmlns:xlink="http://www.w3.org/1999/xlink">
    <!-- Generator: Sketch 46.2 (44496) - http://www.bohemiancoding.com/sketch -->
    <title>icon－shangchuan</title>
    <desc>Created with Sketch.</desc>
    <defs></defs>
    <g id="Page-1" stroke="none" stroke-width="1" fill="none" fill-rule="evenodd">
        <g id="14短信活动推广通知" transform="translate(-1174.000000, -440.000000)" fill="#BDC5D5">
            <g id="右侧" transform="translate(721.000000, 119.000000)">
                <g id="黑名单" transform="translate(370.000000, 311.000000)">
                    <g id="Group-10" transform="translate(70.000000, 0.000000)">
                        <path d="M20.7993399,10 C18.1255849,10 15.8253259,11.8630515 15.1574616,14.459893 C13.8524398,15.1211982 13,16.4921039 13,18.02561 C13,20.2160344 14.7290274,22 16.8733289,22 C17.1413352,22 17.4071691,21.9714238 17.6686163,21.9165274 C17.8817263,21.8747911 18.0553142,21.7209642 18.1234124,21.5166695 C18.1915107,21.3101604 18.1431735,21.0838486 17.9959893,20.9234626 C17.8487634,20.7630765 17.62688,20.6949783 17.4159843,20.7455297 C17.2380097,20.7828793 17.0556484,20.8026404 16.8733289,20.8026404 C15.4013202,20.8026404 14.1995739,19.5635445 14.1995739,18.0278242 C14.1995739,16.8722009 14.8850267,15.8527741 15.9000251,15.4419703 L16.1988219,15.3211063 L16.2625334,15.0069352 C16.7129428,12.7989639 18.600142,11.1995321 20.7993399,11.1995321 C22.9985378,11.1995321 24.8857787,12.7967497 25.3339739,15.0025485 L25.3976855,15.3167196 L25.6964823,15.4375418 C26.7114806,15.8483874 27.3969335,16.8678142 27.3969335,18.0234375 C27.3969335,19.559116 26.1974014,20.7982537 24.7231785,20.7982537 C24.5496324,20.7982537 24.3782587,20.7806651 24.2113135,20.7477022 C23.9982035,20.699365 23.7762784,20.7696775 23.6290943,20.9322777 C23.4840826,21.0948362 23.4379596,21.3233205 23.5082721,21.5298295 C23.580757,21.7363803 23.7587316,21.8879512 23.974014,21.9230866 C24.2178727,21.9714238 24.4683322,21.9977858 24.721006,21.9977858 C26.8630932,21.9977858 28.5942931,20.2138202 28.5942931,18.0234375 C28.5942931,16.4921039 27.7418951,15.118984 26.4368733,14.4576788 C25.7733539,11.8630515 23.4730949,10 20.7993399,10 Z M21.3991477,17.0655498 L21.3991477,21.4024064 C21.3991477,21.7319519 21.1333138,22 20.7993399,22 C20.467622,22 20.1995739,21.7253927 20.1995739,21.4024064 L20.1995739,17.0655498 L19.0725267,18.1925969 C18.9604779,18.30686 18.8066928,18.3705715 18.6484793,18.3705715 C18.4880932,18.3705715 18.3365224,18.30686 18.2244736,18.1948112 C18.1102106,18.0827624 18.046499,17.9289773 18.046499,17.7707637 C18.046499,17.6103777 18.1102106,17.4588068 18.2244736,17.346758 L20.3445856,15.2288603 C20.4214572,15.1519469 20.5115307,15.1014372 20.6104195,15.072861 C20.8235294,14.9937751 21.0717747,15.0421123 21.2431484,15.2134442 L23.3610461,17.3313837 C23.600518,17.5708556 23.5983456,17.9465241 23.3632604,18.1816093 C23.2512116,18.2936581 23.0974265,18.3573697 22.9392129,18.3573697 C22.7788686,18.3573697 22.627256,18.2936581 22.5152072,18.1793951 L21.3991477,17.0655498 Z" id="icon－shangchuan"></path>
                    </g>
                </g>
            </g>
        </g>
    </g>
</svg>