<?xml version="1.0" encoding="UTF-8" standalone="no"?>
<svg width="16px" height="16px" viewBox="0 0 16 16" version="1.1" xmlns="http://www.w3.org/2000/svg" xmlns:xlink="http://www.w3.org/1999/xlink">
    <!-- Generator: Sketch 46 (44423) - http://www.bohemiancoding.com/sketch -->
    <title>icon－download</title>
    <desc>Created with Sketch.</desc>
    <defs></defs>
    <g id="Page-1" stroke="none" stroke-width="1" fill="none" fill-rule="evenodd">
        <g id="3活动列表-" transform="translate(-1384.000000, -392.000000)" fill="#BDC5D5">
            <g id="列表" transform="translate(100.000000, 140.000000)">
                <g id="icon－download" transform="translate(1284.000000, 252.000000)">
                    <path d="M14,16 L2,16 C0.895,16 0,15.104472 0,13.9999375 L0,1.99956249 C0,0.89502797 0.895,0 2,0 L14,0 C15.105,0 16,0.89502797 16,1.99956249 L16,13.9999375 C16,15.104472 15.105,16 14,16 Z M14,2.99959374 C14,2.44757649 13.555,1.99956249 13,1.99956249 L3,1.99956249 C2.45,1.99956249 2,2.44757649 2,2.99959374 L2,9.99981249 C2,10.5523298 2.45,10.9998437 3,10.9998437 L4,10.9998437 C4.995,10.9998437 5,11.999875 5,11.999875 L5,12.4998906 L5,12.9999062 C5,13.5519235 5.45,13.9999375 6,13.9999375 L10,13.9999375 C10.555,13.9999375 11,13.5519235 11,12.9999062 L11,11.999875 C11,11.999875 11.135,10.9998437 12,10.9998437 L13,10.9998437 C13.555,10.9998437 14,10.5523298 14,9.99981249 L14,2.99959374 Z M4,7.99974999 L7,7.99974999 L7,3.99962499 L9,3.99962499 L9,7.99974999 L12,7.99974999 L8,11.999875 L4,7.99974999 Z"></path>
                </g>
            </g>
        </g>
    </g>
</svg>