<?xml version="1.0" encoding="UTF-8" standalone="no"?>
<svg width="32px" height="32px" viewBox="0 0 32 32" version="1.1" xmlns="http://www.w3.org/2000/svg" xmlns:xlink="http://www.w3.org/1999/xlink">
    <!-- Generator: Sketch 46 (44423) - http://www.bohemiancoding.com/sketch -->
    <title>新建</title>
    <desc>Created with Sketch.</desc>
    <defs></defs>
    <g id="Symbols" stroke="none" stroke-width="1" fill="none" fill-rule="evenodd">
        <g id="新建">
            <circle id="Oval" fill="#43A3FB" cx="16" cy="16" r="16"></circle>
            <path d="M17,15 L17,10.0068455 C17,9.44994876 16.5522847,9 16,9 C15.4438648,9 15,9.45078007 15,10.0068455 L15,15 L10.0068455,15 C9.44994876,15 9,15.4477153 9,16 C9,16.5561352 9.45078007,17 10.0068455,17 L15,17 L15,21.9931545 C15,22.5500512 15.4477153,23 16,23 C16.5561352,23 17,22.5492199 17,21.9931545 L17,17 L21.9931545,17 C22.5500512,17 23,16.5522847 23,16 C23,15.4438648 22.5492199,15 21.9931545,15 L17,15 Z" id="icon" fill="#FFFFFF"></path>
        </g>
    </g>
</svg>