<?xml version="1.0" encoding="UTF-8" standalone="no"?>
<svg width="14px" height="15px" viewBox="0 0 14 15" version="1.1" xmlns="http://www.w3.org/2000/svg" xmlns:xlink="http://www.w3.org/1999/xlink">
    <!-- Generator: Sketch 46 (44423) - http://www.bohemiancoding.com/sketch -->
    <title>icon－编辑</title>
    <desc>Created with Sketch.</desc>
    <defs></defs>
    <g id="Page-1" stroke="none" stroke-width="1" fill="none" fill-rule="evenodd">
        <g id="4新建营销活动" transform="translate(-212.000000, -102.000000)" fill="#657180">
            <g id="基本信息" transform="translate(100.000000, 80.000000)">
                <g id="icon－编辑-copy" transform="translate(112.000000, 22.000000)">
                    <path d="M13.8475,2.77754008 L6.56255,10.0623641 L3.93755,10.0623641 L3.93755,7.43757344 L11.22245,0.152499455 C11.325,0.0500498213 11.45925,0 11.5936,0 C11.72815,0 11.86255,0.0500498213 11.96505,0.152499455 L13.8475,2.03479273 C13.95005,2.13749237 14,2.27159189 14,2.40619141 C14,2.54029093 13.95005,2.67504045 13.8475,2.77754008 Z M11.59385,1.53124453 L5.2501,7.87482188 L5.2501,8.74996875 L6.12505,8.74996875 L12.4688,2.40619141 L11.59385,1.53124453 Z M6.78125,2.31259531 L1.3125,2.31259531 L1.3125,12.8126578 L11.81255,12.8126578 L11.81255,7.34377734 C11.81255,6.98137864 12.10635,6.68747969 12.4688,6.68747969 C12.83125,6.68747969 13.12505,6.98137864 13.12505,7.34377734 L13.12505,13.2499063 C13.12505,13.7332545 12.73335,14.1250531 12.25,14.1250531 L0.87515,14.1250531 C0.3918,14.1250531 0,13.7332545 0,13.2499063 L0,1.87489688 C0,1.3917486 0.3918,1 0.87515,1 L6.78125,1 C7.14375,1 7.43755,1.29409895 7.43755,1.65629766 C7.43755,2.01844636 7.14375,2.31259531 6.78125,2.31259531 Z" id="icon－编辑"></path>
                </g>
            </g>
        </g>
    </g>
</svg>