<?xml version="1.0" encoding="UTF-8" standalone="no"?>
<svg width="16px" height="16px" viewBox="0 0 16 16" version="1.1" xmlns="http://www.w3.org/2000/svg" xmlns:xlink="http://www.w3.org/1999/xlink">
    <!-- Generator: Sketch 46 (44423) - http://www.bohemiancoding.com/sketch -->
    <title>icon－设置</title>
    <desc>Created with Sketch.</desc>
    <defs></defs>
    <g id="Page-1" stroke="none" stroke-width="1" fill="none" fill-rule="evenodd">
        <g id="7新建营销流程" transform="translate(-1139.000000, -82.000000)" fill="#657180">
            <g id="操作" transform="translate(805.000000, 65.000000)">
                <path d="M342,28.0972202 C340.078873,28.0972202 338.521472,26.5398408 338.521472,24.6186918 C338.521472,22.6975652 340.078873,21.1401635 342,21.1401635 C343.921149,21.1401635 345.478528,22.6975652 345.478528,24.6186918 C345.478528,26.5398408 343.921149,28.0972202 342,28.0972202 M347.284424,27.7846123 C347.833713,26.8404356 348.839118,26.3445448 349.787702,26.4568008 C349.926468,25.8665953 350,25.2512451 350,24.6186918 C350,24.0606553 349.942798,23.5160412 349.834054,22.9902408 C348.873525,23.1172839 347.849842,22.6167847 347.296817,21.657284 C346.734888,20.6823699 346.826585,19.5244637 347.444217,18.7568811 C346.595877,17.9686279 345.576154,17.3623602 344.447151,17 C344.096938,17.9291437 343.133656,18.5965952 342,18.5965952 C340.866344,18.5965952 339.903062,17.9291213 339.552849,17 C338.43445,17.3589599 337.42334,17.9573307 336.579809,18.7348012 C337.194421,19.504867 337.281465,20.6631983 336.715576,21.6358977 C336.158636,22.5932508 335.132739,23.0896113 334.172635,22.9585415 C334.059618,23.4941403 334,24.0494476 334,24.6186918 C334,25.2399926 334.070826,25.8447615 334.204848,26.4253477 C335.154014,26.3166933 336.157629,26.8166779 336.703205,27.7632036 C337.239296,28.6933316 337.180573,29.7900764 336.637704,30.5554443 C337.486761,31.3228033 338.501114,31.9107046 339.621058,32.2590161 C340.017197,31.4149928 340.933165,30.8238924 342,30.8238924 C343.066835,30.8238924 343.982803,31.4149928 344.378942,32.2590161 C345.488439,31.9139484 346.494269,31.3337425 347.338471,30.5768531 C346.798823,29.8093151 346.744597,28.7124809 347.284424,27.7846123" id="icon－设置"></path>
            </g>
        </g>
    </g>
</svg>