<?xml version="1.0" encoding="UTF-8" standalone="no"?>
<svg width="16px" height="16px" viewBox="0 0 16 16" version="1.1" xmlns="http://www.w3.org/2000/svg" xmlns:xlink="http://www.w3.org/1999/xlink">
    <!-- Generator: Sketch 46 (44423) - http://www.bohemiancoding.com/sketch -->
    <title>icon－删除</title>
    <desc>Created with Sketch.</desc>
    <defs></defs>
    <g id="Page-1" stroke="none" stroke-width="1" fill="none" fill-rule="evenodd">
        <g id="5营销活动详情－未开始" transform="translate(-721.000000, -301.000000)" fill="#657180">
            <g id="概览" transform="translate(101.000000, 220.000000)">
                <g id="Group" transform="translate(20.000000, 65.000000)">
                    <g id="icon－删除" transform="translate(600.000000, 16.000000)">
                        <path d="M8,0 C12.4153263,0 16,3.58467368 16,8 C16,12.4153263 12.4153263,16 8,16 C3.58467368,16 0,12.4153263 0,8 C0,3.58467368 3.58467368,0 8,0 Z M8,1.26315789 C11.7181474,1.26315789 14.7368421,4.28185263 14.7368421,8 C14.7368421,11.7181474 11.7181474,14.7368421 8,14.7368421 C4.28185263,14.7368421 1.26315789,11.7181474 1.26315789,8 C1.26315789,4.28185263 4.28185263,1.26315789 8,1.26315789 Z M4.21216842,8.84913684 L11.7881263,8.84913684 L11.7881263,7.15385263 L4.21216842,7.15385263 L4.21216842,8.84913684 Z"></path>
                    </g>
                </g>
            </g>
        </g>
    </g>
</svg>