<?xml version="1.0" encoding="UTF-8" standalone="no"?>
<svg width="14px" height="16px" viewBox="0 0 14 16" version="1.1" xmlns="http://www.w3.org/2000/svg" xmlns:xlink="http://www.w3.org/1999/xlink">
    <!-- Generator: Sketch 46 (44423) - http://www.bohemiancoding.com/sketch -->
    <title>icon－校验</title>
    <desc>Created with Sketch.</desc>
    <defs></defs>
    <g id="Page-1" stroke="none" stroke-width="1" fill="none" fill-rule="evenodd">
        <g id="7新建营销流程" transform="translate(-1102.000000, -82.000000)" fill="#657180">
            <g id="操作" transform="translate(805.000000, 65.000000)">
                <path d="M303.066876,29.5442001 C302.068048,28.2044995 300.759834,27.1263367 299.253947,26.4018731 L301.722983,24.9047121 L302.922881,27.224422 C302.922881,27.224422 304.850615,22.5515553 307.894333,20.9584508 C307.905109,20.9670859 307.915431,20.9764274 307.924954,20.9864068 C307.680641,22.0611748 307.734138,23.1822171 308.079635,24.2287557 C306.731823,24.5340388 303.964088,27.8990341 303.066876,29.5442001 M310.284696,19.0946265 C310.262185,19.0139938 310.212789,18.9434089 310.144802,18.8946283 C310.063987,18.866604 309.976223,18.866604 309.895408,18.8946283 C309.239046,19.1862866 308.527227,19.3322411 307.808984,19.3226262 C306.203416,19.3155176 304.713113,18.4875461 303.858712,17.1281601 C303.806924,17.0482338 303.718089,17 303.622784,17 C303.527455,17 303.438734,17.0482338 303.386832,17.1281601 C302.537148,18.4925359 301.043815,19.3221022 299.436561,19.3226262 C298.755273,19.3236059 298.0818,19.1776515 297.462098,18.8946283 C297.387958,18.838648 297.285613,18.838648 297.211473,18.8946283 C297.133165,18.9323814 297.080123,19.0081155 297.071488,19.0946265 C296.988805,19.4652998 296.988805,25.1633563 297.016829,26.3031727 C297.016829,29.9774612 303.274781,32.8558125 303.549442,32.9691174 C303.582821,32.9936786 303.62447,33.004182 303.665413,32.998486 C303.705102,33.0027467 303.744974,32.9923344 303.777465,32.9691174 C304.054701,32.8558125 310.310077,29.9774612 310.310077,26.3031727 C310.312743,25.1633563 310.367379,19.4652998 310.284696,19.0946265" id="icon－校验"></path>
            </g>
        </g>
    </g>
</svg>