<?xml version="1.0" encoding="UTF-8" standalone="no"?>
<svg width="12px" height="12px" viewBox="0 0 12 12" version="1.1" xmlns="http://www.w3.org/2000/svg" xmlns:xlink="http://www.w3.org/1999/xlink">
    <!-- Generator: Sketch 46.2 (44496) - http://www.bohemiancoding.com/sketch -->
    <title>icon－lianjie</title>
    <desc>Created with Sketch.</desc>
    <defs></defs>
    <g id="Page-1" stroke="none" stroke-width="1" fill="none" fill-rule="evenodd">
        <g id="14短信活动推广通知" transform="translate(-1101.000000, -553.000000)" fill="#2D8CF0">
            <g id="右侧" transform="translate(721.000000, 119.000000)">
                <g id="短信内容" transform="translate(0.000000, 396.000000)">
                    <path d="M384.010885,45.9864245 C384.263419,46.2389426 384.67289,46.2389426 384.925408,45.9864245 L387.973926,42.9379231 C388.226511,42.6853214 388.226511,42.2759343 387.973926,42.0233827 C387.721392,41.7708145 387.311921,41.7708145 387.059403,42.0233827 L384.010885,45.071834 C383.758367,45.3243688 383.758367,45.7339064 384.010885,45.9864245 L384.010885,45.9864245 Z M391.479681,40.0418451 L389.955464,38.5175777 C389.282043,37.8440735 388.190144,37.8440735 387.516723,38.5175777 L385.687559,40.3466752 C385.014138,41.0201627 385.014138,42.1120624 385.687559,42.785483 L386.647709,41.8388201 C386.547949,41.5389872 386.668266,41.195132 386.906963,40.9563855 L388.126367,39.7370485 C388.463102,39.4002964 389.009018,39.4002964 389.34577,39.7370485 L390.260344,40.6515387 C390.59703,40.988224 390.59703,41.5342072 390.260344,41.8709593 L389.04094,43.0903632 C388.814344,43.3169593 388.442077,43.4419064 388.153458,43.3634552 L387.211843,44.3097671 C387.885264,44.9832546 388.977163,44.9832546 389.650651,44.3097671 L391.479681,42.4806696 C392.153236,41.8071655 392.153236,40.7152657 391.479681,40.0418451 L391.479681,40.0418451 Z M385.351007,46.1660401 C385.429408,46.4545916 385.304528,46.8267755 385.077848,47.0534552 L383.858511,48.2727922 C383.521776,48.6095276 382.975793,48.6095276 382.639041,48.2727922 L381.724534,47.3582685 C381.387782,47.0216 381.387782,46.4755499 381.724534,46.1388813 L382.943938,44.9194607 C383.182684,44.6807142 383.526539,44.5603967 383.826389,44.6601571 L384.773035,43.7000067 C384.099614,43.0265694 383.007648,43.0265694 382.33416,43.7000067 L380.505063,45.529171 C379.831642,46.2025916 379.831642,47.2944914 380.505063,47.9679788 L382.029347,49.4921961 C382.702768,50.1656836 383.794667,50.1656836 384.468222,49.4921961 L386.297252,47.6630819 C386.97074,46.9895944 386.97074,45.8977616 386.297252,45.2242741 L385.351007,46.1660401 Z" id="icon－lianjie"></path>
                </g>
            </g>
        </g>
    </g>
</svg>