<?xml version="1.0" standalone="no"?><!DOCTYPE svg PUBLIC "-//W3C//DTD SVG 1.1//EN" "http://www.w3.org/Graphics/SVG/1.1/DTD/svg11.dtd"><svg t="1512703842756" class="icon" style="" viewBox="0 0 1024 1024" version="1.1" xmlns="http://www.w3.org/2000/svg" p-id="1853" xmlns:xlink="http://www.w3.org/1999/xlink" width="200" height="200"><defs><style type="text/css"></style></defs><path d="M651.1 714.6c-42.3 30-91.8 45.1-142.4 44.4-6.7-0.1-13.3-0.4-19.9-1-2.7-0.3-5.4-0.7-8.1-1-5.2-0.7-10.3-1.4-15.4-2.4-3.1-0.6-6.2-1.4-9.2-2.1-4.9-1.2-9.8-2.4-14.7-3.8-2.3-0.7-4.6-1.6-6.9-2.3-5.6-1.9-11.1-3.8-16.5-6.1-1.2-0.5-2.4-1.1-3.6-1.6-6.3-2.8-12.5-5.7-18.5-9-0.3-0.2-0.5-0.3-0.8-0.4-20.4-11.3-39-25.5-55.3-42-0.2-0.3-0.5-0.6-0.8-0.9-5.1-5.2-9.9-10.5-14.5-16.2-1-1.2-1.9-2.5-2.9-3.7-33.2-42.1-53.3-95.4-53.3-153.4h56.4c1.5 0 2.9-0.8 3.6-2.2 0.7-1.4 0.6-3-0.2-4.2l-94.8-144c-0.7-1.1-2-1.8-3.4-1.8s-2.7 0.7-3.4 1.8l-94.8 144c-0.8 1.2-0.9 2.8-0.2 4.2 0.7 1.4 2.1 2.2 3.6 2.2h56.4c0 68.2 21 131.4 56.7 183.6 0.4 0.7 0.8 1.5 1.2 2.2 3.7 5.3 7.8 10.3 11.8 15.3 1.5 1.9 2.9 3.9 4.4 5.8 5.8 7.2 12 13.9 18.4 20.5 0.6 0.7 1.2 1.3 1.8 1.9 21.4 21.7 45.6 40 71.9 54.6l2.1 1.2c7.6 4.1 15.4 7.9 23.3 11.4 2 0.9 3.9 1.8 5.9 2.7 6.8 2.8 13.7 5.3 20.7 7.7 3.3 1.1 6.6 2.3 9.9 3.3 6.1 1.8 12.4 3.4 18.7 4.9 4.2 1 8.3 2.1 12.6 2.9 1.8 0.4 3.4 0.9 5.2 1.2 5.9 1.1 11.9 1.7 17.8 2.4 2.1 0.3 4.3 0.6 6.4 0.9 10.7 1.1 21.3 1.8 31.9 1.8 65.1 0 128.5-20.1 183-58.8 17.3-12.3 21.6-36.6 9.4-54.1-12.2-18-36.2-22.2-53.5-9.9zM831.6 512.9c0-68-20.9-131-56.4-183.2-0.5-0.9-0.9-1.8-1.5-2.6-4.4-6.4-9.2-12.3-14-18.3-0.5-0.7-1.1-1.5-1.7-2.2-32.5-39.9-73.2-70.7-119.5-90.8-1.3-0.6-2.5-1.2-3.8-1.7-7.4-3.1-14.9-5.8-22.5-8.4-2.7-0.9-5.4-1.9-8.2-2.8-6.6-2-13.3-3.7-20.1-5.3-3.7-0.9-7.5-1.8-11.3-2.6-1.9-0.4-3.6-0.9-5.5-1.3-5.1-0.9-10.1-1.3-15.2-1.9-3.5-0.4-6.9-1-10.5-1.4-8.5-0.8-16.9-1.1-25.4-1.3-1.5 0-3-0.2-4.6-0.2-0.3 0-0.5 0.1-0.8 0.1-65 0-128.3 19.9-182.7 58.5-17.4 12.3-21.6 36.5-9.5 54.1 12.1 17.6 36.1 21.9 53.5 9.5 42-29.8 91-44.9 141.3-44.4 7.2 0 14.3 0.4 21.4 1.1 2.2 0.2 4.3 0.6 6.5 0.8 5.8 0.7 11.5 1.5 17.2 2.7 2.5 0.5 5 1.1 7.4 1.7 5.5 1.3 11.1 2.6 16.5 4.3 1.7 0.6 3.4 1.2 5.1 1.7 6.2 2.1 12.3 4.3 18.2 6.8 0.6 0.3 1.2 0.6 1.8 0.8 35.8 15.6 67.2 39.6 91.7 69.6 0.2 0.2 0.3 0.4 0.4 0.6 34.5 42.5 55.2 96.8 55.3 156h-56.4c-1.5 0-2.9 0.8-3.6 2.2-0.7 1.4-0.6 3 0.2 4.2l94.8 144c0.7 1.1 2 1.8 3.4 1.8s2.7-0.7 3.4-1.8l94.8-144c0.8-1.2 0.9-2.8 0.2-4.2-0.7-1.4-2.1-2.2-3.6-2.2l-56.3 0.1z" p-id="1854" fill="#2c2c2c"></path></svg>