<?xml version="1.0" encoding="UTF-8" standalone="no"?>
<svg width="28px" height="28px" viewBox="0 0 28 28" version="1.1" xmlns="http://www.w3.org/2000/svg" xmlns:xlink="http://www.w3.org/1999/xlink">
    <!-- Generator: Sketch 46 (44423) - http://www.bohemiancoding.com/sketch -->
    <title>组件－文字</title>
    <desc>Created with Sketch.</desc>
    <defs></defs>
    <g id="Page-1" stroke="none" stroke-width="1" fill="none" fill-rule="evenodd">
        <g id="7新建营销流程" transform="translate(-106.000000, -811.000000)">
            <g id="组件" transform="translate(80.000000, 120.000000)">
                <g id="Group-10" transform="translate(1.000000, 49.000000)">
                    <g id="组件－文字" transform="translate(25.000000, 642.000000)">
                        <rect id="Rectangle-4-Copy" stroke="#9EA7B4" stroke-width="2" x="1" y="1" width="26" height="26" rx="4"></rect>
                        <path d="M18.1484375,10.2685547 L15.3007812,10.2685547 L15.3007812,19.6289062 C15.3007812,20.1679714 15.1806653,20.5678698 14.9404297,20.8286133 C14.7001941,21.0893568 14.3896503,21.2197266 14.0087891,21.2197266 C13.6220684,21.2197266 13.3071301,21.0878919 13.0639648,20.8242188 C12.8207996,20.5605456 12.6992188,20.162112 12.6992188,19.6289062 L12.6992188,10.2685547 L9.8515625,10.2685547 C9.40624777,10.2685547 9.0751964,10.1704111 8.85839844,9.97412109 C8.64160048,9.77783105 8.53320312,9.5185563 8.53320312,9.19628906 C8.53320312,8.86230302 8.64599497,8.59863378 8.87158203,8.40527344 C9.0971691,8.2119131 9.42382599,8.11523438 9.8515625,8.11523438 L18.1484375,8.11523438 C18.5996116,8.11523438 18.9350575,8.21484275 19.1547852,8.4140625 C19.3745128,8.61328225 19.484375,8.87402183 19.484375,9.19628906 C19.484375,9.5185563 19.373048,9.77783105 19.1503906,9.97412109 C18.9277333,10.1704111 18.5937522,10.2685547 18.1484375,10.2685547 Z" id="T" fill="#9EA7B4"></path>
                    </g>
                </g>
            </g>
        </g>
    </g>
</svg>