<?xml version="1.0" encoding="UTF-8" standalone="no"?>
<svg width="15px" height="14px" viewBox="0 0 15 14" version="1.1" xmlns="http://www.w3.org/2000/svg" xmlns:xlink="http://www.w3.org/1999/xlink">
    <!-- Generator: Sketch 46.2 (44496) - http://www.bohemiancoding.com/sketch -->
    <title>Fill 2</title>
    <desc>Created with Sketch.</desc>
    <defs></defs>
    <g id="Symbols" stroke="none" stroke-width="1" fill="none" fill-rule="evenodd">
        <g id="选择时间" transform="translate(-13.000000, -9.000000)" fill="#818596">
            <g id="Fill-2">
                <path d="M23.99285,9 L23.99285,11.00665 L24.99285,11.00665 L24.99285,9 L25.9924,9 C27.0963,9 27.99115,9.89015 27.99115,10.98825 L27.99115,21.9243 C27.99115,23.02255 27.0963,22.91865 25.9924,22.91865 L14.9988,22.91865 C13.89485,22.91865 13,23.02255 13,21.9243 L13,10.98825 C13,9.89015 13.89485,9 14.9988,9 L16.0085,9 L16.0085,11.00665 L17.0085,11.00665 L17.0085,9 L23.99285,9 Z M26.99175,12.9763 L13.9994,12.9763 L13.9994,21.9243 L26.99175,21.9243 L26.99175,12.9763 Z M14.99285,20.5223 L17.99285,20.5223 L17.99285,18.0223 L14.99285,18.0223 L14.99285,20.5223 Z M18.99285,20.5223 L21.99285,20.5223 L21.99285,18.0223 L18.99285,18.0223 L18.99285,20.5223 Z M22.99285,20.5223 L25.99285,20.5223 L25.99285,18.0223 L22.99285,18.0223 L22.99285,20.5223 Z M14.99285,17.0223 L17.99285,17.0223 L17.99285,14.5223 L14.99285,14.5223 L14.99285,17.0223 Z M18.99285,17.0223 L21.99285,17.0223 L21.99285,14.5223 L18.99285,14.5223 L18.99285,17.0223 Z M22.99285,17.0223 L25.99285,17.0223 L25.99285,14.5223 L22.99285,14.5223 L22.99285,17.0223 Z"></path>
            </g>
        </g>
    </g>
</svg>