<?xml version="1.0" encoding="UTF-8" standalone="no"?>
<svg width="38px" height="24px" viewBox="0 0 38 24" version="1.1" xmlns="http://www.w3.org/2000/svg" xmlns:xlink="http://www.w3.org/1999/xlink">
    <!-- Generator: Sketch 46 (44423) - http://www.bohemiancoding.com/sketch -->
    <title>一级导航下拉</title>
    <desc>Created with Sketch.</desc>
    <defs></defs>
    <g id="运营概览" stroke="none" stroke-width="1" fill="none" fill-rule="evenodd">
        <g id="2运营概览－操作" transform="translate(-284.000000, -16.000000)" fill="#818596">
            <g id="top导航" transform="translate(260.000000, 0.000000)">
                <g id="一级导航">
                    <g id="一级导航下拉" transform="translate(24.000000, 16.000000)">
                        <polygon id="Page-1" points="35.9741248 9.41654167 32.9792618 12.782375 29.9843988 9.41654167 28.3729072 9.41654167 32.9792618 14.418625 37.5856164 9.41654167"></polygon>
                        <path d="M12.0000732,0 C5.37598312,0 0,5.37598312 0,12.0000732 C0,18.6240169 5.37598312,24 12.0000732,24 C18.6240169,24 24,18.6240169 24,12.0000732 C24,5.37598312 18.6480696,0 12.0000732,0 M12.0000756,22.6720254 C6.10685752,22.6720254 1.32797464,17.8931425 1.32797464,12.0000756 C1.32797464,6.10685752 6.10685752,1.32797464 12.0000756,1.32797464 C17.8931425,1.32797464 22.6720254,6.10685752 22.6720254,12.0000756 C22.6720254,17.9179579 17.8931425,22.6720254 12.0000756,22.6720254 Z M17.2080357,13.3919988 C17.1360531,13.3919988 17.0880062,13.3919988 17.0159944,13.3679753 L16.9680647,13.3679753 C16.9440119,13.3679753 16.9199884,13.3679753 16.8720294,13.344069 C16.7519999,13.3200163 16.6320584,13.2720865 16.5119996,13.2240103 L16.5119996,17.5680683 L7.46397103,17.5680683 L7.46397103,13.2240103 C7.34402947,13.2720865 7.22397073,13.2959928 7.10402918,13.344069 C7.08000571,13.344069 7.05598225,13.344069 7.0080232,13.3679753 L6.95994697,13.3679753 C6.88796446,13.3679753 6.84003472,13.3919988 6.76805221,13.3919988 L6.55198749,13.3919988 C6.38396971,13.3919988 6.24000469,13.3919988 6.09603967,13.344069 L6.09603967,18.4080693 C6.09603967,18.7679819 6.40802247,19.0800819 6.76805221,19.0800819 L17.1599887,19.0800819 C17.5440419,19.0800819 17.831972,18.7920347 17.831972,18.4080693 L17.831972,13.344069 C17.6880069,13.3679753 17.5440419,13.3919988 17.3760534,13.3919988 L17.2080357,13.3919988 Z M6.04799566,7.05598518 L4.77598239,10.968031 C4.77598239,11.951997 5.59204784,12.744039 6.57601389,12.744039 C7.55997993,12.744039 8.37604538,11.951997 8.37604538,10.968031 C8.37604538,11.951997 9.19202294,12.744039 10.175989,12.744039 C11.1600722,12.744039 11.9760205,11.951997 11.9760205,10.968031 C11.9760205,11.951997 12.791998,12.744039 13.7760813,12.744039 C14.7600473,12.744039 15.5759956,11.951997 15.5759956,10.968031 C15.5759956,11.951997 16.3919731,12.744039 17.3760564,12.744039 C18.3600224,12.744039 19.1759707,11.951997 19.1759707,10.968031 L17.9040746,7.05598518 L6.04799566,7.05598518 Z M7.0320496,6.33604289 L16.9680676,6.33604289 C17.3520036,6.33604289 17.6400508,6.02406009 17.6400508,5.61595412 C17.6400508,5.23201811 17.3279801,4.89601184 16.9680676,4.89601184 L7.0320496,4.89601184 C6.6479964,4.89601184 6.36006636,5.20799464 6.36006636,5.61595412 C6.36006636,6.02406009 6.6479964,6.33604289 7.0320496,6.33604289 Z" id="Combined-Shape"></path>
                    </g>
                </g>
            </g>
        </g>
    </g>
</svg>