<?xml version="1.0" encoding="UTF-8" standalone="no"?>
<svg width="24px" height="24px" viewBox="0 0 24 24" version="1.1" xmlns="http://www.w3.org/2000/svg" xmlns:xlink="http://www.w3.org/1999/xlink">
    <!-- Generator: Sketch 49.1 (51147) - http://www.bohemiancoding.com/sketch -->
    <title>图标 Icon/App</title>
    <desc>Created with Sketch.</desc>
    <defs>
        <path d="M12,24 C5.372583,24 0,18.627417 0,12 C0,5.372583 5.372583,0 12,0 C18.627417,0 24,5.372583 24,12 C24,18.627417 18.627417,24 12,24 Z M12,23 C18.0751322,23 23,18.0751322 23,12 C23,5.92486775 18.0751322,1 12,1 C5.92486775,1 1,5.92486775 1,12 C1,18.0751322 5.92486775,23 12,23 Z M9.71428571,5.53616711 L14.2857143,5.53616711 C15.2342857,5.53616711 16,6.32798529 16,7.30889438 L16,16.7634398 C16,17.7443489 15.2342857,18.5361671 14.2857143,18.5361671 L9.71428571,18.5361671 C8.76571429,18.5361671 8,17.7443489 8,16.7634398 L8,7.30889438 C8,6.32798529 8.76571429,5.53616711 9.71428571,5.53616711 Z M11,17.5361671 L13,17.5361671 L13,16.5361671 L11,16.5361671 L11,17.5361671 Z M9,15.5361671 L15,15.5361671 L15,7.53616711 L9,7.53616711 L9,15.5361671 Z" id="path-1"></path>
    </defs>
    <g id="图标-Icon/App" stroke="none" stroke-width="1" fill="none" fill-rule="evenodd">
        <mask id="mask-2" fill="white">
            <use xlink:href="#path-1"></use>
        </mask>
        <use id="Mask" fill-opacity="0.56" fill="#FFFFFF" fill-rule="nonzero" xlink:href="#path-1"></use>
        <g id="基础/颜色-Color/单色/深色/辅助色&amp;图标-55%" mask="url(#mask-2)" fill="#17233D" fill-opacity="0.55">
            <rect id="Rectangle" x="0" y="0" width="24" height="24"></rect>
        </g>
    </g>
</svg>