<?xml version="1.0" encoding="UTF-8" standalone="no"?>
<svg width="24px" height="24px" viewBox="0 0 24 24" version="1.1" xmlns="http://www.w3.org/2000/svg" xmlns:xlink="http://www.w3.org/1999/xlink">
    <!-- Generator: Sketch 49.1 (51147) - http://www.bohemiancoding.com/sketch -->
    <title>图标 Icon/html5</title>
    <desc>Created with Sketch.</desc>
    <defs>
        <path d="M12,24 C5.372583,24 0,18.627417 0,12 C0,5.372583 5.372583,0 12,0 C18.627417,0 24,5.372583 24,12 C24,18.627417 18.627417,24 12,24 Z M12,23 C18.0751322,23 23,18.0751322 23,12 C23,5.92486775 18.0751322,1 12,1 C5.92486775,1 1,5.92486775 1,12 C1,18.0751322 5.92486775,23 12,23 Z M7,6.5 L17,6.5 L16.0889063,16.623644 L11.9939844,17.75 L7.90979167,16.6253516 L7,6.5 Z M8.85976562,8.56947266 L9.18713542,12.3258929 L13.5361198,12.3258929 L13.3909635,13.9368778 L11.9997656,14.3114174 L10.5995312,13.9402427 L10.5103906,12.953683 L9.25377604,12.953683 L9.42992187,14.899933 L11.9997656,15.6024554 L14.5648698,14.8969699 L14.9165625,11.0954492 L10.3330208,11.0954492 L10.2290885,9.81473214 L15.0207552,9.81473214 L15.1303125,8.56987444 L8.85976562,8.56947266 Z" id="path-1"></path>
    </defs>
    <g id="图标-Icon/html5" stroke="none" stroke-width="1" fill="none" fill-rule="evenodd">
        <mask id="mask-2" fill="white">
            <use xlink:href="#path-1"></use>
        </mask>
        <use id="Mask" fill-opacity="0.56" fill="#FFFFFF" fill-rule="nonzero" xlink:href="#path-1"></use>
        <g id="基础/颜色-Color/单色/深色/辅助色&amp;图标-55%" mask="url(#mask-2)" fill="#17233D" fill-opacity="0.55">
            <rect id="Rectangle" x="0" y="0" width="24" height="24"></rect>
        </g>
    </g>
</svg>