<?xml version="1.0" encoding="UTF-8" standalone="no"?>
<svg width="24px" height="24px" viewBox="0 0 24 24" version="1.1" xmlns="http://www.w3.org/2000/svg" xmlns:xlink="http://www.w3.org/1999/xlink">
    <!-- Generator: Sketch 49.1 (51147) - http://www.bohemiancoding.com/sketch -->
    <title>图标 Icon/mini program</title>
    <desc>Created with Sketch.</desc>
    <defs>
        <path d="M12,24 C5.372583,24 0,18.627417 0,12 C0,5.372583 5.372583,0 12,0 C18.627417,0 24,5.372583 24,12 C24,18.627417 18.627417,24 12,24 Z M12,23 C18.0751322,23 23,18.0751322 23,12 C23,5.92486775 18.0751322,1 12,1 C5.92486775,1 1,5.92486775 1,12 C1,18.0751322 5.92486775,23 12,23 Z M14.1630884,7.5 C15.7297721,7.5 17,8.74220663 17,10.2747417 C17,11.6683918 15.948243,12.8186242 14.5794483,13.0160549 C14.5626428,13.0199333 14.5452709,13.0214108 14.5278989,13.0238118 C14.4963651,13.028429 14.4648313,13.0334155 14.4319757,13.0334155 C14.0624445,13.0334155 13.7629676,12.7399474 13.7629676,12.3781451 C13.7629676,12.0608523 13.9933345,11.7963801 14.2990427,11.7359874 L14.2988538,11.7345099 C15.0630299,11.6674684 15.661795,11.0395317 15.661795,10.2747417 C15.661795,9.46507263 14.9907098,8.80887873 14.1630884,8.80887873 C13.3401877,8.80887873 12.672879,9.45750045 12.6651372,10.2605207 C12.6766555,10.3087241 12.6751449,14.1607467 12.6615495,14.2124591 C12.5386242,15.6339971 11.3220227,16.750801 9.83691157,16.750801 C8.27022791,16.750801 7,15.5085944 7,13.9762441 C7,12.5818551 8.05270115,11.4310687 9.42225118,11.2343767 C9.43697955,11.2323452 9.45170792,11.2297596 9.4664363,11.227728 C9.49985838,11.2227414 9.53328046,11.2177549 9.56802432,11.2177549 C9.93755547,11.2177549 10.2370324,11.5110383 10.2370324,11.8730254 C10.2370324,12.2226384 9.956438,12.5059487 9.60390113,12.5246021 L9.60427878,12.5279264 C8.88712023,12.6370766 8.33820503,13.243959 8.33820503,13.9762441 C8.33820503,14.7857284 9.00910138,15.442107 9.83691157,15.442107 C10.623369,15.442107 11.2670745,14.8492608 11.3293869,14.0957367 C11.3284428,14.0809618 11.3261769,10.3022601 11.3261769,10.2747417 C11.3261769,8.74220663 12.5964048,7.5 14.1630884,7.5 Z" id="path-1"></path>
    </defs>
    <g id="图标-Icon/mini-program" stroke="none" stroke-width="1" fill="none" fill-rule="evenodd">
        <mask id="mask-2" fill="white">
            <use xlink:href="#path-1"></use>
        </mask>
        <g id="Mask" fill-rule="nonzero"></g>
        <g id="基础/颜色-Color/单色/深色/辅助色&amp;图标-55%" mask="url(#mask-2)" fill="#17233D" fill-opacity="0.55">
            <rect id="Rectangle" x="0" y="0" width="24" height="24"></rect>
        </g>
    </g>
</svg>