<?xml version="1.0" encoding="UTF-8" standalone="no"?>
<svg width="24px" height="24px" viewBox="0 0 24 24" version="1.1" xmlns="http://www.w3.org/2000/svg" xmlns:xlink="http://www.w3.org/1999/xlink">
    <!-- Generator: Sketch 49.1 (51147) - http://www.bohemiancoding.com/sketch -->
    <title>图标 Icon/Web</title>
    <desc>Created with Sketch.</desc>
    <defs>
        <path d="M12,24 C5.372583,24 0,18.627417 0,12 C0,5.372583 5.372583,0 12,0 C18.627417,0 24,5.372583 24,12 C24,18.627417 18.627417,24 12,24 Z M12,23 C18.0751322,23 23,18.0751322 23,12 C23,5.92486775 18.0751322,1 12,1 C5.92486775,1 1,5.92486775 1,12 C1,18.0751322 5.92486775,23 12,23 Z M17.8275,14.9609699 L17.8333333,7.84332286 C17.8333333,7.13155816 17.3083333,6.54920521 16.6666667,6.54920521 L7.33333333,6.54920521 C6.69166667,6.54920521 6.16666667,7.13155816 6.16666667,7.84332286 L6.16666667,14.9609699 C6.16666667,15.6727346 6.69166667,16.2550876 7.33333333,16.2550876 L5,16.2550876 C5,16.9668523 5.525,17.5492052 6.16666667,17.5492052 L17.8333333,17.5492052 C18.475,17.5492052 19,16.9668523 19,16.2550876 L16.6666667,16.2550876 C17.3083333,16.2550876 17.8275,15.6727346 17.8275,14.9609699 Z M16.6666667,7.84332286 L16.6666667,14.9609699 L7.33333333,14.9609699 L7.33333333,7.84332286 L16.6666667,7.84332286 Z M11.4166667,16.2550876 C11.4166667,15.8992052 11.6791667,15.6080287 12,15.6080287 C12.3208333,15.6080287 12.5833333,15.8992052 12.5833333,16.2550876 C12.5833333,16.6109699 12.3208333,16.9021464 12,16.9021464 C11.6791667,16.9021464 11.4166667,16.6109699 11.4166667,16.2550876 Z" id="path-1"></path>
    </defs>
    <g id="图标-Icon/Web" stroke="none" stroke-width="1" fill="none" fill-rule="evenodd">
        <mask id="mask-2" fill="white">
            <use xlink:href="#path-1"></use>
        </mask>
        <use id="Mask" fill-opacity="0.56" fill="#FFFFFF" fill-rule="nonzero" xlink:href="#path-1"></use>
        <g id="基础/颜色-Color/单色/深色/辅助色&amp;图标-55%" mask="url(#mask-2)" fill="#17233D" fill-opacity="0.55">
            <rect id="Rectangle" x="0" y="0" width="24" height="24"></rect>
        </g>
    </g>
</svg>