<?xml version="1.0" encoding="UTF-8" standalone="no"?>
<svg width="12px" height="12px" viewBox="0 0 12 12" version="1.1" xmlns="http://www.w3.org/2000/svg" xmlns:xlink="http://www.w3.org/1999/xlink">
    <!-- Generator: Sketch 46 (44423) - http://www.bohemiancoding.com/sketch -->
    <title>多选框 Checkbox-选中-小</title>
    <desc>Created with Sketch.</desc>
    <defs></defs>
    <g id="Symbols" stroke="none" stroke-width="1" fill="none" fill-rule="evenodd">
        <g id="多选框-Checkbox-选中-小">
            <g id="12复选框选中411" fill="#2D8CF0">
                <path d="M12,2 C12,0.89615 11.104,0 10,0 L2,0 C0.89615,0 0,0.89615 0,2 L0,10 C0,11.10385 0.89615,12 2,12 L10,12 C11.104,12 12,11.10385 12,10 L12,2 Z" id="Fill-20"></path>
            </g>
            <g id="Group-2" transform="translate(5.889087, 4.889087) rotate(45.000000) translate(-5.889087, -4.889087) translate(3.889087, 1.389087)" fill="#FFFFFF">
                <rect id="Rectangle" x="7.09654557e-13" y="6" width="4" height="1" rx="0.5"></rect>
                <rect id="Rectangle-Copy" transform="translate(3.500000, 3.500000) rotate(90.000000) translate(-3.500000, -3.500000) " x="1.09334763e-12" y="3" width="7" height="1" rx="0.5"></rect>
            </g>
        </g>
    </g>
</svg>