<?xml version="1.0" encoding="UTF-8" standalone="no"?>
<svg width="12px" height="14px" viewBox="0 0 12 14" version="1.1" xmlns="http://www.w3.org/2000/svg" xmlns:xlink="http://www.w3.org/1999/xlink">
    <!-- Generator: Sketch 43.1 (39012) - http://www.bohemiancoding.com/sketch -->
    <title>icon－删除</title>
    <desc>Created with Sketch.</desc>
    <defs></defs>
    <g id="数据管理－设备管理" stroke="none" stroke-width="1" fill="none" fill-rule="evenodd">
        <g id="探针管理－强度设置刷新" transform="translate(-1345.000000, -453.000000)" fill="#657180">
            <g id="探针测试" transform="translate(300.000000, 290.000000)">
                <g id="测试报告" transform="translate(560.000000, 72.000000)">
                    <g id="Group" transform="translate(20.000000, 81.000000)">
                        <path d="M475.862074,11.4482777 L472.241388,11.4482777 L472.241388,10.7241301 C472.241388,10.3241227 471.917266,10 471.517241,10 L470.068981,10 C469.668956,10 469.344816,10.3241227 469.344816,10.7241301 L469.344816,11.4482777 L465.724148,11.4482777 C465.324123,11.4482777 465,11.7726264 465,12.1724078 L465,12.8965379 L476.586221,12.8965379 L476.586221,12.1724078 C476.586221,11.7726264 476.262099,11.4482777 475.862074,11.4482777 L475.862074,11.4482777 Z M467.172408,15.7931106 C467.172408,15.3933292 467.49653,15.0689631 467.896555,15.0689631 C468.29658,15.0689631 468.620685,15.3933292 468.620685,15.7931106 L468.620685,21.8275922 C468.620685,22.2276344 468.296563,22.5517397 467.896555,22.5517397 C467.49653,22.5517397 467.172408,22.227617 467.172408,21.8275922 L467.172408,15.7931106 Z M470.068981,15.7931106 C470.068981,15.3933292 470.393329,15.0689631 470.793111,15.0689631 C471.193101,15.0689631 471.517241,15.3933292 471.517241,15.7931106 L471.517241,21.8275922 C471.517241,22.2276344 471.193101,22.5517397 470.793111,22.5517397 C470.393329,22.5517397 470.068981,22.227617 470.068981,21.8275922 L470.068981,15.7931106 Z M472.965518,15.7931106 C472.965518,15.3933292 473.289641,15.0689631 473.689649,15.0689631 C474.089691,15.0689631 474.413796,15.3933292 474.413796,15.7931106 L474.413796,21.8275922 C474.413796,22.2276344 474.089673,22.5517397 473.689649,22.5517397 C473.289641,22.5517397 472.965518,22.227617 472.965518,21.8275922 L472.965518,15.7931106 Z M465.724148,23.2758699 C465.724148,23.6758947 466.048253,24 466.448278,24 L475.137926,24 C475.537934,24 475.862056,23.6758773 475.862056,23.2758699 L475.862056,13.6207028 L465.724148,13.6207028 L465.724148,23.2758699 Z" id="icon－删除"></path>
                    </g>
                </g>
            </g>
        </g>
    </g>
</svg>