<?xml version="1.0" encoding="UTF-8" standalone="no"?>
<svg width="11px" height="14px" viewBox="0 0 11 14" version="1.1" xmlns="http://www.w3.org/2000/svg" xmlns:xlink="http://www.w3.org/1999/xlink">
    <!-- Generator: Sketch 43.1 (39012) - http://www.bohemiancoding.com/sketch -->
    <title>icon－锁定</title>
    <desc>Created with Sketch.</desc>
    <defs></defs>
    <g id="数据管理－设备管理" stroke="none" stroke-width="1" fill="none" fill-rule="evenodd">
        <g id="探针管理－强度设置刷新" transform="translate(-721.000000, -453.000000)" fill-rule="nonzero" fill="#657180">
            <g id="探针测试" transform="translate(300.000000, 290.000000)">
                <g id="测试" transform="translate(20.000000, 72.000000)">
                    <g id="icon" transform="translate(401.000000, 91.000000)">
                        <path d="M9.33333333,4.66666667 L8.66666667,4.66666667 L8.66666667,3.33333333 C8.66666667,1.5 7.16666667,0 5.33333333,0 C3.5,0 2,1.5 2,3.33333333 L2,4.66666667 L1.33333333,4.66666667 C0.599933333,4.66666667 0,5.2666 0,6 L0,12.6666667 C0,13.4000667 0.599933333,14 1.33333333,14 L9.33333333,14 C10.0667333,14 10.6666667,13.4000667 10.6666667,12.6666667 L10.6666667,6 C10.6666667,5.2666 10.0667333,4.66666667 9.33333333,4.66666667 Z M5.33333333,10.7333333 C4.59993333,10.7333333 4,10.1334 4,9.4 C4,8.6666 4.59993333,8.06666667 5.33333333,8.06666667 C6.06673333,8.06666667 6.66666667,8.6666 6.66666667,9.4 C6.66666667,10.1334 6.06673333,10.7333333 5.33333333,10.7333333 Z M7.40006667,4.66666667 L3.2666,4.66666667 L3.2666,3.33333333 C3.2666,2.19986667 4.20003333,1.2666 5.33333333,1.2666 C6.4668,1.2666 7.40006667,2.19986667 7.40006667,3.33333333 L7.40006667,4.66666667 Z" id="icon－锁定"></path>
                    </g>
                </g>
            </g>
        </g>
    </g>
</svg>