<?xml version="1.0" encoding="UTF-8" standalone="no"?>
<svg width="32px" height="32px" viewBox="0 0 32 32" version="1.1" xmlns="http://www.w3.org/2000/svg" xmlns:xlink="http://www.w3.org/1999/xlink">
    <!-- Generator: Sketch 40.3 (33839) - http://www.bohemiancoding.com/sketch -->
    <title>Combined Shape Copy 9</title>
    <desc>Created with Sketch.</desc>
    <defs></defs>
    <g id="Page-1" stroke="none" stroke-width="1" fill="none" fill-rule="evenodd">
        <g id="着陆页-全部店组－列表" transform="translate(-2572.000000, -1522.000000)" fill="#C5CFDD">
            <g id="列表" transform="translate(630.000000, 424.000000)">
                <g id="icon" transform="translate(778.000000, 130.000000)">
                    <g id="Group-2" transform="translate(1164.000000, 83.000000)">
                        <path d="M2.25,885 C1,885 0,886 0,887.25 C0,888.5 1,889.5 2.25,889.5 L29.75,889.5 C31,889.5 32,888.5 32,887.25 C32,886 30.975,885 29.75,885 L2.25,885 Z M17.475,891.675 C17.45,891.65 17.425,891.625 17.4,891.625 C17.375,891.6 17.325,891.575 17.3,891.55 C17.275,891.525 17.225,891.5 17.2,891.5 C17.175,891.475 17.15,891.475 17.1,891.45 C17.075,891.425 17.025,891.425 17,891.4 C17,891.35 16.95,891.35 16.925,891.325 C16.9,891.3 16.85,891.3 16.825,891.3 C16.8,891.275 16.75,891.275 16.725,891.25 C16.7,891.25 16.65,891.225 16.625,891.225 C16.6,891.225 16.55,891.2 16.525,891.2 C16.475,891.2 16.45,891.2 16.4,891.175 C16.375,891.175 16.325,891.175 16.3,891.15 L16.075,891.15 C15.475,891.15 14.875,891.35 14.425,891.8 L3.05,903.175 C2.175,904.05 2.175,905.475 3.05,906.35 C3.5,906.8 4.075,907 4.65,907 C5.225,907 5.8,906.775 6.25,906.35 L13.85,898.75 L13.85,914.45 C13.85,915.7 14.85,916.7 16.1,916.7 C17.35,916.7 18.35,915.7 18.35,914.45 L18.35,898.825 L25.85,906.35 C26.3,906.8 26.875,907 27.45,907 C28.025,907 28.6,906.775 29.05,906.35 C29.925,905.475 29.925,904.05 29.05,903.175 L17.65,891.825 C17.6,891.775 17.55,891.725 17.475,891.675 Z" id="Combined-Shape-Copy-9"></path>
                    </g>
                </g>
            </g>
        </g>
    </g>
</svg>