<?xml version="1.0" encoding="UTF-8" standalone="no"?>
<svg width="11px" height="14px" viewBox="0 0 11 14" version="1.1" xmlns="http://www.w3.org/2000/svg" xmlns:xlink="http://www.w3.org/1999/xlink">
    <!-- Generator: Sketch 43.1 (39012) - http://www.bohemiancoding.com/sketch -->
    <title>icon－解锁 copy 11</title>
    <desc>Created with Sketch.</desc>
    <defs></defs>
    <g id="数据管理－设备管理" stroke="none" stroke-width="1" fill="none" fill-rule="evenodd">
        <g id="探针管理－强度设置刷新" transform="translate(-721.000000, -837.000000)" fill-rule="nonzero" fill="#657180">
            <g id="探针测试" transform="translate(300.000000, 290.000000)">
                <g id="测试" transform="translate(20.000000, 72.000000)">
                    <g id="icon" transform="translate(401.000000, 91.000000)">
                        <path d="M3.75961443,386 C4.14004046,385.552498 4.70607319,385.2666 5.33333333,385.2666 C6.4668,385.2666 7.40006667,386.199867 7.40006667,387.333333 L7.4,388.666667 L1.33333333,388.666667 C0.599933333,388.666667 0,389.2666 0,390 L0,396.666667 C0,397.400067 0.599933333,398 1.33333333,398 L9.33333333,398 C10.0667333,398 10.6666667,397.400067 10.6666667,396.666667 L10.6666667,390 C10.6666667,389.2666 10.0667333,388.666667 9.33333333,388.666667 L8.66666667,388.666667 L8.66666667,387.333333 C8.66666667,385.5 7.16666667,384 5.33333333,384 C3.97336009,384 2.79681104,384.825409 2.27991269,386 L3.75961443,386 Z M5.33333333,394.733333 C4.59993333,394.733333 4,394.1334 4,393.4 C4,392.6666 4.59993333,392.066667 5.33333333,392.066667 C6.06673333,392.066667 6.66666667,392.6666 6.66666667,393.4 C6.66666667,394.1334 6.06673333,394.733333 5.33333333,394.733333 Z" id="icon－解锁-copy-11"></path>
                    </g>
                </g>
            </g>
        </g>
    </g>
</svg>