<?xml version="1.0" encoding="UTF-8" standalone="no"?>
<svg width="16px" height="16px" viewBox="0 0 16 16" version="1.1" xmlns="http://www.w3.org/2000/svg" xmlns:xlink="http://www.w3.org/1999/xlink">
    <!-- Generator: Sketch 46 (44423) - http://www.bohemiancoding.com/sketch -->
    <title>icon－设置</title>
    <desc>Created with Sketch.</desc>
    <defs></defs>
    <g id="Symbols" stroke="none" stroke-width="1" fill="none" fill-rule="evenodd">
        <g id="icon－设置" fill="#818596">
            <path d="M8.03747907,11.3291372 C6.19165054,11.3291372 4.70415442,9.83330773 4.70415442,7.99581251 C4.70415442,6.15827563 6.19165054,4.66248786 8.03747907,4.66248786 C9.88326593,4.66248786 11.3708037,6.15827563 11.3708037,7.99581251 C11.3708037,9.83330773 9.88326593,11.3291372 8.03747907,11.3291372 M14.6811701,8.00189583 C14.6811284,7.12635644 15.2287937,6.37906672 15.9999583,6.08265083 C15.7963339,5.22990305 15.4600847,4.42848847 15.0139609,3.70186536 C14.7483366,3.82003172 14.4627123,3.8791149 14.1772131,3.8791149 C13.6513394,3.8791149 13.1256325,3.67865709 12.7242585,3.27736647 C12.1049685,2.65807641 11.9639272,1.74212046 12.300093,0.986955763 C11.5736365,0.540540259 10.7724719,0.203957802 9.91972417,0 C9.6237666,0.772039656 8.87610189,1.32041323 7.99997917,1.32041323 C7.12393978,1.32041323 6.37627506,0.772039656 6.08027583,0 C5.22752805,0.203957802 4.42640514,0.540540259 3.6999487,0.98699743 C4.03611449,1.7420788 3.89507319,2.65799308 3.27574147,3.27740813 C2.87445085,3.67869875 2.34866055,3.87919823 1.82278692,3.87919823 C1.53720433,3.87919823 1.25170507,3.82007339 0.985997432,3.70190703 C0.539915261,4.42848847 0.203582803,5.22986138 0,6.08265083 C0.771206325,6.37898339 1.3188299,7.12635644 1.3188299,8.00189583 C1.3188299,8.87722688 0.771664657,9.62422494 0.00091666428,9.9208075 C0.204999466,10.7735553 0.541581923,11.5746365 0.98808076,12.3011346 C1.25312174,12.1835933 1.53799599,12.1248018 1.82274525,12.1248018 C2.34866055,12.1248018 2.87436751,12.3253012 3.2756998,12.7265919 C3.89407319,13.3449652 4.03565616,14.2591295 3.70132369,15.0136276 C4.42790514,15.4598764 5.22898638,15.7962505 6.08173416,16 C6.37873339,15.2300437 7.12531478,14.6835034 7.99997917,14.6835034 C8.87464356,14.6835034 9.62122494,15.2299603 9.9181825,16 C10.7710136,15.7962505 11.5720532,15.4598347 12.2986763,15.0135442 C11.9643855,14.2591295 12.1059268,13.3449652 12.7243419,12.7265919 C13.1255492,12.3252596 13.6513394,12.1247601 14.1771714,12.1247601 C14.462004,12.1247601 14.7467533,12.1835516 15.0118776,12.3011346 C15.4583764,11.5746365 15.7949589,10.7735553 15.9990417,9.9208075 C15.2282937,9.62418327 14.6811701,8.87714355 14.6811701,8.00189583" id="Page-1"></path>
        </g>
    </g>
</svg>