<?xml version="1.0" encoding="UTF-8" standalone="no"?>
<svg width="32px" height="30px" viewBox="0 0 32 30" version="1.1" xmlns="http://www.w3.org/2000/svg" xmlns:xlink="http://www.w3.org/1999/xlink">
    <!-- Generator: Sketch 41 (35326) - http://www.bohemiancoding.com/sketch -->
    <title>star</title>
    <desc>Created with Sketch.</desc>
    <defs></defs>
    <g id="Page-1" stroke="none" stroke-width="1" fill="none" fill-rule="evenodd">
        <g id="着陆页-全部店组" transform="translate(-2001.000000, -475.000000)" fill="#FFC05E">
            <g id="内容" transform="translate(630.000000, 424.000000)">
                <g id="Group-2-Copy-3" transform="translate(747.000000, 0.000000)">
                    <path d="M639.066226,51.3645176 C638.830579,51.6041368 638.648276,51.8975453 638.524136,52.2308606 L634.85316,60.7066755 L624.999757,61.5911864 C624.768441,61.6354231 624.555337,61.7379129 624.364329,61.9062892 C624.172919,62.0755582 624.052753,62.3064729 624.012801,62.6042113 C623.96852,62.8975752 624.039674,63.1866985 624.217647,63.4714025 C624.399951,63.7552584 624.617429,64.0130901 624.870484,64.2491828 L625.222012,64.5469659 L626.035414,65.2448881 C626.368729,65.528744 626.737666,65.8447396 627.15517,66.1910893 L628.412992,67.2492884 C629.412982,68.0930443 630.537157,69.0531281 631.794935,70.1286469 L630.710756,74.5557098 C630.5597,75.1243144 630.417348,75.6798399 630.279772,76.2310801 C630.142196,76.7779457 630.017164,77.2796819 629.910835,77.7336996 C629.804104,78.1868245 629.710721,78.5731256 629.626533,78.902111 L629.466415,79.5201303 C629.421687,79.7067637 629.444274,79.893397 629.528462,80.0713705 C629.613097,80.2492994 629.746342,80.4046858 629.928646,80.52887 C630.10653,80.6581429 630.310528,80.7337158 630.532783,80.769248 C630.582287,80.7762116 630.6313,80.7788453 630.680313,80.7788453 C630.851367,80.7788453 631.02019,80.7371976 631.186423,80.6581429 C631.293199,80.6130581 631.501973,80.5071311 631.808862,80.342192 C632.11959,80.1738158 632.484197,79.9602654 632.910851,79.7067637 C633.333176,79.4533065 633.808888,79.1824851 634.328836,78.8847466 C634.848785,78.5913381 635.377438,78.2935996 635.906136,78.0001911 C637.142219,77.3065989 638.510745,76.5157841 640.022024,75.6312732 L648.346336,80.4359774 L648.809014,80.6087728 C649.008637,80.6842564 649.164023,80.7198779 649.270798,80.7198779 C649.591124,80.7198779 649.875382,80.6486796 650.133213,80.5158356 C650.386269,80.3778581 650.484339,80.0982875 650.417471,79.6755614 C650.39533,79.5913286 650.355423,79.3865274 650.293331,79.0574974 L650.052909,77.8760962 C649.95524,77.4090888 649.853241,76.8934254 649.750796,76.3248208 C649.64402,75.7554128 649.524255,75.1868082 649.399625,74.6182036 C649.119697,73.2666853 648.804193,71.7596912 648.439988,70.0982035 L655.044246,64.2180252 C655.319844,63.897655 655.546384,63.6311635 655.728732,63.4089533 C655.910991,63.1867431 656,62.9289114 656,62.6355475 C656,62.3204447 655.915365,62.0886819 655.746498,61.9375807 C655.572855,61.7908988 655.275161,61.6667592 654.853238,61.5599841 L644.995551,60.644137 L641.426082,52.1684114 C641.381801,52.0842233 641.324083,51.9817781 641.248599,51.8533086 C641.173071,51.7291691 641.084107,51.5998515 640.977332,51.475712 C640.870556,51.3463944 640.737712,51.2352893 640.581924,51.1423967 C640.421717,51.048522 640.235128,51 640.021979,51 C639.617466,51 639.297542,51.1197203 639.066226,51.3645176 Z" id="star"></path>
                </g>
            </g>
        </g>
    </g>
</svg>