<?xml version="1.0" standalone="no"?>
<!DOCTYPE svg PUBLIC "-//W3C//DTD SVG 1.1//EN" "http://www.w3.org/Graphics/SVG/1.1/DTD/svg11.dtd" >
<!--
2013-9-30: Created.
-->
<svg>
<metadata>
Created by iconfont
</metadata>
<defs>

<font id="iconfont" horiz-adv-x="1024" >
  <font-face
    font-family="iconfont"
    font-weight="500"
    font-stretch="normal"
    units-per-em="1024"
    ascent="896"
    descent="-128"
  />
    <missing-glyph />
    
    <glyph glyph-name="x" unicode="x" horiz-adv-x="1001"
d="M281 543q-27 -1 -53 -1h-83q-18 0 -36.5 -6t-32.5 -18.5t-23 -32t-9 -45.5v-76h912v41q0 16 -0.5 30t-0.5 18q0 13 -5 29t-17 29.5t-31.5 22.5t-49.5 9h-133v-97h-438v97zM955 310v-52q0 -23 0.5 -52t0.5 -58t-10.5 -47.5t-26 -30t-33 -16t-31.5 -4.5q-14 -1 -29.5 -0.5
t-29.5 0.5h-32l-45 128h-439l-44 -128h-29h-34q-20 0 -45 1q-25 0 -41 9.5t-25.5 23t-13.5 29.5t-4 30v167h911zM163 247q-12 0 -21 -8.5t-9 -21.5t9 -21.5t21 -8.5q13 0 22 8.5t9 21.5t-9 21.5t-22 8.5zM316 123q-8 -26 -14 -48q-5 -19 -10.5 -37t-7.5 -25t-3 -15t1 -14.5
t9.5 -10.5t21.5 -4h37h67h81h80h64h36q23 0 34 12t2 38q-5 13 -9.5 30.5t-9.5 34.5q-5 19 -11 39h-368zM336 498v228q0 11 2.5 23t10 21.5t20.5 15.5t34 6h188q31 0 51.5 -14.5t20.5 -52.5v-227h-327z" />
    

    
    <glyph glyph-name="baifenbi" unicode="&#59098;" d="M63.3 582.5c0 66.2 18.3 119.2 55.1 159.1 36.7 39.8 86.5 59.8 149.2 59.8 59.9 0 106.4-18.1 139.7-54.3 33.2-36.2 49.9-86.2 49.9-150 0-65.4-18.4-117.9-55.4-157.2-36.9-39.4-86.2-59.1-147.8-59.1-57.8 0-104.1 18.4-138.7 55.4-34.7 37-52 85.7-52 146.3m115 5.8c0-74.9 27.5-112.4 82.6-112.4 56 0 84.1 39.1 84.1 117.1 0 75.6-26.8 113.4-80.4 113.4-57.6 0-86.3-39.4-86.3-118.1m660.9 202.2L313-19.3H181.9l525 809.8h132.3zM564.9 171.9c0 66.9 18.6 120.1 55.9 159.6 37.2 39.5 86.9 59.3 148.9 59.3 59.9 0 106.4-17.8 139.7-53.3 33.2-35.5 49.9-85.5 49.9-150 0-66.2-18.7-119-55.9-158.5-37.3-39.6-86.6-59.3-147.8-59.3-57.5 0-103.6 18.5-138.5 55.6-34.9 37.1-52.2 85.9-52.2 146.6m114.4 5.7c0-75.2 27.7-112.8 83-112.8 55.7 0 83.6 39 83.6 117 0 36.5-7.4 64.7-22.2 84.4-14.8 19.7-34.6 29.6-59.3 29.6-56.7-0.1-85.1-39.5-85.1-118.2"  horiz-adv-x="1024" />

    
    <glyph glyph-name="format_italic" unicode="&#59300;" d="M426.656 725.344v-128h94.304L375.04 256H256v-128h341.344v128H503.04l145.92 341.344H768v128z"  horiz-adv-x="1024" />

    
    <glyph glyph-name="arrow_down" unicode="&#59326;" d="M316.16 512L512 327.392 707.84 512 768 455.168l-256-241.824-256 241.824z"  horiz-adv-x="1024" />

    
    <glyph glyph-name="add" unicode="&#59327;" d="M810.656 341.344h-256v-256h-85.344v256h-256v85.344h256v256h85.344v-256h256z"  horiz-adv-x="1024" />

    
    <glyph glyph-name="add_circle_outline" unicode="&#59328;" d="M554.656 597.344h-85.344v-170.656H298.656v-85.344h170.656v-170.656h85.344v170.656h170.656v85.344h-170.656V597.344zM512 810.656C276.48 810.656 85.344 619.52 85.344 384S276.48-42.656 512-42.656 938.656 148.48 938.656 384 747.52 810.656 512 810.656z m0-768C323.84 42.656 170.656 195.84 170.656 384S323.84 725.344 512 725.344 853.344 572.16 853.344 384 700.16 42.656 512 42.656z"  horiz-adv-x="1024" />

    
    <glyph glyph-name="arrow_drop_down" unicode="&#59329;" d="M256 554.656l256-341.344 256 341.344z"  horiz-adv-x="1024" />

    
    <glyph glyph-name="arrow_drop_right" unicode="&#59330;" d="M384 128l341.344 256L384 640z"  horiz-adv-x="1024" />

    
    <glyph glyph-name="arrow_left" unicode="&#59331;" d="M625.824 640l56.832-60.16L498.048 384l184.608-195.84L625.824 128 384 384z"  horiz-adv-x="1024" />

    
    <glyph glyph-name="card" unicode="&#59332;" d="M170.656 554.656h170.656V725.312H170.656v-170.656z m256-512h170.656v170.656h-170.656v-170.656z m-256 0h170.656v170.656H170.656v-170.656z m0 256h170.656v170.656H170.656v-170.656z m256 0h170.656v170.656h-170.656v-170.656z m256 426.688v-170.656h170.656V725.344h-170.656z m-256-170.688h170.656V725.312h-170.656v-170.656z m256-256h170.656v170.656h-170.656v-170.656z m0-256h170.656v170.656h-170.656v-170.656z"  horiz-adv-x="1024" />

    
    <glyph glyph-name="assessment" unicode="&#59333;" d="M810.656 768H213.312a85.6 85.6 0 0 1-85.344-85.344v-597.344c0-46.944 38.4-85.344 85.344-85.344h597.344c46.944 0 85.344 38.4 85.344 85.344V682.656C896 729.6 857.6 768 810.656 768zM384 170.656H298.656v298.656H384v-298.656z m170.656 0h-85.344V597.312h85.344v-426.656z m170.688 0H640v170.656h85.344v-170.656z"  horiz-adv-x="1024" />

    
    <glyph glyph-name="clear" unicode="&#59334;" d="M810.656 622.496l-60.16 60.16L512 444.16 273.504 682.656l-60.16-60.16L451.84 384l-238.496-238.496 60.16-60.16L512 323.84l238.496-238.496 60.16 60.16L572.16 384z"  horiz-adv-x="1024" />

    
    <glyph glyph-name="crop_din" unicode="&#59335;" d="M810.656 768H213.312a85.6 85.6 0 0 1-85.344-85.344v-597.344c0-46.944 38.4-85.344 85.344-85.344h597.344c46.944 0 85.344 38.4 85.344 85.344V682.656C896 729.6 857.6 768 810.656 768z m0-682.656H213.312V682.688h597.344v-597.344z"  horiz-adv-x="1024" />

    
    <glyph glyph-name="date" unicode="&#59336;" d="M227.552 120.064h142.208v107.968H227.552v-107.968z m213.344 0h142.208v107.968h-142.208v-107.968z m213.312 0h142.208v107.968h-142.208v-107.968zM227.552 300.032h142.208V408H227.552v-107.968z m213.344 0h142.208V408h-142.208v-107.968z m213.312 0h142.208V408h-142.208v-107.968zM156.448 48.096h711.104V480.032H156.448v-431.936zM764.448 768H832c62.784 0 106.656-44.32 106.656-108.032l-0.096-626.528c0-63.712-50.88-57.696-113.696-57.696H199.488c-62.816 0-113.728-6.016-113.728 57.696L85.376 659.968C85.376 723.68 129.248 768 192.032 768h64v-128h7.104v-0.096h71.104V640h7.104V768h341.344v-128h85.344V768h-3.552z"  horiz-adv-x="1024" />

    
    <glyph glyph-name="data" unicode="&#59337;" d="M892.48 447.584c-57.056-67.68-200.416-115.84-368.864-115.84-4.128 0-8.064 0.192-12.192 0.288-4.128-0.096-8.096-0.288-12.256-0.288-168.512 0-311.744 48.128-368.768 115.776l-2.368-2.592v-124.064c55.52-69.024 200.448-118.432 371.2-118.432 4.096 0 8.064 0.224 12.288 0.288 4.064-0.032 8.032-0.288 12.128-0.288 170.72 0 315.712 49.408 371.2 118.432v124.064c-0.672 0.864-1.6 1.696-2.304 2.624zM523.616 808.512c-4.096 0-8.064-0.224-12.128-0.288-4.224 0.032-8.192 0.288-12.288 0.288-170.72 0-315.68-49.408-371.2-118.464v-124c0.768-0.928 1.6-1.76 2.368-2.624 57.12-67.648 200.352-115.84 368.832-115.84 4.096 0 8.064 0.224 12.288 0.32 4.064-0.096 8.032-0.32 12.128-0.32 168.544 0 311.808 48.192 368.864 115.872 0.768 0.864 1.664 1.696 2.304 2.592V690.048c-55.488 69.088-200.448 118.464-371.2 118.464zM892.48 202.464c-57.056-67.68-200.416-115.84-368.864-115.84-4.128 0-8.064 0.192-12.192 0.288-4.128-0.096-8.096-0.288-12.256-0.288-168.512 0-311.744 48.16-368.768 115.776-0.8-0.864-1.6-1.696-2.368-2.592v-124c55.52-69.088 200.448-118.464 371.2-118.464 4.096 0 8.064 0.288 12.288 0.32 4.064-0.032 8.032-0.32 12.128-0.32 170.72 0 315.712 49.408 371.2 118.464v124c-0.672 0.864-1.6 1.76-2.304 2.624z"  horiz-adv-x="1024" />

    
    <glyph glyph-name="delete" unicode="&#59338;" d="M256 85.344C256 38.4 294.4 0 341.344 0h341.344c46.944 0 85.344 38.4 85.344 85.344v512h-512v-512z m554.656 640h-149.344L618.656 768h-213.344l-42.656-42.656H213.312V640h597.344V725.344z"  horiz-adv-x="1024" />

    
    <glyph glyph-name="explore" unicode="&#59339;" d="M512 430.944c-26.016 0-46.944-20.896-46.944-46.944s20.896-46.944 46.944-46.944c26.016 0 46.944 20.896 46.944 46.944s-20.896 46.944-46.944 46.944z m0 379.712C276.48 810.656 85.344 619.52 85.344 384S276.48-42.656 512-42.656 938.656 148.48 938.656 384 747.52 810.656 512 810.656z m93.44-520.096L256 128l162.56 349.44L768 640l-162.56-349.44z"  horiz-adv-x="1024" />

    
    <glyph glyph-name="extension" unicode="&#59340;" d="M784.256 424.64V579.04a77.44 77.44 0 0 1-77.216 77.216H552.64v57.92a96.544 96.544 0 0 1-193.024 0v-57.92H205.216a77.12 77.12 0 0 1-76.832-77.216v-146.688h57.504c57.504 0 104.224-46.72 104.224-104.224s-46.72-104.224-104.224-104.224h-57.92v-146.688A77.44 77.44 0 0 1 205.184 0h146.688v57.92c0 57.504 46.72 104.224 104.224 104.224s104.224-46.72 104.224-104.224V0h146.688a77.44 77.44 0 0 1 77.216 77.216v154.4h57.92a96.544 96.544 0 0 1 0 193.024h-57.92z"  horiz-adv-x="1024" />

    
    <glyph glyph-name="folder_open" unicode="&#59341;" d="M853.344 640H512l-85.344 85.344h-256A85.216 85.216 0 0 1 85.76 640l-0.416-512c0-46.944 38.4-85.344 85.344-85.344h682.656c46.944 0 85.344 38.4 85.344 85.344V554.656C938.688 601.6 900.288 640 853.344 640z m0-512H170.688V554.656h682.656V128z"  horiz-adv-x="1024" />

    
    <glyph glyph-name="folder" unicode="&#59342;" d="M426.656 725.344h-256A85.216 85.216 0 0 1 85.76 640l-0.416-512c0-46.944 38.4-85.344 85.344-85.344h682.656c46.944 0 85.344 38.4 85.344 85.344V554.656C938.688 601.6 900.288 640 853.344 640H512l-85.344 85.344z"  horiz-adv-x="1024" />

    
    <glyph glyph-name="funnel" unicode="&#59343;" d="M512 768c-52.992 0-102.88-3.136-149.632-9.376s-87.488-14.88-122.24-25.888c-34.752-11.008-62.112-23.744-82.112-38.24S128 664.48 128 648V576l288-288v-240c0-13.504 9.376-24.864 28.128-34.112S485.504 0 512 0c26.496 0 49.12 4.64 67.872 13.888S608 34.528 608 48V288l288 288V648c0 16.512-10.016 32-30.016 46.496s-47.36 27.264-82.112 38.24c-34.752 11.008-75.488 19.616-122.24 25.888S564.992 768 512 768zM192.096 675.328c9.184 4.448 20.16 8.896 32.896 13.344s26.784 8.448 42.08 12c16.832 4 34.816 7.552 53.952 10.656s39.04 5.664 59.68 7.68a1377.856 1377.856 0 0 0 198.24 4.672c22.208-1.12 43.616-2.656 64.288-4.672 20.672-2.016 40.576-4.544 59.68-7.68s37.12-6.656 53.952-10.656c15.296-3.552 29.344-7.552 42.08-12s23.712-8.896 32.896-13.344c5.6-3.104 10.208-5.888 13.76-8.32s6.112-4.32 7.648-5.664c-1.536-1.344-4.096-3.232-7.648-5.664s-8.16-5.216-13.76-8.32c-9.184-4.448-20.16-8.896-32.896-13.344s-26.784-8.448-42.08-12c-16.832-4-34.816-7.552-53.952-10.656s-39.04-5.664-59.68-7.68a1377.856 1377.856 0 0 0-198.24-4.672 1377.856 1377.856 0 0 0-64.288 4.672c-20.672 2.016-40.576 4.544-59.68 7.68s-37.12 6.656-53.952 10.656c-15.296 3.552-29.344 7.552-42.08 12s-23.712 8.896-32.896 13.344c-5.6 3.104-10.208 5.888-13.792 8.32s-6.112 4.32-7.648 5.664c1.536 1.344 4.096 3.232 7.648 5.664s8.16 5.216 13.792 8.32z"  horiz-adv-x="1024" />

    
    <glyph glyph-name="info" unicode="&#59344;" d="M512 810.656C276.48 810.656 85.344 619.52 85.344 384S276.48-42.656 512-42.656 938.656 148.48 938.656 384 747.52 810.656 512 810.656z m42.656-640h-85.344v256h85.344v-256z m0 341.344h-85.344V597.344h85.344V512z"  horiz-adv-x="1024" />

    
    <glyph glyph-name="lock" unicode="&#59345;" d="M768 554.656h-42.656V640c0 117.76-95.584 213.344-213.344 213.344S298.656 757.76 298.656 640v-85.344H256a85.6 85.6 0 0 1-85.344-85.344v-426.656c0-46.944 38.4-85.344 85.344-85.344h512c46.944 0 85.344 38.4 85.344 85.344V469.312c0 46.944-38.4 85.344-85.344 85.344z m-256-384c-46.944 0-85.344 38.4-85.344 85.344s38.4 85.344 85.344 85.344c46.944 0 85.344-38.4 85.344-85.344s-38.4-85.344-85.344-85.344z m132.256 384h-264.544V640c0 72.96 59.296 132.256 132.256 132.256S644.224 712.96 644.224 640v-85.344z"  horiz-adv-x="1024" />

    
    <glyph glyph-name="mode_edit" unicode="&#59346;" d="M128 159.904v-160h160l471.904 471.904-160 160L128 159.904zM883.616 595.52c16.64 16.64 16.64 43.52 0 60.16l-99.84 99.84c-16.64 16.64-43.52 16.64-60.16 0l-78.08-78.08 160-160 78.08 78.08z"  horiz-adv-x="1024" />

    
    <glyph glyph-name="person" unicode="&#59347;" d="M512 384c-117.28 0-212.096 94.816-212.096 212.096S394.72 810.688 512 810.688s212.096-97.312 212.096-214.592S629.28 384 512 384z m0-107.296c142.208 0 426.656-69.856 426.656-212.096v-107.296H85.312v107.296c0 142.208 284.448 212.096 426.656 212.096z"  horiz-adv-x="1024" />

    
    <glyph glyph-name="search" unicode="&#59348;" d="M695.2 273.984h-38.528l-13.664 13.184a315.776 315.776 0 0 1 76.608 206.368c0 175.168-141.984 317.12-317.12 317.12s-317.12-141.984-317.12-317.12c0-175.168 141.984-317.12 317.12-317.12 78.56 0 150.752 28.8 206.368 76.608l13.184-13.664v-38.528l243.936-243.456 72.704 72.704-243.456 243.936z m-292.736 0c-121.472 0-219.552 98.08-219.552 219.552s98.08 219.552 219.552 219.552 219.552-98.08 219.552-219.552-98.08-219.552-219.552-219.552z"  horiz-adv-x="1024" />

    
    <glyph glyph-name="security" unicode="&#59349;" d="M512 853.344L128 682.688v-256c0-236.8 163.84-458.24 384-512 220.16 53.76 384 275.2 384 512v256L512 853.344z m0-468.928h298.656C788.032 208.64 670.72 52.032 512 2.976V384H213.344V627.2L512 759.904v-375.456z"  horiz-adv-x="1024" />

    
    <glyph glyph-name="settings" unicode="&#59350;" d="M817.472 342.176c1.696 13.664 2.976 27.296 2.976 41.824s-1.28 28.16-2.976 41.824l90.016 70.4c8.096 6.4 10.24 17.92 5.12 27.296l-85.344 147.616a21.44 21.44 0 0 1-26.016 9.376l-106.24-42.656a312.832 312.832 0 0 1-72.096 41.824l-16.224 113.056a20.8 20.8 0 0 1-20.896 17.92h-170.656a20.8 20.8 0 0 1-20.896-17.92l-16.224-113.056A327.36 327.36 0 0 1 305.92 637.856L199.68 680.512a20.8 20.8 0 0 1-26.016-9.376L88.32 523.52a21.056 21.056 0 0 1 5.12-27.296l90.016-70.4c-1.696-13.664-2.976-27.744-2.976-41.824s1.28-28.16 2.976-41.824l-90.016-70.4c-8.096-6.4-10.24-17.92-5.12-27.296l85.344-147.616c5.12-9.376 16.64-12.8 26.016-9.376l106.24 42.656c22.176-17.056 46.08-31.136 72.096-41.824l16.224-113.056c1.28-10.24 10.24-17.92 20.896-17.92h170.656a20.8 20.8 0 0 1 20.896 17.92l16.224 113.056a327.36 327.36 0 0 1 72.096 41.824l106.24-42.656a20.8 20.8 0 0 1 26.016 9.376l85.344 147.616a21.536 21.536 0 0 1-5.12 27.296l-90.016 70.4z m-317.024-107.52c-82.336 0-149.344 66.976-149.344 149.344s66.976 149.344 149.344 149.344c82.336 0 149.344-66.976 149.344-149.344s-66.976-149.344-149.344-149.344z"  horiz-adv-x="1024" />

    
    <glyph glyph-name="sorter" unicode="&#59351;" d="M554.656 0V604.576l153.184-152.736L768 512l-256 256-256-256 60.16-60.16 153.184 152.736V0z"  horiz-adv-x="1024" />

    
    <glyph glyph-name="widgets" unicode="&#59352;" d="M554.656 341.344V0H896V341.344H554.656zM128 0h341.344V341.344H128V0zM128 768v-341.344h341.344V768H128z m582.816 55.904l-241.504-241.056 241.504-241.504 241.504 241.504-241.504 241.056z"  horiz-adv-x="1024" />

    
    <glyph glyph-name="keliuyunying" unicode="&#59353;" d="M528.608 896L80 640h864L528.608 896zM992-32H32a32 32 0 0 1-32-32v-32a32 32 0 0 1 32-32h960a32 32 0 0 1 32 32v32a32 32 0 0 1-32 32zM96 480a32 32 0 0 0-32 32v32a32 32 0 0 0 32 32h832a32 32 0 0 0 32-32v-32a32 32 0 0 0-32-32H96z m80-64H224a32 32 0 0 0 32-32v-320a32 32 0 0 0-32-32H176a32 32 0 0 0-32 32V384a32 32 0 0 0 32 32z m208 0h48a32 32 0 0 0 32-32v-320a32 32 0 0 0-32-32H384a32 32 0 0 0-32 32V384a32 32 0 0 0 32 32z m208 0H640a32 32 0 0 0 32-32v-320a32 32 0 0 0-32-32h-48a32 32 0 0 0-32 32V384a32 32 0 0 0 32 32z m208 0h48a32 32 0 0 0 32-32v-320a32 32 0 0 0-32-32H800a32 32 0 0 0-32 32V384a32 32 0 0 0 32 32z"  horiz-adv-x="1024" />

    
    <glyph glyph-name="kuping" unicode="&#59354;" d="M190.624 224C173.728 224 160 238.496 160 256.384v162.336h119.2l118.944-122.56c8.64-9.056 20.256-13.024 32.32-13.024 1.344 0 2.72 0.608 4.096 0.704a45.792 45.792 0 0 1 33.472 20.736l158.72 239.392 93.696-107.872c8.704-9.792 20.8-17.408 33.504-17.408H864v-162.336c0-17.888-13.696-32.384-30.624-32.384H190.592zM833.376 736c16.896 0 30.624-14.56 30.624-32.512v-178.784h-90.176l-118.72 136.672c-9.472 10.72-23.008 17.376-36.736 16.352a44.672 44.672 0 0 1-34.336-20.096l-159.904-241.664-93.696 96.608c-8.608 9.024-20.224 12.128-32.32 12.128H160.032V703.488c0 17.952 13.696 32.512 30.624 32.512h642.784zM102.624 832C85.568 832 64 818.176 64 801.088v-633.376c0-17.056 21.536-30.912 38.624-30.912h301.248v-108.128H286.08c-17.056 0-36.704-14.784-36.704-31.872v-29.92c0-17.056 19.616-30.912 36.704-30.912h467.296c17.056 0 36.704 13.856 36.704 30.912V-3.2c0 17.056-19.648 31.872-36.704 31.872h-133.248v108.128h316.704c17.056 0 23.168 13.824 23.168 30.912V801.088c0 17.056-6.112 30.912-23.168 30.912H102.624z"  horiz-adv-x="1024" />

    
    <glyph glyph-name="shuxuan" unicode="&#59355;" d="M634.888958 348.518653a128.167969 128.167969 0 0 0-54.45379-72.626383 126.696244 126.696244 0 0 0-94.222333-17.340748 128.295945 128.295945 0 0 0-97.069799 89.999125 127.976004 127.976004 0 0 0-5.087046 35.385365c0 9.854152 1.215772 19.388365 3.327376 28.602637a127.848028 127.848028 0 0 0 124.680622 99.373367 125.640442 125.640442 0 0 0 68.403174-19.964256 128.135975 128.135975 0 0 0 59.540837-108.011748c0-12.285696-1.855652-24.155471-5.087047-35.385365zM512 447.89202a63.988002 63.988002 0 1 1 0.031994-128.007998A63.988002 63.988002 0 0 1 512 447.89202z m415.922015 30.298319c-41.752171 0-77.201525-17.692683-90.383054-65.683684h-103.596575a222.550272 222.550272 0 0 1-41.688184 103.94851l72.786353 73.49022a95.886021 95.886021 0 0 1 108.939574 19.324377c37.464975 37.496969 37.464975 98.701493 0 136.166469a95.982003 95.982003 0 0 1-135.718553 0.223958c-29.498469-29.530463-32.345935-73.202275-15.357121-108.843592l-74.354058-75.633819a222.710242 222.710242 0 0 1-98.317566 43.223896V709.442979c31.994001 13.181528 60.916578 48.630882 60.916578 90.383054 0 53.01406-44.53565 95.982003-97.517715 95.982003s-93.678435-42.967944-93.678435-95.982003c0-41.784165 18.300569-77.201525 66.29157-90.383054V606.262326a222.422296 222.422296 0 0 1-105.644192-41.304256L307.366369 636.912579c16.956821 35.641317 9.502218 79.441105-20.028245 108.939574-37.464975 37.464975-99.021433 37.464975-136.486409 0S113.002812 647.598575 150.467787 610.101606c29.498469-29.498469 73.106293-37.113041 108.74761-20.156221l72.658377-73.458226a221.910392 221.910392 0 0 1-41.784166-104.044492H186.493033c-13.181528 47.991002-48.630882 65.683684-90.383054 65.683684-53.01406 0-95.982003-42.104105-95.982003-95.150159s42.967944-97.261763 95.982003-97.261763c41.784165 0 77.201525 30.714241 90.383054 62.708242h104.620383a222.45429 222.45429 0 0 1 42.743986-99.917266l-74.865963-74.1301c-35.641317 16.924827-79.441105 11.901768-108.939574-17.628695-37.496969-37.464975-37.496969-97.837655 0-135.302631a95.982003 95.982003 0 0 1 135.718553 0.191964c29.498469 29.498469 38.520777 73.394239 21.563957 109.06755l73.266262 72.050491a222.486284 222.486284 0 0 1 105.580204-41.272262v-103.148659c-47.991002-13.213522-67.059426-48.630882-67.059426-90.415048 0-53.01406 41.432231-95.982003 94.446291-95.982003s98.285571 42.967944 98.285572 95.982003c0 41.784165-29.690433 77.201525-61.684435 90.415048v105.068299a222.61426 222.61426 0 0 1 98.317566 43.159908l74.386052-75.697807c-16.956821-35.641317-12.573642-79.441105 16.924827-108.939574 37.496969-37.496969 97.485721-37.496969 134.950697 0a95.982003 95.982003 0 0 1-0.383928 135.718553c-29.498469 29.498469-73.490221 33.721677-109.163532 16.764857l-75.025933 74.194088a222.29432 222.29432 0 0 1 42.711992 99.885272h104.620383c13.181528-31.994001 48.630882-62.29232 90.383054-62.29232a95.982003 95.982003 0 1 1 0 191.964006z"  horiz-adv-x="1024" />

    
    <glyph glyph-name="jingpinleida" unicode="&#59356;" d="M566.464-20.352v-107.552C807.584-103.04 999.2 89.024 1024 330.784h-107.04c-23.776-182.816-168.192-327.232-350.496-351.104zM0 384c0-266.304 201.696-485.344 460.256-512v107.328C260.512 5.44 106.208 176.608 106.208 384S260.512 762.56 460.256 788.672V896C201.696 869.344 0 650.304 0 384z m916.96 53.248C893.184 620.064 748.768 764.48 566.464 788.352V895.904C807.584 871.04 999.2 678.976 1024 437.216h-107.04z m-403.584 245.76c166.208 0 300.928-135.104 300.928-301.728s-134.72-301.728-300.928-301.728-300.928 135.104-300.928 301.728 134.72 301.728 300.928 301.728z m0-496.992c107.552 0 194.72 87.424 194.72 195.232s-87.168 195.232-194.72 195.232c-107.552 0-194.72-87.424-194.72-195.232s87.168-195.232 194.72-195.232z m0 284c48.864 0 88.512-39.744 88.512-88.736s-39.648-88.736-88.512-88.736-88.512 39.744-88.512 88.736 39.648 88.736 88.512 88.736z"  horiz-adv-x="1024" />

    
    <glyph glyph-name="yingxiaobihuan" unicode="&#59357;" d="M725.76 832l86.144-82.4-235.36-182.24-188.128 171.936-304.736-233.76c-22.048-17.024-26.176-46.976-9.312-66.848s48.416-22.176 70.432-5.152l226.944 175.712 155.584-139.68c16.896-19.872 48.416-22.176 70.432-5.152l283.104 219.232L960 607.968v224h-234.24z m137.184-339.872h-64.704c-17.888 0-32.352-13.824-32.352-30.912v-525.248h129.408V461.216c0 17.056-14.496 30.912-32.352 30.912z m-226.496-185.376h-64.704c-17.888 0-32.352-13.856-32.352-30.912v-339.872H668.8V275.84c0 17.056-14.496 30.912-32.352 30.912zM426.144 384h-64.704c-17.888 0-32.352-13.824-32.352-30.912V-64h129.408V353.088c0 17.056-14.496 30.912-32.352 30.912zM199.68 306.752H134.976c-17.888 0-32.352-13.856-32.352-30.912v-339.872h129.408V275.84c0 17.056-14.496 30.912-32.352 30.912z"  horiz-adv-x="1024" />

    
    <glyph glyph-name="yonghuguanli" unicode="&#59358;" d="M608 344h-192a96 96 0 0 1-96-96v-15.552c43.776-58.432 113.376-96.448 192-96.448s148.224 38.016 192 96.448v15.552a96 96 0 0 1-96 96z m-96 48a112 112 0 1 1 0 224 112 112 0 0 1 0-224zM512 64c-176.736 0-320 143.264-320 320S335.264 704 512 704s320-143.264 320-320-143.264-320-320-320z m480 384h-69.28a414.592 414.592 0 0 1-74.976 181.216l48.928 48.928a32 32 0 0 1 0 45.248l-45.248 45.28a32.064 32.064 0 0 1-45.28 0l-48.832-48.832A413.568 413.568 0 0 1 576 795.104V864.032a32 32 0 0 1-32 32h-64a32 32 0 0 1-32-32v-68.928a412.48 412.48 0 0 1-181.312-75.264L217.856 768.672a32 32 0 0 1-45.248 0L127.328 723.392a32 32 0 0 1 0-45.248l48.928-48.928A414.816 414.816 0 0 1 101.248 448H32a32 32 0 0 1-32-32v-64a32 32 0 0 1 32-32h69.248a414.656 414.656 0 0 1 75.008-181.216l-48.928-48.928c-12.48-12.48-12.48-32.736 0-45.28l45.28-45.248a32 32 0 0 1 45.248 0l48.832 48.832A413.568 413.568 0 0 1 448-27.104v-68.928a32 32 0 0 1 32-32h64a32 32 0 0 1 32 32v68.928a412.864 412.864 0 0 1 181.312 75.264l48.832-48.832c12.512-12.48 32.768-12.48 45.28 0l45.248 45.248c12.48 12.512 12.48 32.768 0 45.28l-48.928 48.928A414.016 414.016 0 0 1 922.72 320H992a32 32 0 0 1 32 32v64a32 32 0 0 1-32 32z"  horiz-adv-x="1024" />

    
    <glyph glyph-name="format_bold" unicode="&#60136;" d="M576 233.984c36.010667 0 64 27.989333 64 64s-27.989333 64-64 64H425.984v-128H576z m-150.016 384v-128h128c36.010667 0 64 27.989333 64 64s-27.989333 64-64 64h-128z m240-181.973333c56.021333-25.984 91.989333-82.005333 91.989333-146.005334 0-89.984-68.010667-162.005333-157.994666-162.005333H297.984V726.016h267.989333c96 0 169.984-75.989333 169.984-171.989333 0-43.989333-27.989333-89.984-70.016-118.016z"  horiz-adv-x="1024" />

    
    <glyph glyph-name="format_align_right" unicode="&#60140;" d="M128 768h768v-86.016H128V768z m256-256V598.016h512V512H384z m-256-169.984v84.010667h768v-84.010667H128z m256-172.032V256h512v-86.016H384zM128 0v86.016h768V0H128z"  horiz-adv-x="1024" />

    
    <glyph glyph-name="format_clear" unicode="&#60266;" d="M256 681.984h598.016v-128h-248.021333l-68.010667-160L448 482.005333l29.994667 72.021334H375.978667L255.957333 674.048v8.021333z m-116.010667 0l11.989334-9.984L768 54.016 713.984 0l-242.005333 242.005333-66.005334-155.989333h-128l104.021334 246.016L85.973333 628.053333z"  horiz-adv-x="1024" />

    
    <glyph glyph-name="format_color_text" unicode="&#60411;" d="M409.984 384h203.989333l-102.016 269.994667z m60.032 384h84.010667l233.984-598.016h-96l-45.994667 128H378.026667l-48-128h-96zM0 41.984h1024V-128H0v169.984z"  horiz-adv-x="1024" />

    
    <glyph glyph-name="format_strikethrough" unicode="&#60447;" d="M128 297.984V384h768v-86.016H128zM214.016 726.016h596.010667v-128h-212.010667v-128H426.026667v128H214.016v128z m211.968-640v128h171.989333v-128H425.984z"  horiz-adv-x="1024" />

    
    <glyph glyph-name="save" unicode="&#60504;" d="M640 512V681.984H214.016V512H640z m-128-425.984c70.016 0 128 57.984 128 128s-57.984 128-128 128-128-57.984-128-128 57.984-128 128-128zM726.016 768L896 598.016v-512C896 40.021333 855.978667 0 809.984 0H213.973333c-48 0-86.016 40.021333-86.016 86.016V682.026667c0 45.994667 38.016 86.016 86.016 86.016h512z"  horiz-adv-x="1024" />

    
    <glyph glyph-name="font_download" unicode="&#60597;" d="M680.021333 105.984h89.984L552.021333 661.973333h-80L254.037333 105.984h89.984l48 128h240z m173.994667 704c45.994667 0 84.010667-38.016 84.010667-84.010667v-683.989333a84.522667 84.522667 0 0 0-84.010667-84.010667H170.026667a84.522667 84.522667 0 0 0-84.010667 84.010667V725.973333c0 45.994667 38.016 84.010667 84.010667 84.010667h683.989333zM424.021333 320l88.021334 235.989333 88.021333-235.989333H424.064z"  horiz-adv-x="1024" />

    
    <glyph glyph-name="delete1" unicode="&#60730;" d="M809.984 726.016V640H213.973333V726.016h148.010667L405.973333 768h212.010667l43.989333-41.984h148.010667zM256 86.016v512h512v-512C768 40.021333 727.978667 0 681.984 0H341.973333c-45.994667 0-86.016 40.021333-86.016 86.016z"  horiz-adv-x="1024" />

    
    <glyph glyph-name="format_align_center" unicode="&#60749;" d="M128 768h768v-86.016H128V768z m169.984-169.984h427.989333V512H297.984V598.016z m-169.984-256v84.010667h768v-84.010667H128zM128 0v86.016h768V0H128z m169.984 256h427.989333v-86.016H297.984V256z"  horiz-adv-x="1024" />

    
    <glyph glyph-name="format_align_justify" unicode="&#60750;" d="M128 768h768v-86.016H128V768z m0-256V598.016h768V512H128z m0-169.984v84.010667h768v-84.010667H128z m0-172.032V256h768v-86.016H128zM128 0v86.016h768V0H128z"  horiz-adv-x="1024" />

    
    <glyph glyph-name="format_underlined" unicode="&#60752;" d="M214.016 86.016h596.010667V0H214.016v86.016zM512 169.984c-141.994667 0-256 114.005333-256 256V768h105.984v-342.016c0-82.005333 68.010667-148.010667 150.016-148.010667s150.016 66.005333 150.016 148.010667V768H768v-342.016c0-141.994667-114.005333-256-256-256z"  horiz-adv-x="1024" />

    
    <glyph glyph-name="move_to_inbox" unicode="&#60705;" d="M681.984 470.016L512 298.026667 342.016 470.016h84.010667v128h171.989333v-128h84.010667z m128-214.016V681.984H211.968V256h171.989333c0-70.016 57.984-128 128-128s128 57.984 128 128h169.984z m0 512C855.978667 768 896 727.978667 896 681.984v-596.010667c0-45.994667-40.021333-86.016-86.016-86.016H211.968c-48 0-84.010667 40.021333-84.010667 86.016V681.984C127.957333 727.978667 163.968 768 211.968 768h598.016z"  horiz-adv-x="1024" />

    
    <glyph glyph-name="format_align_left" unicode="&#60877;" d="M128 768h768v-86.016H128V768z m0-768v86.016h768V0H128z m0 342.016v84.010667h768v-84.010667H128z m512 256V512H128V598.016h512zM640 256v-86.016H128V256h512z"  horiz-adv-x="1024" />

    
    <glyph glyph-name="add1" unicode="&#60837;" d="M932.571429-128h-841.142858C40.228571-128 0-87.771429 0-36.571429v841.142858C0 855.771429 40.228571 896 91.428571 896h841.142858C983.771429 896 1024 855.771429 1024 804.571429v-841.142858c0-51.2-40.228571-91.428571-91.428571-91.428571zM91.428571 859.428571C62.171429 859.428571 36.571429 833.828571 36.571429 804.571429v-841.142858c0-29.257143 25.6-54.857143 54.857142-54.857142h841.142858c29.257143 0 54.857143 25.6 54.857142 54.857142v841.142858c0 29.257143-25.6 54.857143-54.857142 54.857142h-841.142858zM768 347.428571h-219.428571v-219.428571h-73.142858v219.428571H256v73.142858h219.428571V640h73.142858v-219.428571h219.428571z"  horiz-adv-x="1024" />

    
    <glyph glyph-name="icon-test" unicode="&#60864;" d="M819.2 682.656v102.4h102.4v-819.2H102.4v102.4h716.8v102.4h-204.8v102.4h204.8v102.4h-512v102.4h512v102.4H512v102.4h307.2z"  horiz-adv-x="1024" />

    
    <glyph glyph-name="icon-test1" unicode="&#60865;" d="M819.2 76.8h102.4v-102.4H102.4V793.6h102.4v-716.8h102.4v204.8h102.4v-204.8H512v512h102.4v-512h102.4V384h102.4v-307.2z"  horiz-adv-x="1024" />

    
    <glyph glyph-name="icon-test2" unicode="&#60866;" d="M42.656 640h512v-512h-512V640z m614.4-153.6h307.2v-51.2h-307.2v51.2z m0-153.6h307.2v-51.2h-307.2v51.2z"  horiz-adv-x="1024" />

    
    <glyph glyph-name="icon-test3" unicode="&#60867;" d="M256 640h512v-512H256V640z"  horiz-adv-x="1024" />

    
    <glyph glyph-name="icon-test4" unicode="&#60868;" d="M256 853.344h512v-512H256v512z m85.344-640h341.344v-51.2H341.344v51.2z m0-170.688h341.344v-51.2H341.344v51.2z"  horiz-adv-x="1024" />

    
    <glyph glyph-name="icon-test5" unicode="&#60869;" d="M768-42.656H256v512h512v-512z m-85.344 640H341.312v51.2h341.344v-51.2z m0 170.656H341.312V819.2h341.344V768z"  horiz-adv-x="1024" />

    
    <glyph glyph-name="icon-test6" unicode="&#60870;" d="M554.656 810.656v-129.28c144.64-20.896 256-144.64 256-295.264 0-38.4-7.68-74.656-20.48-108.384l110.944-65.28a421.12 421.12 0 0 1 37.536 173.664c0 221.024-168.544 403.2-384 424.544zM512 87.456a298.432 298.432 0 0 0-298.656 298.656c0 150.624 111.36 274.336 256 295.264v129.28c-215.904-21.344-384-203.104-384-424.544 0-235.52 190.72-426.656 426.24-426.656 141.216 0 266.24 68.704 343.904 174.496l-110.944 65.28A296.608 296.608 0 0 0 512 87.456z"  horiz-adv-x="1024" />

    
    <glyph glyph-name="icon-test7" unicode="&#60871;" d="M433.504 810.656h156.992l348.16-853.344h-148.128l-84.832 219.904H317.024l-84.832-219.904h-146.88l348.16 853.344zM358.816 284.8h305.12L514.528 670.816h-5.056L358.816 284.8z"  horiz-adv-x="1024" />

    
    <glyph glyph-name="icon-test8" unicode="&#60872;" d="M128 810.656h768c23.552 0 42.656-19.104 42.656-42.656v-768c0-23.552-19.104-42.656-42.656-42.656H128A42.656 42.656 0 0 0 85.344 0V768c0 23.552 19.104 42.656 42.656 42.656z m339.136-182.848L268.192 140.192h83.936l48.48 125.664h222.112l48.48-125.664h84.64L556.896 627.808H467.2z m-42.688-300.48l86.08 220.576h2.88l85.376-220.576h-174.368z"  horiz-adv-x="1024" />

    
    <glyph glyph-name="icon-test12" unicode="&#60879;" d="M512 222.048a162.816 162.816 0 0 1 95.136 30.848l238.496-132.224c-78.176-98.144-198.432-161.184-333.664-161.184-235.648 0-426.656 191.008-426.656 426.656 0 221.216 168.416 403.104 384 424.544v-266.752c-69.792-18.848-121.44-82.016-121.44-157.792a164.096 164.096 0 0 1 164.096-164.096z m49.376 587.68c212.352-24.544 377.248-204.672 377.248-423.584 0-67.328-16-130.816-43.808-187.488l-230.368 127.712c7.296 18.56 11.648 38.656 11.648 59.776 0 73.312-48.384 134.656-114.72 155.744V809.76z"  horiz-adv-x="1024" />

    
    <glyph glyph-name="icon-test10" unicode="&#60874;" d="M512 810.656C276.064 810.656 85.344 619.936 85.344 384S276.064-42.656 512-42.656 938.656 148.064 938.656 384 747.936 810.656 512 810.656z m213.344-579.84l-60.16-60.16L512 323.84l-153.184-153.184-60.16 60.16L451.84 384l-153.184 153.184 60.16 60.16L512 444.16l153.184 153.184 60.16-60.16L572.16 384l153.184-153.184z"  horiz-adv-x="1024" />

    
    <glyph glyph-name="assignment" unicode="&#60875;" d="M810.656 768H632.32C614.4 817.504 567.456 853.344 512 853.344S409.6 817.504 391.68 768H213.344A85.6 85.6 0 0 1 128 682.656v-597.344c0-46.944 38.4-85.344 85.344-85.344h597.344c46.944 0 85.344 38.4 85.344 85.344V682.656C896.032 729.6 857.632 768 810.688 768zM512 768c23.456 0 42.656-19.2 42.656-42.656s-19.2-42.656-42.656-42.656-42.656 19.2-42.656 42.656S488.544 768 512 768z m85.344-597.344H298.688V256h298.656v-85.344z m128 170.688H298.688v85.344h426.656v-85.344z m0 170.656H298.688V597.344h426.656V512z"  horiz-adv-x="1024" />

    
    <glyph glyph-name="description" unicode="&#60878;" d="M597.344 810.656H256a85.216 85.216 0 0 1-84.896-85.344l-0.416-682.656a85.216 85.216 0 0 1 84.896-85.344H768c46.944 0 85.344 38.4 85.344 85.344v512l-256 256zM682.656 128H341.312v85.344h341.344V128z m0 170.656H341.312V384h341.344v-85.344z m-128 213.344V746.656L789.312 512h-234.656z"  horiz-adv-x="1024" />

    
    <glyph glyph-name="view_comfy" unicode="&#60880;" d="M768 681.984h170.016v-170.016H768V681.984z m0-596V256h170.016v-170.016H768z m-213.984 0V256h172v-170.016h-172z m-212 0V256h170.016v-170.016h-170.016z m-214.016 0V256h170.016v-170.016H128z m640 212v172h170.016v-172H768z m-213.984 384h172v-170.016h-172V681.984zM342.016 512V682.016h170.016V512h-170.016z m212-214.016v172h172v-172h-172z m-212 0v172h170.016v-172h-170.016z m-214.016 0v172h170.016v-172H128zM128 512V682.016h170.016V512H128z"  horiz-adv-x="1024" />

    
    <glyph glyph-name="Document" unicode="&#60881;" d="M213.344 298.656v-128V640H128V725.344a85.344 85.344 0 0 0 85.344 85.344h597.344a85.344 85.344 0 0 0 85.344-85.344v-682.656a85.344 85.344 0 0 0-85.344-85.344H213.344A85.344 85.344 0 0 0 128 42.688v85.344h85.344v42.656-128h597.344V725.344H213.344v-128h-128V512h128v-42.656H128v-170.656h85.344z m128 298.688h341.344V512H341.344V597.344z m0-170.688h341.344v-85.344H341.344v85.344z m0-170.656h341.344v-85.344H341.344V256z"  horiz-adv-x="1024" />

    
    <glyph glyph-name="arrow_down1" unicode="&#60906;" d="M316.16 512L512 327.392 707.84 512 768 455.168l-256-241.824-256 241.824z"  horiz-adv-x="1024" />

    
    <glyph glyph-name="info1" unicode="&#60950;" d="M517.504 810.624L512 810.656l-5.504-0.032-5.504-0.096-5.472-0.16-5.472-0.256-5.44-0.32-5.408-0.384-5.408-0.448-5.376-0.512-5.376-0.576-5.344-0.64-5.312-0.704-5.312-0.768-5.28-0.832-5.248-0.896-5.248-0.96-5.216-1.024-5.184-1.088-5.184-1.152-5.152-1.216-5.12-1.28-5.088-1.344-5.088-1.408-5.056-1.472-5.024-1.536-4.992-1.6-4.96-1.664-4.928-1.696-4.928-1.76-4.896-1.824-4.864-1.888-4.832-1.952-4.8-1.984-4.768-2.048-4.736-2.112-4.704-2.176-4.672-2.208-4.64-2.272-4.608-2.336-4.576-2.4-4.544-2.432-4.512-2.496-4.48-2.528-4.448-2.592-4.416-2.656-4.384-2.688-4.352-2.752-4.32-2.816-4.288-2.848-4.224-2.912-4.192-2.944-4.16-3.008-4.128-3.04-4.096-3.104-4.064-3.136-4-3.2-3.968-3.232-3.936-3.296-3.904-3.328-3.84-3.392-3.808-3.424-3.776-3.456-3.712-3.52-3.68-3.552-3.648-3.584-3.584-3.648-3.552-3.68-3.52-3.712-3.456-3.776-3.424-3.808-3.36-3.84-3.328-3.904-3.296-3.936-3.232-3.968-3.2-4-3.136-4.064-3.104-4.096-3.04-4.128-3.008-4.16-2.944-4.192-2.912-4.224-2.848-4.288-2.784-4.32-2.752-4.352-2.688-4.384-2.656-4.416-2.592-4.448-2.528-4.48-2.496-4.512-2.432-4.544-2.4-4.576-2.336-4.608-2.272-4.64-2.208-4.672-2.176-4.704-2.112-4.736-2.048-4.768-1.984-4.8-1.952-4.832-1.888-4.864-1.824-4.896-1.76-4.896-1.696-4.96-1.632-4.96-1.6-4.992-1.536-5.024-1.472-5.056-1.408-5.088-1.344-5.088-1.28-5.12-1.216-5.152-1.152-5.184-1.088-5.184-1.024-5.216-0.96-5.248-0.896-5.248-0.832-5.28-0.768-5.312-0.704-5.312-0.64-5.344-0.576-5.376-0.512-5.376-0.448-5.408-0.384-5.408-0.32-5.44-0.256-5.472-0.16-5.472-0.096-5.504-0.032-5.504 0.032-5.504 0.096-5.504 0.16-5.472 0.256-5.472 0.32-5.44 0.384-5.408 0.448-5.408 0.512-5.376 0.576-5.376 0.64-5.344 0.704-5.312 0.768-5.312 0.832-5.28 0.896-5.248 0.96-5.248 1.024-5.216 1.088-5.184 1.152-5.184 1.216-5.152 1.28-5.12 1.344-5.088 1.408-5.088 1.472-5.056 1.536-5.024 1.6-4.992 1.632-4.96 1.696-4.928 1.76-4.928 1.824-4.896 1.888-4.864 1.952-4.832 1.984-4.8 2.048-4.768 2.112-4.736 2.176-4.704 2.208-4.672 2.272-4.64 2.336-4.608 2.4-4.576 2.432-4.544 2.496-4.512 2.528-4.48 2.592-4.448 2.656-4.416 2.688-4.384 2.752-4.352 2.784-4.32 2.848-4.288 2.912-4.224 2.944-4.192 3.008-4.16 3.04-4.128 3.104-4.096 3.136-4.064 3.2-4 3.232-3.968 3.296-3.936 3.328-3.904 3.36-3.84 3.424-3.808 3.456-3.776 3.52-3.712 3.552-3.68 3.584-3.648 3.648-3.616 3.68-3.552 3.712-3.52 3.776-3.456 3.808-3.424 3.84-3.36 3.904-3.328 3.936-3.296 3.968-3.232 4-3.2 4.064-3.136 4.096-3.104 4.128-3.04 4.16-3.008 4.192-2.944 4.224-2.912 4.288-2.848 4.32-2.784 4.352-2.752 4.384-2.688 4.416-2.656 4.448-2.592 4.48-2.528 4.512-2.496 4.544-2.432 4.576-2.4 4.608-2.336 4.64-2.272 4.672-2.208 4.704-2.176 4.736-2.112 4.768-2.048 4.8-1.984 4.832-1.952 4.864-1.888 4.896-1.824 4.928-1.76 4.928-1.696 4.96-1.664 4.992-1.6 5.024-1.536 5.056-1.472 5.088-1.408 5.088-1.344 5.12-1.28 5.152-1.216 5.184-1.152 5.184-1.088 5.216-1.024 5.248-0.96 5.248-0.896 5.28-0.832 5.312-0.768 5.312-0.704 5.344-0.64 5.376-0.576 5.376-0.512 5.408-0.448 5.408-0.384 5.44-0.32 5.472-0.256 5.472-0.16 5.504-0.096 5.504-0.032 5.504 0.032 5.504 0.096 5.472 0.16 5.472 0.256 5.44 0.32 5.408 0.384 5.408 0.448 5.376 0.512 5.376 0.576 5.344 0.64 5.312 0.704 5.312 0.768 5.28 0.832 5.248 0.896 5.248 0.96 5.216 1.024 5.184 1.088 5.184 1.152 5.152 1.216 5.12 1.28 5.088 1.344 5.088 1.408 5.056 1.472 5.024 1.536 4.992 1.6 4.96 1.664 4.928 1.696 4.928 1.76 4.896 1.824 4.864 1.888 4.832 1.952 4.8 1.984 4.768 2.048 4.736 2.112 4.704 2.176 4.672 2.208 4.64 2.272 4.608 2.336 4.576 2.4 4.544 2.432 4.512 2.496 4.48 2.528 4.448 2.592 4.416 2.656 4.384 2.688 4.352 2.752 4.32 2.784 4.288 2.848 4.224 2.912 4.192 2.944 4.16 3.008 4.128 3.04 4.096 3.104 4.064 3.136 4 3.2 3.968 3.232 3.936 3.296 3.904 3.328 3.84 3.36 3.808 3.424 3.776 3.456 3.712 3.52 3.68 3.552 3.648 3.616 3.616 3.648 3.552 3.68 3.52 3.712 3.456 3.776 3.424 3.808 3.392 3.84 3.328 3.904 3.296 3.936 3.232 3.968 3.2 4 3.136 4.064 3.104 4.096 3.04 4.128 3.008 4.16 2.944 4.192 2.912 4.224 2.848 4.288 2.816 4.32 2.752 4.352 2.688 4.384 2.656 4.416 2.592 4.448 2.528 4.48 2.496 4.512 2.432 4.544 2.4 4.576 2.336 4.608 2.272 4.64 2.208 4.672 2.176 4.704 2.112 4.736 2.048 4.768 1.984 4.8 1.952 4.832 1.888 4.864 1.824 4.896 1.76 4.928 1.696 4.928 1.664 4.96 1.6 4.992 1.536 5.024 1.472 5.056 1.408 5.088 1.344 5.088 1.28 5.12 1.216 5.152 1.152 5.184 1.088 5.184 1.024 5.216 0.96 5.248 0.896 5.248 0.832 5.28 0.768 5.312 0.704 5.312 0.64 5.344 0.576 5.376 0.512 5.376 0.448 5.408 0.384 5.408 0.32 5.44 0.256 5.472 0.16 5.472 0.096 5.504 0.032 5.504-0.032 5.504-0.096 5.504-0.16 5.472-0.256 5.472-0.32 5.44-0.384 5.408-0.448 5.408-0.512 5.376-0.576 5.376-0.64 5.344-0.704 5.312-0.768 5.312-0.832 5.28-0.896 5.248-0.96 5.248-1.024 5.216-1.088 5.184-1.152 5.184-1.216 5.152-1.28 5.12-1.344 5.088-1.408 5.088-1.472 5.056-1.536 5.024-1.6 4.992-1.664 4.96-1.696 4.96-1.76 4.896-1.824 4.896-1.888 4.864-1.952 4.832-1.984 4.8-2.048 4.768-2.112 4.736-2.176 4.704-2.208 4.672-2.272 4.64-2.336 4.608-2.4 4.576-2.432 4.544-2.496 4.512-2.528 4.48-2.592 4.448-2.656 4.416-2.688 4.384-2.752 4.352-2.816 4.32-2.848 4.288-2.912 4.224-2.944 4.192-3.008 4.16-3.04 4.128-3.104 4.096-3.136 4.064-3.2 4-3.232 3.968-3.296 3.936-3.328 3.904-3.392 3.84-3.424 3.808-3.456 3.776-3.52 3.712-3.552 3.68-3.616 3.648-3.648 3.584-3.68 3.552-3.712 3.52-3.776 3.456-3.808 3.424-3.84 3.392-3.904 3.328-3.936 3.296-3.968 3.232-4 3.2-4.064 3.136-4.096 3.104-4.128 3.04-4.16 3.008-4.192 2.944-4.224 2.912-4.288 2.848-4.32 2.816-4.352 2.752-4.384 2.688-4.416 2.656-4.448 2.592-4.48 2.528-4.512 2.496-4.544 2.432-4.576 2.4-4.608 2.336-4.64 2.272-4.672 2.208-4.704 2.176-4.736 2.112-4.768 2.048-4.8 1.984-4.832 1.952-4.864 1.888-4.896 1.824-4.928 1.76-4.928 1.696-4.96 1.664-4.992 1.6-5.024 1.536-5.056 1.472-5.088 1.408-5.088 1.344-5.12 1.28-5.152 1.216-5.184 1.152-5.184 1.088-5.216 1.024-5.248 0.96-5.248 0.896-5.28 0.832-5.312 0.768-5.312 0.704-5.344 0.64-5.376 0.576-5.376 0.512-5.408 0.448-5.408 0.384-5.44 0.32-5.472 0.256-5.472 0.16-5.504 0.096z m-10.016-79.2L512 731.456l4.512-0.032 4.48-0.096 4.48-0.128 4.448-0.192 4.448-0.256 4.448-0.32 4.416-0.352 4.384-0.416 4.384-0.48 4.352-0.512 4.32-0.576 4.32-0.64 4.32-0.672 4.288-0.736 4.256-0.8 4.256-0.832 4.224-0.896 4.192-0.928 4.192-0.992 4.16-1.056 4.128-1.088 4.096-1.152 4.128-1.184 4.096-1.248 4.032-1.28 4.032-1.344 4.032-1.376 4-1.44 3.968-1.472 3.936-1.536 3.936-1.568 3.904-1.632 3.872-1.664 3.872-1.728 3.808-1.76 3.808-1.824 3.808-1.856 3.744-1.888 3.712-1.952 3.712-1.984 3.68-2.016 3.648-2.08 3.616-2.112 3.584-2.144 3.584-2.208 3.552-2.24 3.488-2.272 3.488-2.336 3.488-2.4 3.392-2.4 3.392-2.432 3.392-2.496 3.328-2.528 3.296-2.56 3.296-2.624 3.232-2.624 3.168-2.656 3.2-2.752 3.136-2.752 3.072-2.752 3.104-2.848 3.072-2.88 2.976-2.88 2.976-2.944 2.912-2.944 2.88-3.008 2.88-3.072 2.816-3.04 2.784-3.104 2.784-3.168 2.72-3.168 2.656-3.168 2.624-3.232 2.624-3.296 2.56-3.328 2.496-3.296 2.496-3.392 2.432-3.392 2.4-3.392 2.368-3.488 2.304-3.456 2.272-3.52 2.24-3.552 2.176-3.552 2.176-3.616 2.112-3.648 2.08-3.648 2.016-3.68 1.984-3.712 1.952-3.744 1.888-3.776 1.856-3.776 1.792-3.808 1.76-3.808 1.728-3.872 1.696-3.904 1.632-3.904 1.568-3.904 1.536-3.936 1.472-3.968 1.44-4 1.376-4.032 1.344-4.032 1.312-4.064 1.248-4.064 1.184-4.096 1.152-4.16 1.088-4.16 1.024-4.128 0.992-4.192 0.96-4.224 0.896-4.192 0.832-4.256 0.8-4.256 0.736-4.288 0.672-4.32 0.64-4.288 0.576-4.32 0.544-4.384 0.48-4.352 0.416-4.384 0.352-4.416 0.32-4.416 0.256-4.448 0.192-4.448 0.128-4.48 0.096-4.48 0.032-4.512-0.032-4.512-0.096-4.48-0.128-4.48-0.192-4.448-0.256-4.448-0.32-4.384-0.352-4.416-0.416-4.384-0.48-4.384-0.544-4.384-0.576-4.32-0.64-4.288-0.672-4.32-0.736-4.288-0.8-4.256-0.832-4.224-0.896-4.224-0.96-4.224-0.992-4.192-1.024-4.128-1.088-4.16-1.152-4.16-1.184-4.096-1.248-4.064-1.312-4.064-1.344-4.064-1.376-4-1.44-4-1.472-3.968-1.536-3.936-1.568-3.904-1.632-3.904-1.696-3.904-1.696-3.84-1.76-3.84-1.792-3.808-1.856-3.776-1.92-3.776-1.952-3.744-1.984-3.712-2.016-3.68-2.048-3.648-2.112-3.648-2.176-3.616-2.176-3.552-2.24-3.552-2.272-3.52-2.336-3.488-2.368-3.456-2.4-3.392-2.464-3.424-2.496-3.36-2.496-3.296-2.592-3.328-2.624-3.264-2.624-3.232-2.688-3.2-2.72-3.168-2.784-3.168-2.784-3.104-2.784-3.04-2.88-3.072-2.912-3.04-2.912-2.944-2.976-2.944-3.008-2.912-3.072-2.88-3.072-2.848-3.072-2.752-3.168-2.784-3.2-2.72-3.168-2.656-3.264-2.656-3.264-2.592-3.296-2.56-3.328-2.528-3.392-2.496-3.392-2.464-3.392-2.4-3.456-2.368-3.488-2.336-3.52-2.272-3.52-2.24-3.552-2.208-3.616-2.176-3.616-2.112-3.648-2.048-3.68-2.016-3.712-1.984-3.712-1.952-3.744-1.888-3.808-1.856-3.808-1.792-3.808-1.76-3.872-1.728-3.872-1.664-3.872-1.6-3.936-1.568-3.968-1.536-4-1.504-3.968-1.44-4-1.376-4.032-1.344-4.064-1.28-4.096-1.248-4.096-1.184-4.096-1.152-4.128-1.088-4.16-1.056-4.192-0.992-4.192-0.928-4.224-0.896-4.256-0.832-4.256-0.8-4.288-0.736-4.288-0.672-4.32-0.64-4.352-0.576-4.352-0.512-4.352-0.48-4.416-0.416-4.416-0.352-4.384-0.32-4.448-0.256-4.48-0.192-4.48-0.128-4.48-0.096-4.48-0.032-4.48 0.032-4.48 0.096-4.48 0.128-4.48 0.192-4.448 0.256-4.384 0.32-4.416 0.352-4.416 0.416-4.352 0.48-4.352 0.512-4.352 0.576-4.32 0.64-4.288 0.672-4.288 0.736-4.256 0.8-4.224 0.832-4.224 0.896-4.192 0.928-4.192 0.992-4.16 1.056-4.128 1.088-4.128 1.152-4.096 1.184-4.064 1.248-4.064 1.312-4.032 1.344-4 1.376-4 1.44-3.968 1.472-3.936 1.536-3.936 1.568-3.872 1.6-3.872 1.664-3.872 1.728-3.808 1.76-3.808 1.792-3.808 1.856-3.744 1.888-3.712 1.952-3.712 1.984-3.68 2.016-3.648 2.048-3.616 2.112-3.616 2.176-3.552 2.208-3.52 2.24-3.52 2.272-3.488 2.336-3.456 2.368-3.392 2.4-3.392 2.464-3.392 2.496-3.328 2.528-3.296 2.56-3.264 2.592-3.264 2.656-3.2 2.688-3.168 2.72-3.136 2.752-3.104 2.784-3.072 2.816-3.04 2.848-3.04 2.912-2.976 2.944-2.912 2.944-2.912 3.04-2.88 3.072-2.784 3.04-2.784 3.104-2.784 3.168-2.72 3.168-2.688 3.2-2.656 3.232-2.592 3.264-2.56 3.296-2.528 3.328-2.496 3.36-2.464 3.424-2.4 3.392-2.368 3.456-2.336 3.488-2.272 3.52-2.24 3.552-2.176 3.552-2.176 3.616-2.112 3.648-2.048 3.648-2.016 3.68-1.984 3.712-1.952 3.744-1.92 3.776-1.856 3.776-1.792 3.808-1.792 3.872-1.728 3.84-1.664 3.84-1.632 3.904-1.6 3.936-1.536 3.936-1.472 3.968-1.44 4-1.376 4-1.344 4.064-1.312 4.064-1.248 4.096-1.184 4.096-1.12 4.096-1.088 4.16-1.056 4.224-0.992 4.16-0.928 4.192-0.896 4.256-0.832 4.224-0.8 4.256-0.736 4.288-0.704 4.32-0.64 4.288-0.576 4.32-0.544 4.384-0.48 4.384-0.416 4.384-0.352 4.416-0.32 4.384-0.256 4.448-0.192 4.448-0.128 4.48-0.096 4.544-0.032 4.48 0.032 4.48 0.096 4.512 0.128 4.48 0.192 4.448 0.256 4.448 0.32 4.416 0.352 4.416 0.416 4.384 0.48 4.352 0.544 4.384 0.576 4.32 0.64 4.288 0.704 4.32 0.736 4.288 0.8 4.256 0.832 4.256 0.896 4.256 0.928 4.192 0.992 4.16 1.056 4.224 1.088 4.128 1.12 4.064 1.184 4.096 1.248 4.096 1.312 4.064 1.344 4.032 1.376 4.032 1.44 4 1.472 3.968 1.536 3.936 1.6 3.936 1.632 3.904 1.664 3.84 1.728 3.872 1.76 3.84 1.792 3.808 1.856 3.776 1.888 3.776 1.952 3.744 1.984 3.712 2.016 3.68 2.08 3.648 2.144 3.648 2.144 3.616 2.176 3.552 2.24 3.552 2.272 3.52 2.304 3.456 2.368 3.488 2.4 3.392 2.464 3.392 2.496 3.392 2.528 3.328 2.56 3.296 2.624 3.264 2.656 3.264 2.656 3.168 2.72 3.168 2.784 3.168 2.784 3.104 2.816 3.04 2.88 3.072 2.88 3.008 2.912 2.944 2.976 2.944 3.008 2.912 3.04 2.848 3.072 2.848 3.104 2.784 3.104 2.72 3.168 2.72 3.2 2.688 3.232 2.624 3.296 2.624 3.296 2.56 3.328 2.528 3.392 2.496 3.392 2.432 3.392 2.4 3.488 2.4 3.488 2.336 3.488 2.272 3.552 2.24 3.584 2.208 3.584 2.144 3.616 2.112 3.648 2.08 3.68 2.016 3.712 1.984 3.712 1.952 3.744 1.888 3.808 1.856 3.808 1.824 3.808 1.76 3.872 1.728 3.872 1.664 3.904 1.632 3.936 1.568 3.936 1.536 3.968 1.472 4 1.44 4.032 1.376 4.032 1.344 4.064 1.28 4.064 1.248 4.096 1.184 4.128 1.152 4.128 1.088 4.16 1.056 4.192 0.992 4.192 0.928 4.224 0.896 4.224 0.832 4.256 0.8 4.288 0.736 4.32 0.672 4.32 0.64 4.32 0.576 4.352 0.512 4.352 0.48 4.384 0.416 4.416 0.352 4.448 0.32 4.448 0.256 4.448 0.192 4.48 0.128 4.48 0.096zM512 137.312c22.368 0 40.48 18.048 40.48 40.288s-18.112 40.288-40.48 40.288c-22.336 0-40.448-18.048-40.448-40.288s18.112-40.288 40.448-40.288z m0 471.168c-76.16 0-157.12-55.104-157.12-157.312 0-21.6 17.6-39.104 39.296-39.104s39.264 17.536 39.264 39.104c0 54.336 40.736 79.072 78.56 79.072 29.344 0 78.56-8.576 78.56-66.016 0-20.352-5.376-44.128-45.088-65.952-27.04-14.784-72.736-53.088-72.736-102.72 0-21.6 17.6-39.104 39.264-39.104s39.296 17.536 39.296 39.104c0 7.264 15.552 25.152 32.064 34.208 56.928 31.168 85.792 76.48 85.792 134.496 0 99.68-78.912 144.256-157.152 144.256z"  horiz-adv-x="1024" />

    
    <glyph glyph-name="visibility" unicode="&#60930;" d="M512 682.656c-213.344 0-395.52-132.704-469.344-320 73.824-187.296 256-320 469.344-320s395.52 132.704 469.344 320c-73.824 187.296-256 320-469.344 320z m0-533.312c-117.76 0-213.344 95.584-213.344 213.344S394.24 576.032 512 576.032c117.76 0 213.344-95.584 213.344-213.344S629.76 149.344 512 149.344z m0 341.312c-70.816 0-128-57.184-128-128s57.184-128 128-128 128 57.184 128 128-57.184 128-128 128z"  horiz-adv-x="1024" />

    
    <glyph glyph-name="view_stream" unicode="&#60967;" d="M170.016 681.984h726.016v-256H170.016v256z m0-553.984v256h726.016v-256H170.016z"  horiz-adv-x="1024" />

    
    <glyph glyph-name="view_week" unicode="&#60968;" d="M554.016 681.984c24 0 44-18.016 44-42.016v-512c0-24-20-42.016-44-42.016h-128c-24 0-42.016 18.016-42.016 42.016v512c0 24 18.016 42.016 42.016 42.016h128z m300 0c24 0 42.016-18.016 42.016-42.016v-512c0-24-18.016-42.016-42.016-42.016h-128c-24 0-44 18.016-44 42.016v512c0 24 20 42.016 44 42.016h128zM256 681.984c24 0 42.016-18.016 42.016-42.016v-512c0-24-18.016-42.016-42.016-42.016H128c-24 0-42.016 18.016-42.016 42.016v512c0 24 18.016 42.016 42.016 42.016h128z"  horiz-adv-x="1024" />

    
    <glyph glyph-name="chuizhirongqi" unicode="&#60984;" d="M469.344 768v-768H170.688V768h298.656zM256 85.344h128V682.688H256v-597.344zM853.344 768v-768h-298.656V768h298.656zM640 85.344h128V682.688h-128v-597.344z"  horiz-adv-x="1024" />

    
    <glyph glyph-name="biaoge" unicode="&#60985;" d="M85.344 810.656h853.344v-853.344H85.344V810.656z m256-768v128H170.688v-128h170.656z m0 213.344v128H170.688v-128h170.656z m256-213.344v128h-170.656v-128h170.656z m0 213.344v128h-170.656v-128h170.656z m256-213.344v128h-170.656v-128h170.656z m0 213.344v128h-170.656v-128h170.656z m-512 213.344v128H170.688v-128h170.656z m256 0v128h-170.656v-128h170.656z m256 0v128h-170.656v-128h170.656z"  horiz-adv-x="1024" />

    
    <glyph glyph-name="diyufenbu" unicode="&#60986;" d="M640 678.4L384 768 85.344 681.888v-730.304L384 46.944l256-89.6 298.656 85.856V771.968L640 678.4z m-213.344-15.776l170.656-59.744v-540.16l-170.656 59.744V662.624z m-256-42.24l170.656 43.104v-541.856l-170.656-49.504V620.384zM853.344 104.96l-170.656-43.104V603.296L853.344 652.8v-547.84z"  horiz-adv-x="1024" />

    
    <glyph glyph-name="bingtu" unicode="&#60987;" d="M512 810.656C276.48 810.656 85.344 619.52 85.344 384S276.48-42.656 512-42.656 938.656 148.48 938.656 384 747.52 810.656 512 810.656z m338.336-384h-295.68v295.68c154.016-19.2 276.48-141.664 295.68-295.68zM170.656 384c0 173.664 130.56 317.44 298.656 338.336v-676.704c-168.096 20.896-298.656 164.704-298.656 338.336z m384-338.336v295.68h295.68c-19.2-154.016-141.664-276.48-295.68-295.68z"  horiz-adv-x="1024" />

    
    <glyph glyph-name="gengduoshaixuan" unicode="&#60988;" d="M128 768v-170.656l213.344-174.944v-507.744l341.344 221.856v285.856l213.344 174.944V767.968h-768z m469.344-584.544l-170.656-110.944v268.8h170.656v-157.856zM810.656 640l-204.8-170.656h-187.744L213.312 640V682.656h597.344V640z"  horiz-adv-x="1024" />

    
    <glyph glyph-name="dingzhishaixuan" unicode="&#60989;" d="M584.544 422.4l-25.6 46.944h-140.8L213.344 640V682.656H537.6c0 4.256 4.256 12.8 4.256 17.056l42.656 68.256H127.968v-170.656l213.344-174.944v-507.744l341.344 221.856v256l-4.256-4.256c-38.4-12.8-76.8 4.256-93.856 34.144z m12.8-238.944l-170.656-110.944v268.8h170.656v-157.856zM1011.2 541.856L964.256 576V618.656L1006.912 652.8s8.544 8.544 4.256 12.8l-42.656 72.544c-4.256 4.256-8.544 4.256-12.8 4.256l-51.2-17.056-12.8 8.544c-4.256 0-4.256 4.256-8.544 4.256l-12.8 8.544-8.544 55.456c-4.256 4.256-8.544 8.544-12.8 8.544h-85.344c-4.256 0-8.544-4.256-12.8-8.544l-8.544-55.456-12.8-8.544c-4.256 0-4.256-4.256-8.544-4.256l-12.8-8.544-51.2 21.344c-4.256 0-8.544 0-12.8-4.256l-42.656-72.544c-4.256-4.256 0-8.544 4.256-12.8l42.656-34.144v-42.656l-42.656-34.144s-8.544-8.544-4.256-12.8l42.656-72.544c4.256-4.256 8.544-4.256 12.8-4.256l51.2 21.344 12.8-8.544c4.256 0 4.256-4.256 8.544-4.256l12.8-8.544 8.544-55.456c0-4.256 4.256-8.544 8.544-8.544h85.344a9.184 9.184 0 0 1 8.544 8.544l8.544 55.456 12.8 8.544c4.256 0 4.256 4.256 8.544 4.256l12.8 8.544 51.2-21.344c4.256 0 8.544 0 12.8 4.256l42.656 72.544c12.8 0 12.8 4.256 8.544 8.544z m-204.8-8.512c-34.144 0-64 29.856-64 64s29.856 64 64 64 64-29.856 64-64-29.856-64-64-64z"  horiz-adv-x="1024" />

    
    <glyph glyph-name="mianji" unicode="&#60990;" d="M682.656 469.344L529.056 384l-217.6 273.056-140.8-196.256V810.656H85.312v-857.6h853.344v209.056l-256 307.2z m-512-426.688v55.456l140.8 166.4 145.056-192 179.2 51.2 174.944-81.056h-640zM640 213.344l-153.6-42.656-174.944 230.4-140.8-170.656v81.056l145.056 200.544 192-243.2 153.6 89.6 192-226.144v-17.056l-213.344 98.144z"  horiz-adv-x="1024" />

    
    <glyph glyph-name="liucun" unicode="&#60991;" d="M170.656 554.656h170.656V725.312H170.656v-170.656z m0-512h170.656v170.656H170.656v-170.656z m0 256h170.656v170.656H170.656v-170.656z m256 0h170.656v170.656h-170.656v-170.656z m256 426.688v-170.656h170.656V725.344h-170.656z m-256-170.688h170.656V725.312h-170.656v-170.656z"  horiz-adv-x="1024" />

    
    <glyph glyph-name="loudou" unicode="&#60992;" d="M42.656 725.344h938.656l-85.344-128h-768l-85.344 128z m256-426.688h426.656l-85.344-128h-256l-85.344 128z m128-213.312h170.656l-85.344-128-85.344 128zM170.656 512h682.656l-85.344-128h-512l-85.344 128z"  horiz-adv-x="1024" />

    
    <glyph glyph-name="riqifanwei" unicode="&#60993;" d="M298.656 426.656H384v-85.344H298.656v85.344z m640-469.312H85.312v768h170.656V810.688h85.344v-85.344h341.344V810.688H768v-85.344h170.656v-768z m-768 597.312h682.656V640H170.656v-85.344z m682.688-512V469.312H170.688v-426.656h682.656zM640 341.344h85.344v85.344H640v-85.344z m-170.656 0h85.344v85.344h-85.344v-85.344z"  horiz-adv-x="1024" />

    
    <glyph glyph-name="rizhouyue" unicode="&#60994;" d="M0 298.656h1024v-341.344H0V298.656z m85.344-85.312v-170.656h853.344v170.656H85.344z m213.312 0H384v-170.656H298.656v170.656z m341.344 0h85.344v-170.656H640v170.656zM298.528 725.056v-340.576H249.152v31.584H98.624v-31.584H42.816V725.056h255.68z m-199.872-255.712h150.528V542.72H98.656v-73.376z m0 127.808h150.528V661.504H98.656v-64.352zM981.024 725.344v-340.544h-49.376v89.888H781.12v-89.888h-55.808V725.376h255.68z m-199.904-197.408h150.528v39.136H781.12v-39.136z m0 93.568h150.528V661.792H781.12v-40.288zM492.192 656.384h45.28v-17.088h49.472V605.44h-49.472v-14.432h49.472v-33.152H444.16V591.008h48V605.44h-48V639.296h48v17.088z m174.624 68.832v-334.72h-53.44V663.552h-195.232v-102.4c-0.672-69.984-12.96-126.976-36.864-170.656l-39.232 24.576c18.432 37.536 28 85.344 28.672 143.36V725.216h296.128z m-222.656-190.656h142.784v-98.784H444.16v98.784z m103.424-63.968v30.048H480.32v-30.048h67.264z"  horiz-adv-x="1024" />

    
    <glyph glyph-name="shuipingrongqi" unicode="&#60995;" d="M128 725.344h768v-298.656H128V725.344zM810.656 512V640H213.312v-128h597.344zM128 341.344h768v-298.656H128v298.656zM810.656 128v128H213.312v-128h597.344z"  horiz-adv-x="1024" />

    
    <glyph glyph-name="wenben" unicode="&#60996;" d="M170.656 768v-128H448v-640h128V640h277.344V768z"  horiz-adv-x="1024" />

    
    <glyph glyph-name="xiazaibangzhu" unicode="&#60997;" d="M768 499.2V640l-170.656 170.656h-512v-853.344h443.744c46.944-25.6 98.144-42.656 153.6-42.656 166.4 0 298.656 132.256 298.656 298.656 0 136.544-89.6 247.456-213.344 285.856zM170.656 42.656V725.312h384v-128h128v-85.344A296.8 296.8 0 0 1 384 213.312c0-64 21.344-123.744 55.456-170.656h-268.8z m593.088-25.6c-25.6-12.8-51.2-17.056-81.056-17.056-46.944 0-89.6 17.056-128 42.656-51.2 38.4-85.344 102.4-85.344 170.656 0 119.456 93.856 213.344 213.344 213.344 29.856 0 59.744-8.544 85.344-17.056 76.8-34.144 128-106.656 128-196.256s-55.456-166.4-132.256-196.256zM725.344 341.344H640v-128h-85.344l128-128 128 128h-85.344z"  horiz-adv-x="1024" />

    
    <glyph glyph-name="xialacaidan" unicode="&#60998;" d="M1024 682.656H0V85.44h1024V682.656zM85.312 170.4V597.312h853.344v-426.912H85.312z m701.344 146.24l-103.136 152.864h213.504l-110.368-152.864z m-146.56 280.864v-427.296H555.2V597.536l84.896-0.032z"  horiz-adv-x="1024" />

    
    <glyph glyph-name="tongjizhaiyao" unicode="&#60999;" d="M85.344 42.656h853.344v-85.344H85.344v85.344zM256 213.344H164.576V617.888H85.312V707.328l170.656 18.016v-512z m341.344 0H350.4V289.6l109.312 170.56c14.624 23.584 25.376 44.608 32.192 63.104s10.24 34.56 10.24 48.192c0 19.648-3.104 35.2-9.28 46.624s-16.096 17.152-29.76 17.152c-12.864 0-22.816-7.456-29.888-22.368s-10.624-33.92-10.624-57.024h-80.768l-0.48 2.08c-0.8 46.688 10.016 86.272 32.448 118.72s52.224 48.704 89.312 48.704c38.88 0 68.896-13.568 90.048-40.736s31.712-64.544 31.712-112.128c0-31.904-5.856-60.128-17.568-84.768s-33.184-60.96-64.416-109.024l-43.2-73.504 0.48-1.728h137.12v-90.144z m164.832 304.192c14.784 0 26.176 5.568 34.144 16.736s11.936 26.656 11.936 46.496c0 15.488-4.064 28.64-12.192 39.488s-19.104 16.224-32.896 16.224c-10.4 0-19.232-4.256-26.464-12.832s-10.848-19.776-10.848-33.664h-79.968l-0.48 2.048c-0.96 39.648 10.112 71.776 33.28 96.384s51.328 36.928 84.48 36.928c38.528 0 69.344-12.352 92.512-37.088s34.752-59.744 34.752-105.088c0-22.56-4.864-43.296-14.624-62.208s-23.008-33.824-39.744-44.768c19.168-9.792 33.952-24.544 44.352-44.256s15.616-43.68 15.616-71.936c0-45.568-12.48-81.408-37.408-107.488s-56.768-39.136-95.424-39.136c-33.472 0-62.56 12.256-87.264 36.736s-36.64 60-35.84 106.464l0.48 2.048h80.192c0-16.192 3.968-29.632 11.936-40.32s18.112-16.064 30.464-16.064c14.784 0 26.944 5.76 36.448 17.248s14.272 25.792 14.272 42.88c0 24.16-4.512 41.76-13.536 52.8s-21.728 16.576-38.144 16.576H723.2v85.792h39.008z"  horiz-adv-x="1024" />

    
    <glyph glyph-name="xiantu" unicode="&#61000;" d="M243.2 85.344L183.456 140.8l285.856 302.944 140.8-123.744 251.744 302.944 68.256-51.2-307.2-371.2-149.344 128zM170.656 42.656h768v-85.344H85.312V810.656h85.344v-768z"  horiz-adv-x="1024" />

    
    <glyph glyph-name="zhibiao" unicode="&#61001;" d="M230.4 477.856h85.344L273.088 588.8zM42.656 42.656h938.656v-85.344H42.656v85.344zM42.656 768v-554.656h938.656V768H42.656z m320-426.656l-25.6 76.8h-128l-29.856-76.8H110.944L230.4 652.8h81.056l119.456-311.456h-68.256zM896 298.656H512v384h384v-384zM802.144 358.4c21.344 12.8 29.856 38.4 29.856 68.256 0 21.344-4.256 38.4-12.8 46.944-8.544 12.8-25.6 21.344-46.944 25.6 17.056 4.256 25.6 12.8 34.144 25.6s12.8 25.6 12.8 42.656c0 21.344-8.544 42.656-25.6 55.456s-42.656 21.344-72.544 21.344h-140.8v-302.944h145.056c29.856 0 55.456 4.256 76.8 17.056zM640 597.344h59.744c21.344 0 34.144-4.256 42.656-8.544s12.8-17.056 12.8-25.6c0-17.056-4.256-25.6-12.8-29.856-8.544-8.544-25.6-8.544-46.944-8.544H640V597.344z m0-204.8v76.8h64c21.344 0 38.4-4.256 46.944-12.8 12.8-8.544 17.056-17.056 17.056-25.6 0-12.8-4.256-21.344-17.056-29.856-8.544-4.256-25.6-8.544-46.944-8.544h-64z"  horiz-adv-x="1024" />

    
    <glyph glyph-name="zhutu" unicode="&#61002;" d="M170.656 42.656h768v-85.344H85.312V810.656h85.344v-768zM682.656 469.344h128v-384h-128v384zM256 341.344h128v-256H256v256zM469.344 640h128v-554.656h-128V640z"  horiz-adv-x="1024" />

    


  </font>
</defs>
</svg>
