<?xml version="1.0" standalone="no"?>
<!DOCTYPE svg PUBLIC "-//W3C//DTD SVG 1.1//EN" "http://www.w3.org/Graphics/SVG/1.1/DTD/svg11.dtd" >
<svg xmlns="http://www.w3.org/2000/svg">
<metadata>Generated by IcoMoon</metadata>
<defs>
<font id="icomoon" horiz-adv-x="1024">
<font-face units-per-em="1024" ascent="960" descent="-64" />
<missing-glyph horiz-adv-x="1024" />
<glyph unicode="&#x20;" horiz-adv-x="512" d="" />
<glyph unicode="&#xe900;" glyph-name="table2" d="M64 0v896h896v-896h-896zM132.923 68.923h344.615v206.769h-344.615v-206.769zM546.462 68.923h344.615v206.769h-344.615v-206.769zM132.923 344.615h344.615v206.769h-344.615v-206.769zM546.462 344.615h344.615v206.769h-344.615v-206.769zM132.923 827.077v-206.769h344.615v206.762h68.923v-206.762h344.615v206.769h-758.154z" />
<glyph unicode="&#xe902;" glyph-name="table" d="M64 0v896h896v-896h-896zM132.923 68.923h344.615v206.769h-344.615v-206.769zM546.462 68.923h344.615v206.769h-344.615v-206.769zM132.923 344.615h344.615v206.769h-344.615v-206.769zM546.462 344.615h344.615v206.769h-344.615v-206.769zM132.923 827.077v-206.769h344.615v206.762h68.923v-206.762h344.615v206.769h-758.154z" />
<glyph unicode="&#xe903;" glyph-name="time" d="M170.667 245.333v85.333h170.667v-85.333h-170.667zM426.667 245.333v85.333h170.667v-85.333h-170.667zM682.667 245.333v85.333h170.667v-85.333h-170.667zM170.667 416v85.333h170.667v-85.333h-170.667zM426.667 416v85.333h170.667v-85.333h-170.667zM682.667 416v85.333h170.667v-85.333h-170.667zM85.333 74.667v512h853.333v-512h-853.333zM896 928h-85.333v-170.557h-85.333v170.557h-426.667v-170.557h-85.333v170.557h-85.333c-75.349 0-128-52.489-128-127.96l0.469-742.177c0-75.471 61.099-68.351 136.491-68.351h750.464c75.392 0 136.448-7.121 136.448 68.351l0.128 742.177c0 75.471-52.651 127.96-128 127.96v0z" />
<glyph unicode="&#xe904;" glyph-name="user" d="M512.002-64c282.75 0 511.998 229.234 511.998 512.008 0 282.77-229.248 511.992-511.998 511.992-282.764 0-512.002-229.222-512.002-511.992 0-282.775 229.238-512.008 512.002-512.008zM338.74 154.859l-39.796 23.121 120.090-48.605-80.293 25.484zM421.219 408.452v0.407l13.183 2.493c3.020 9.574 4.768 16.963 5.587 21.851-6.469 3.589-10.53 7.059-17.227 15.644-8.387 10.81-30.682 51.616-36.204 81.289-5.359 12.106-15.368 36.196-16.405 49.757-0.819 10.789 2.509 19.449 7.528 25.861-7.577 49.708 0.433 89.94 23.889 119.696 25.055 31.825 61.212 43.45 86.693 47.611v1.541l23.349 0.714 25.699-1.336c77.964-5.76 98.288-21.395 107.045-34.697 0.384-0.591 0.749-1.192 1.080-1.776h19.098l-23.179-42.522c9.594-24.92 11.821-54.668 6.711-88.729 5.366-6.656 8.715-15.597 7.884-26.354-1.047-13.57-11.046-37.66-16.405-49.766-5.531-29.701-27.787-70.481-36.192-81.261-6.718-8.613-10.755-12.062-17.236-15.672 0.87-5.169 2.762-12.954 5.855-22.689l12.882-2.125v-1.222c102.372-21.32 169.846-75.694 169.846-138.486 0-9.339-1.513-18.716-4.496-27.892l-9.862-21.364c-2.955-4.843-5.955-9.067-9.248-13.103l-16.585-17.347-3.309-2.877c-4.456-3.745-8.633-6.952-13.045-10.054l-31.422-18.465c-3.228-1.601-5.708-2.779-8.273-3.924l-59.16-20.184-7.342 20.799 5.219-21.318-79.7-11.497-3.795 21.776 1.129-21.914-24.894-0.626-88.796 8.259-124.162 50.511-28.029 26.573c-1.382 1.715-2.15 2.711-2.906 3.724l-4.891 6.998h-0.021l-0.584 0.936c-9.278 14.68-14.409 30.241-15.268 46.243-0.095 1.494-0.142 3.112-0.142 4.745 0 64.521 69.982 119.4 176.101 139.771z" />
<glyph unicode="&#xe905;" glyph-name="zh" d="M512-64c-282.77 0-512 229.23-512 512s229.23 512 512 512c282.77 0 512-229.23 512-512s-229.23-512-512-512zM512-32c265.097 0 480 214.903 480 480s-214.903 480-480 480c-265.097 0-480-214.903-480-480s214.903-480 480-480zM454.95 526.398h46.518c-2.612 18.607-8.161 35.011-16.649 49.211s-19.097 26.034-31.828 35.501c-12.731 9.467-27.258 16.649-43.58 21.545s-33.624 7.345-51.904 7.345c-26.768 0-50.517-4.815-71.246-14.445s-38.031-22.769-51.904-39.418c-13.874-16.649-24.402-36.153-31.583-58.515s-10.773-46.273-10.773-71.736c0-25.463 3.346-49.293 10.038-71.491s16.73-41.458 30.114-57.78c13.384-16.322 30.196-29.135 50.435-38.439s43.906-13.955 71.001-13.955c44.723 0 79.978 12.241 105.768 36.725s40.969 58.76 45.539 102.83h-46.518c-0.979-14.364-3.917-27.748-8.814-40.152s-11.67-23.096-20.321-32.073c-8.651-8.977-18.934-15.996-30.849-21.056s-25.544-7.59-40.887-7.59c-20.892 0-38.847 3.917-53.863 11.752s-27.34 18.362-36.97 31.583c-9.63 13.221-16.73 28.727-21.3 46.518s-6.855 36.643-6.855 56.556c0 18.281 2.285 35.909 6.855 52.884s11.67 32.073 21.3 45.294c9.63 13.221 21.872 23.749 36.725 31.583s32.726 11.752 53.618 11.752c24.483 0 45.62-6.202 63.412-18.607s29.298-31.012 34.521-55.822zM521.381 631.676v-349.62h44.070v280.578h0.979l182.645-280.578h50.925v349.62h-44.070v-283.516h-0.979l-184.114 283.516h-49.456z" />
<glyph unicode="&#xe906;" glyph-name="activity" d="M510.998 163.728c-158.624 0-287.648 129.024-287.648 287.648s129.024 287.648 287.648 287.648c158.624 0 287.648-129.024 287.648-287.648s-129.024-287.648-287.648-287.648zM510.998 777.424c-180.064 0-326.048-145.984-326.048-326.048s145.984-326.048 326.048-326.048c180.064 0 326.048 145.984 326.048 326.048s-145.984 326.048-326.048 326.048zM510.998 615.962c31.776 0 57.6-25.824 57.6-57.6s-25.824-57.6-57.6-57.6c-31.744 0-57.6 25.824-57.6 57.6s25.856 57.6 57.6 57.6zM510.998 462.362c53.024 0 96 42.976 96 96s-42.976 96-96 96c-53.024 0-96-42.976-96-96s42.976-96 96-96zM390.826 286.528c0.576 4.256 0.512 8.672 1.536 12.768 12.96 53.472 61.248 93.312 118.624 93.312 57.216 0 105.344-39.552 118.528-92.704 1.088-4.384 1.856-8.832 2.464-13.376h-241.152zM666.666 309.664c-17.472 69.696-80.544 121.344-155.68 121.344-76.608 0-140.704-53.728-156.64-125.568-1.376-6.176-2.304-12.48-2.944-18.912-0.512-5.28-0.864-10.592-0.864-16 0-5.44 0.768-10.688 1.312-16h318.72c0.512 5.28 0.896 10.592 0.896 16s-0.448 10.72-0.96 16c-0.8 7.872-1.952 15.648-3.84 23.136v0zM530.202 42.752v34.368c0 10.592-8.608 19.2-19.2 19.2-10.624 0-19.2-8.608-19.2-19.2v-34.368c-210.496 9.824-379.584 178.912-389.44 389.408h32.032c10.592 0 19.2 8.608 19.2 19.232 0 10.592-8.608 19.2-19.2 19.2h-32.032c9.856 210.496 178.944 379.584 389.44 389.408v-34.4c0-10.592 8.576-19.2 19.2-19.2 10.592 0 19.2 8.608 19.2 19.2v34.4c210.496-9.824 379.584-178.912 389.408-389.408h-31.808c-10.592 0-19.168-8.608-19.168-19.2 0-10.624 8.576-19.232 19.168-19.232h31.808c-9.824-210.496-178.912-379.584-389.408-389.408zM1003.002 470.592h-44.96c-9.856 232.032-195.808 417.952-427.84 427.808v42.4c0 10.624-8.608 19.2-19.2 19.2-10.624 0-19.2-8.576-19.2-19.2v-42.4c-232.032-9.856-417.984-195.776-427.84-427.808h-44.768c-10.592 0-19.2-8.608-19.2-19.2 0-10.624 8.608-19.232 19.2-19.232h44.768c9.856-232 195.808-417.952 427.84-427.808v-42.4c0-10.592 8.576-19.2 19.2-19.2 10.592 0 19.2 8.608 19.2 19.2v42.4c232.032 9.856 417.984 195.808 427.84 427.808h44.96c10.592 0 19.2 8.608 19.2 19.232 0 10.592-8.608 19.2-19.2 19.2z" />
<glyph unicode="&#xe907;" glyph-name="add" d="M585.143 521.143v438.857h-146.286v-438.857h-438.857v-146.286h438.857v-438.857h146.286v438.857h438.857v146.286h-438.857z" />
<glyph unicode="&#xe908;" glyph-name="analyze" d="M952.864 416.864c-17.152 0-31.136 13.952-31.136 31.136 0 17.152 13.984 31.136 31.136 31.136s31.136-13.984 31.136-31.136c0-17.184-13.984-31.136-31.136-31.136zM563.008 448c0-30.848-25.088-55.936-55.936-55.936s-55.936 25.088-55.936 55.936c0 30.848 25.088 55.936 55.936 55.936s55.936-25.088 55.936-55.936zM680.704 282.976c-11.616 26.752-29.856 50.656-53.248 69.184-15.616 12.352-33.184 22.016-51.904 28.768 16.96 17.312 27.456 40.992 27.456 67.072 0 52.896-43.040 95.936-95.936 95.936s-95.936-43.040-95.936-95.936c0-27.488 11.616-52.256 30.176-69.76-18.048-7.36-34.944-17.536-49.888-30.304-8.416-7.136-9.408-19.776-2.24-28.192 7.168-8.384 19.776-9.408 28.192-2.24 26.112 22.304 59.712 34.56 94.624 34.56 62.528 0 117.952-39.968 136.448-96.64-38.56-27.424-85.664-43.552-136.448-43.552-130.208 0-236.128 105.92-236.128 236.128 0 130.176 105.92 236.096 236.128 236.096 130.176 0 236.096-105.92 236.096-236.096 0-64.16-25.728-122.432-67.392-165.024zM543.136 7.136c0-17.184-13.984-31.136-31.136-31.136-17.184 0-31.136 13.952-31.136 31.136 0 17.152 13.952 31.104 31.136 31.104 17.152 0 31.136-13.952 31.136-31.104zM480.864 888.864c0 17.152 13.952 31.136 31.136 31.136 17.152 0 31.136-13.984 31.136-31.136s-13.984-31.136-31.136-31.136c-17.184 0-31.136 13.984-31.136 31.136zM801.728 158.272c0 0 0 0 0 0s0 0 0 0c6.080 6.048 14.048 9.088 22.016 9.088s15.936-3.040 22.016-9.088c12.128-12.128 12.128-31.904 0-44.032-5.888-5.888-13.696-9.12-22.016-9.12s-16.128 3.232-22.016 9.12c-12.128 12.128-12.128 31.872 0 44.032zM222.272 114.24c-5.888-5.888-13.696-9.12-22.016-9.12s-16.128 3.232-22.016 9.12c-12.128 12.128-12.128 31.872 0 44.032 6.080 6.048 14.048 9.088 22.016 9.088s15.936-3.040 22.016-9.088c12.128-12.16 12.128-31.904 0-44.032zM71.136 416.864c-17.184 0-31.136 13.952-31.136 31.136 0 17.152 13.952 31.136 31.136 31.136 17.152 0 31.136-13.984 31.136-31.136 0-17.184-13.984-31.136-31.136-31.136zM222.272 737.728c-12.16-12.16-31.904-12.16-44.032 0-12.128 12.128-12.128 31.872 0 44.032 6.080 6.048 14.048 9.088 22.016 9.088s15.936-3.040 22.016-9.088c12.128-12.16 12.128-31.904 0-44.032zM801.728 781.76c6.048 6.048 14.048 9.088 22.016 9.088s15.936-3.040 22.016-9.088c12.128-12.16 12.128-31.904 0-44.032-5.888-5.888-13.696-9.12-22.016-9.12s-16.128 3.232-22.016 9.12c0 0 0 0 0 0s0 0 0 0c-5.888 5.888-9.12 13.696-9.12 22.016s3.232 16.128 9.12 22.016zM952.864 519.136c-32.288 0-59.584-21.632-68.256-51.136h-97.248c-4.384 61.12-28.736 116.768-66.592 160.48l68.832 68.832c10.336-5.664 22.016-8.704 34.144-8.704 19.008 0 36.864 7.392 50.304 20.832 13.408 13.44 20.832 31.296 20.832 50.304s-7.424 36.864-20.832 50.304c-13.44 13.408-31.296 20.832-50.304 20.832s-36.864-7.424-50.304-20.832c-13.44-13.44-20.832-31.296-20.832-50.304 0-12.128 3.040-23.808 8.704-34.144l-68.832-68.832c-43.712 37.856-99.36 62.208-160.48 66.592v97.248c29.504 8.672 51.136 35.968 51.136 68.256 0 39.232-31.904 71.136-71.136 71.136s-71.136-31.904-71.136-71.136c0-32.288 21.632-59.584 51.136-68.256v-97.248c-61.12-4.384-116.8-28.736-160.512-66.592l-68.8 68.832c5.664 10.336 8.704 22.016 8.704 34.144 0 19.008-7.392 36.864-20.832 50.304-13.44 13.408-31.296 20.832-50.304 20.832s-36.864-7.424-50.304-20.832c-13.44-13.44-20.832-31.296-20.832-50.304s7.392-36.864 20.832-50.304c13.44-13.44 31.296-20.832 50.304-20.832 12.128 0 23.776 3.040 34.144 8.704l68.832-68.832c-37.856-43.712-62.208-99.36-66.624-160.48h-97.248c-8.64 29.504-35.968 51.136-68.224 51.136-39.232 0-71.136-31.904-71.136-71.136s31.904-71.136 71.136-71.136c32.256 0 59.584 21.632 68.224 51.136h97.248c4.416-61.12 28.768-116.8 66.624-160.512l-68.864-68.832c-27.008 14.752-61.6 10.72-84.416-12.096-27.744-27.744-27.744-72.864 0-100.608 13.44-13.44 31.296-20.832 50.304-20.832s36.864 7.392 50.304 20.832c22.816 22.816 26.848 57.408 12.096 84.416l68.864 68.864c43.68-37.856 99.36-62.208 160.48-66.624v-97.248c-29.504-8.64-51.136-35.968-51.136-68.224 0-39.232 31.904-71.136 71.136-71.136s71.136 31.904 71.136 71.136c0 32.256-21.632 59.584-51.136 68.224v97.248c56.384 4.064 108.16 25.12 150.176 58.112 1.184 0.768 2.24 1.632 3.232 2.592 2.4 1.92 4.768 3.904 7.072 5.92l68.864-68.864c-14.752-27.008-10.72-61.6 12.096-84.416 13.44-13.44 31.296-20.832 50.304-20.832 18.976 0 36.864 7.392 50.272 20.832 27.744 27.744 27.744 72.864 0 100.608-22.816 22.816-57.408 26.848-84.384 12.096l-68.864 68.832c37.856 43.712 62.208 99.392 66.592 160.512h97.248c8.672-29.504 35.968-51.136 68.256-51.136 39.232 0 71.136 31.904 71.136 71.136s-31.904 71.136-71.136 71.136z" />
<glyph unicode="&#xe909;" glyph-name="car" d="M96 205.474c0-47.427 21.019-90.004 53.895-119.646v-95.933c0-29.642 24.253-53.895 53.895-53.895h53.895c29.642 0 53.895 24.253 53.895 53.895v53.895h431.158v-53.895c0-29.642 24.253-53.895 53.895-53.895h53.895c29.642 0 53.895 24.253 53.895 53.895v95.933c32.876 29.642 53.895 72.219 53.895 119.646v538.947c0 188.632-192.943 215.579-431.158 215.579s-431.158-26.947-431.158-215.579v-538.947zM284.632 151.579c-44.733 0-80.842 36.109-80.842 80.842s36.109 80.842 80.842 80.842c44.733 0 80.842-36.109 80.842-80.842s-36.109-80.842-80.842-80.842v0zM769.684 151.579c-44.733 0-80.842 36.109-80.842 80.842s36.109 80.842 80.842 80.842c44.733 0 80.842-36.109 80.842-80.842s-36.109-80.842-80.842-80.842v0zM850.526 474.947h-646.737v269.474h646.737v-269.474z" />
<glyph unicode="&#xe90a;" glyph-name="catering" d="M287.049 381.394l151.558 151.558-375.948 375.413c-83.544-83.544-83.544-219.035 0-303.115l224.391-223.855zM650.144 478.326c81.937-38.023 197.078-11.246 282.229 73.904 102.288 102.288 122.103 249.026 43.379 327.75-78.189 78.189-224.926 58.909-327.75-43.379-85.151-85.151-111.928-200.292-73.904-282.229l-522.686-522.686 75.511-75.511 368.986 367.915 368.451-368.451 75.511 75.511-368.451 368.451 78.724 78.724z" />
<glyph unicode="&#xe90b;" glyph-name="close" d="M0 50.193l113.768-113.619 398.232 398.094 398.232-398.094 113.768 113.619-398.232 398.094 398.232 398.094-113.768 113.619-398.232-398.094-398.232 398.094-113.768-113.619 398.232-398.094z" />
<glyph unicode="&#xe90c;" glyph-name="cosmetic" d="M488.397 189.796c-76.584 0-138.163 64.417-138.163 143.14 0 78.729 62.096 143.14 138.163 143.14 76.584 0 138.161-64.411 138.161-143.14 0-78.723-62.095-143.14-138.161-143.14v0zM886.843 582.333c0 47.341-36.74 85.879-81.761 85.879h-222.509v60.563h55.37c7.762 0 11.902 5.503 11.902 13.761v207.006c0 7.707-4.658 10.458-11.902 10.458h-286.672c-7.763 0-26.905-2.751-26.905-10.458v-33.587h-128.331c-7.763 0-11.385-8.253-11.385-15.961v-30.284c0-7.707 4.14-19.82 11.385-19.82h128.331v-107.354c0-7.707 19.66-13.761 26.905-13.761h50.71v-60.563h-206.464c-45.021 0-81.756-38.538-81.756-85.879l-81.761-560.448c0-47.348 36.74-85.885 81.761-85.885h767.387c45.021 0 81.761 38.536 81.761 85.885l-76.066 560.448z" />
<glyph unicode="&#xe90d;" glyph-name="curve" d="M128 64v259.216l193.673 193.673c9.533-3.172 19.729-4.889 30.327-4.889 15.249 0 29.667 3.555 42.471 9.882l127.411-127.411c-6.327-12.804-9.882-27.223-9.882-42.471 0-53.019 42.981-96 96-96s96 42.981 96 96c0 15.249-3.555 29.667-9.882 42.471l127.411 127.411c12.804-6.327 27.223-9.882 42.471-9.882 53.019 0 96 42.981 96 96s-42.981 96-96 96c-53.019 0-96-42.981-96-96 0-14.391 3.167-28.043 8.841-40.296l-128.545-128.545c-12.253 5.674-25.905 8.841-40.296 8.841s-28.043-3.167-40.296-8.841l-128.545 128.545c5.674 12.253 8.841 25.905 8.841 40.296 0 53.019-42.981 96-96 96s-96-42.981-96-96c0-18.9 5.462-36.525 14.893-51.381l-142.893-142.893v482.274h-64v-896h896v64h-832z" />
<glyph unicode="&#xe90e;" glyph-name="del" d="M909.714 764.952h97.524v-97.524h-97.524v-633.905c0-53.882-43.691-97.524-97.524-97.524h-585.143c-53.833 0-97.524 43.642-97.524 97.524v633.905h-97.524v97.524h292.571v97.524c0 53.833 43.691 97.524 97.524 97.524h195.048c53.833 0 97.524-43.691 97.524-97.524v-97.524h195.048zM812.19 33.524v633.905h-585.143v-633.905h585.143zM422.095 764.952h195.048v97.524h-195.048v-97.524zM632.396 129.999v341.333h89.381v-341.333h-89.381zM469.58 129.999v439.881h89.381v-439.881h-89.381zM306.764 123.904v384h89.381v-384h-89.381z" />
<glyph unicode="&#xe90f;" glyph-name="download" d="M896.003-63.99h-768.006c-70.691 0-127.997 57.306-127.997 128v767.99c0 70.707 57.306 128 127.997 128h768.006c70.691 0 127.997-57.293 127.997-128v-767.99c0-70.694-57.306-128-127.997-128zM896.003 768.010c0 35.341-28.653 63.99-64 63.99h-640.005c-35.344 0-64-28.65-64-63.99v-448.003c0-35.347 28.656-63.99 64-63.99h64c63.6 0 64.003-64 64.003-64v-64.016c0-35.325 28.65-63.99 63.994-63.99h256.004c35.351 0 64.003 28.666 64.003 63.99v64.016c0 0 8.662 64 63.994 64h64.007c35.347 0 64 28.643 64 63.99v448.003zM255.998 448.013h191.997v256h128.004v-256h191.997l-255.994-255.997-256.004 255.997z" />
<glyph unicode="&#xe910;" glyph-name="drink" d="M921.6 896h-819.2v-512c0-113.152 91.648-204.8 204.8-204.8h307.2c113.152 0 204.8 91.648 204.8 204.8v153.6h102.4c56.832 0 102.4 45.568 102.4 102.4v153.6c0 56.832-45.568 102.4-102.4 102.4v0zM921.6 640h-102.4v153.6h102.4v-153.6zM0-25.6h921.6v102.4h-921.6v-102.4z" />
<glyph unicode="&#xe913;" glyph-name="education" d="M186.182 390.167v-186.182l325.818-177.804 325.818 177.804v186.182l-325.818-177.804-325.818 177.804zM512 864l-512-279.273 512-279.273 418.909 228.538v-321.629h93.091v372.364l-512 279.273z" />
<glyph unicode="&#xe914;" glyph-name="effect" d="M755.424 154.464v426.688h63.072v-426.688h-63.072zM574.016 154.464v567.744h61.536v-567.744h-61.536zM391.040 154.464v315.008h63.072v-315.008h-63.072zM209.632 154.464v196.288h61.536v-196.288h-61.536zM1018.208 148.768l-71.488 68.64c-7.488 7.168-19.392 6.944-26.592-0.544-7.2-7.52-6.944-19.424 0.544-26.624l37.312-35.776h-101.856v445.472c0 10.4-8.416 18.816-18.816 18.816h-100.672c-10.4 0-18.816-8.416-18.816-18.816v-445.472h-44.672v586.528c0 10.4-8.416 18.816-18.816 18.816h-99.136c-10.368 0-18.784-8.416-18.784-18.816v-586.528h-44.672v333.824c0 10.368-8.416 18.816-18.816 18.816h-100.672c-10.4 0-18.816-8.448-18.816-18.816v-333.824h-44.672v215.104c0 10.368-8.416 18.816-18.816 18.816h-99.136c-10.368 0-18.784-8.448-18.784-18.816v-215.104h-63.488v643.008l38.432-41.28c3.712-3.968 8.736-5.984 13.792-5.984 4.576 0 9.184 1.664 12.8 5.024 7.584 7.104 8.032 18.976 0.928 26.592l-70.944 76.192c-3.584 3.84-8.544 5.984-13.76 5.984s-10.208-2.176-13.76-5.984l-70.976-76.192c-7.104-7.616-6.656-19.488 0.928-26.592 7.616-7.072 19.52-6.656 26.592 0.96l38.368 41.184v-661.728c0-10.4 8.416-18.816 18.784-18.816h869.184l-38.24-36.672c-7.488-7.2-7.744-19.104-0.544-26.592 3.68-3.84 8.64-5.792 13.568-5.792 4.672 0 9.376 1.728 13.024 5.248l71.488 68.608c3.712 3.552 5.792 8.448 5.792 13.568s-2.080 10.016-5.792 13.568v0z" />
<glyph unicode="&#xe915;" glyph-name="en" d="M512-64c-282.77 0-512 229.23-512 512s229.23 512 512 512c282.77 0 512-229.23 512-512s-229.23-512-512-512zM512-32c265.097 0 480 214.903 480 480s-214.903 480-480 480c-265.097 0-480-214.903-480-480s214.903-480 480-480zM210.603 642.901v-365.568h253.952v40.96h-205.312v126.464h189.952v40.96h-189.952v116.224h203.776v40.96h-252.416zM522.923 642.901v-365.568h46.080v293.376h1.024l190.976-293.376h53.248v365.568h-46.080v-296.448h-1.024l-192.512 296.448h-51.712z" />
<glyph unicode="&#xe916;" glyph-name="explore" d="M860.064 233.152c-49.504 29.632-102.88 53.312-159.52 69.632 8.864 40.768 13.76 82.912 14.944 126.016h205.12c-3.328-71.552-24.96-138.24-60.544-195.648v0zM583.136 44.992c48.48 65.568 85.376 139.936 107.84 220.576 52.16-15.232 101.408-37.056 147.2-64.288-61.184-80.704-151.328-138.016-255.040-156.288v0zM369.056 274.848c40 9.152 81.344 14.4 123.744 15.648v-251.136c-0.192 0-0.384 0.032-0.576 0.032-56.448 68.032-98.592 148.096-123.168 235.456v0zM185.792 201.28c45.472 27.040 94.272 48.768 146.048 63.968 22.432-80.416 59.264-154.624 107.584-220.032-103.104 18.528-192.704 75.712-253.632 156.064v0zM103.36 428.8h203.872c1.184-43.232 6.112-85.472 15.008-126.304-56.192-16.32-109.152-39.904-158.336-69.344-35.552 57.408-57.216 124.096-60.544 195.648v0zM175.488 680.896c47.648-27.232 98.848-48.736 152.832-63.872-12.352-48.128-19.648-98.208-21.088-149.856h-203.872c3.712 79.136 29.6 152.48 72.128 213.728v0zM439.424 850.752c-43.648-59.072-78.336-125.056-101.12-196.608-49.024 13.856-95.712 33.088-139.232 57.568 60.32 71.456 144.608 121.824 240.352 139.040v0zM492.8 856.608v-226.048c-40 1.184-79.168 5.696-117.056 13.952 25.312 78.272 65.056 150.112 116.48 212.064 0.192 0.032 0.384 0.032 0.576 0.032v0zM824.896 711.712c-43.84-24.64-90.944-44-140.384-57.856-22.784 71.744-57.6 137.92-101.376 197.12 96.32-16.96 181.152-67.456 241.76-139.264v0zM531.168 467.168v124.992c43.136 1.216 85.312 6.112 126.080 14.976 11.584-44.992 18.4-91.744 19.84-139.968h-145.92zM531.168 290.496c41.984-1.248 82.976-6.368 122.56-15.36-24.48-87.136-66.368-167.040-122.56-235.008v250.368zM531.168 855.84c51.168-61.856 90.72-133.536 115.904-211.648-37.504-8.064-76.288-12.448-115.904-13.632v225.28zM365.536 607.456c41.152-9.056 83.712-14.080 127.264-15.296v-124.992h-147.168c1.44 48.32 8.288 95.2 19.904 140.288v0zM345.632 428.8h147.168v-99.904c-45.728-1.28-90.272-6.944-133.312-16.832-8.224 37.76-12.672 76.832-13.856 116.736v0zM663.328 312.384c-42.688 9.696-86.848 15.264-132.16 16.512v99.904h145.92c-1.184-39.808-5.6-78.752-13.76-116.416v0zM920.608 467.168h-205.12c-1.44 51.552-8.704 101.504-20.992 149.536 54.4 15.168 106.016 36.736 154.016 64.192 42.496-61.248 68.416-134.592 72.096-213.728v0zM881.6 700.992c-7.328 10.688-15.040 21.088-23.232 31.072-74.912 91.2-185.152 151.968-309.76 162.080-7.040 0.576-14.144 0.832-21.28 1.056-5.152 0.192-10.176 0.8-15.328 0.8-5.6 0-11.008-0.64-16.544-0.864-7.168-0.256-14.336-0.48-21.408-1.056-124.064-10.432-233.792-71.136-308.416-162.016-8.224-9.984-15.904-20.384-23.232-31.072-49.408-72-78.4-159.072-78.4-252.992 0-86.304 24.8-166.592 67.072-234.944 6.784-11.008 14.048-21.664 21.728-32 74.56-100.16 189.664-168.096 321.248-179.168 7.072-0.576 14.24-0.8 21.408-1.056 5.536-0.224 10.944-0.832 16.544-0.832 5.184 0 10.208 0.576 15.328 0.768 7.136 0.224 14.24 0.512 21.28 1.056 132.128 10.72 247.776 78.752 322.56 179.232 7.712 10.336 14.944 20.992 21.76 32 42.24 68.352 67.072 148.64 67.072 234.944 0 93.92-29.024 180.992-78.4 252.992v0z" />
<glyph unicode="&#xe917;" glyph-name="export" d="M1020.48 524.956c0 1.184-0.416 2.304-0.64 3.456-0.256 1.216-0.32 2.4-0.768 3.552-0.064 0.096-0.032 0.224-0.096 0.352-0.384 0.896-1.152 1.632-1.664 2.496-0.192 0.288-0.384 0.544-0.576 0.832-0.576 0.8-0.832 1.696-1.536 2.432l-214.112 224c-7.328 7.68-19.488 7.904-27.168 0.608-7.648-7.328-7.936-19.488-0.608-27.136l183.104-191.552h-425.216c-10.592 0-19.2-8.576-19.2-19.2 0-10.592 8.608-19.2 19.2-19.2h425.216l-183.104-191.52c-7.328-7.68-7.040-19.84 0.608-27.136 3.712-3.584 8.512-5.312 13.28-5.312 5.056 0 10.080 1.952 13.888 5.888l214.112 224.032c0.704 0.704 0.96 1.6 1.536 2.4 0.192 0.288 0.384 0.576 0.576 0.864 0.512 0.832 1.28 1.568 1.664 2.496 0.064 0.096 0.032 0.224 0.096 0.32 0.448 1.152 0.512 2.368 0.768 3.552 0.224 1.152 0.64 2.272 0.64 3.456 0 0.064 0.032 0.096 0.032 0.16s-0.032 0.096-0.032 0.16zM410.048 102.4v-118.208l-371.648 108.608v815.968l371.648-108.576v-697.792zM652.8 385.312v0c-10.592 0-19.168-8.576-19.2-19.168v0-263.744h-185.152v702.592c0 14.208-9.376 26.72-23.040 30.688l-293.984 85.92h502.176v-261.536h0.064c0.224-10.4 8.672-18.816 19.136-18.816v0c10.464 0 18.88 8.416 19.104 18.816h0.096v267.936c0 17.664-14.336 32-32 32h-608c-17.664 0-32-14.336-32-32v-840c0-14.24 9.376-26.752 23.008-30.72l384.448-112.352c3.040-0.864 6.080-1.28 9.056-1.28 17.056 0 31.936 13.824 31.936 32v88.352h191.552c17.664 0 32 14.336 32 32v270.144c-0.032 10.592-8.608 19.168-19.2 19.168v0z" />
<glyph unicode="&#xe918;" glyph-name="house" d="M512 691.2v204.8h-512v-921.6h1024v716.8h-512zM204.8 76.8h-102.4v102.4h102.4v-102.4zM204.8 281.6h-102.4v102.4h102.4v-102.4zM204.8 486.4h-102.4v102.4h102.4v-102.4zM204.8 691.2h-102.4v102.4h102.4v-102.4zM409.6 76.8h-102.4v102.4h102.4v-102.4zM409.6 281.6h-102.4v102.4h102.4v-102.4zM409.6 486.4h-102.4v102.4h102.4v-102.4zM409.6 691.2h-102.4v102.4h102.4v-102.4zM921.6 76.8h-409.6v102.4h102.4v102.4h-102.4v102.4h102.4v102.4h-102.4v102.4h409.6v-512zM819.2 486.4h-102.4v-102.4h102.4v102.4zM819.2 281.6h-102.4v-102.4h102.4v102.4z" />
<glyph unicode="&#xe919;" glyph-name="info" d="M1010.199 865.127c18.401-18.401 18.401-48.27 0-67.204l-84.806-84.539-148.010 148.010 84.806 84.806c18.401 18.401 48.27 18.401 66.938 0l81.072-81.072zM752.316 836.059l145.343-145.076-470.964-461.363-170.678-37.602 37.602 170.678 458.697 473.364zM853.389 448.033l85.339 85.339v-534.968c0-34.402-27.735-62.404-62.137-62.404h-814.186c-34.402 0-62.404 28.002-62.404 62.404v814.186c0 34.669 27.735 62.137 62.404 62.137h534.968l-85.339-85.339h-398.426c-15.734 0-28.269-13.334-28.269-26.668v-714.713c0-12.267 11.201-26.668 26.135-26.668 0 0 703.246-0.267 717.38-0.267s24.535 13.334 24.535 26.935v400.026z" />
<glyph unicode="&#xe91a;" glyph-name="internet" d="M814.080 172.032c-13.312 41.472-51.2 71.168-97.28 71.168h-51.2v153.6c0 28.16-23.040 51.2-51.2 51.2h-307.2v102.4h102.4c28.16 0 51.2 23.040 51.2 51.2v102.4h102.4c56.32 0 102.4 46.080 102.4 102.4v20.838c134.963-54.477 233.779-178.637 252.467-328.038h-0.563c2.048-16.896 4.096-33.792 4.096-51.2 0-106.496-40.96-203.264-107.52-275.968v0zM460.8 41.984c-202.24 25.088-358.4 197.12-358.4 406.016 0 31.744 4.096 61.952 10.752 91.648l245.248-245.248v-51.2c0-56.32 46.080-102.4 102.4-102.4v-98.816zM1021.44 499.2h-0.051c-20.838 209.664-168.448 382.003-364.954 439.757-11.725 3.482-23.603 6.554-35.584 9.165-4.762 1.024-9.472 1.894-14.285 2.765-11.11 2.099-22.323 3.789-33.638 5.171-4.506 0.512-8.96 1.126-13.517 1.536-15.616 1.434-31.334 2.406-47.411 2.406-282.624 0-512-229.376-512-512s229.376-512 512-512c282.624 0 512 229.376 512 512 0 17.408-1.024 34.304-2.56 51.2v0z" />
<glyph unicode="&#xe91b;" glyph-name="link" d="M730.179 304.372l-72.529 72.529 252.342 252.342-218.096 217.516-252.342-252.342-72.529 72.529 252.342 252.342c40.036 40.036 104.914 40.072 144.986 0.073l217.987-217.624c40.145-40.072 40.145-105.059 0.073-145.131l-252.234-252.234zM657.561 231.755l-254.167-254.167c-40.072-40.072-105.059-40.072-145.131 0.073l-217.624 217.987c-40 40.072-39.964 104.95 0.073 144.986l254.276 254.276 72.529-72.529-254.276-254.276 217.516-218.096 254.276 254.276 72.529-72.529zM619.527 629.354l72.529-72.529-290.118-290.118-72.529 72.529 290.118 290.118z" />
<glyph unicode="&#xe91c;" glyph-name="manage" d="M700.032 412.294c-18.881-94.083-104.781-159.673-200.855-153.364-96.079 6.308-172.601 82.558-178.932 178.295-6.331 95.733 59.494 181.334 153.907 200.143 62.939 12.544 127.999-7.090 173.385-52.31 45.38-45.225 65.079-110.054 52.495-172.764zM980.943 533.437l-31.994 11.48c-28.837 9.775-52.119 31.348-63.992 59.296-12.344 27.598-12.344 59.121 0 86.714l14.721 30.606c11.666 24.478 6.537 53.633-12.8 72.69l-33.914 33.789c-19.125 19.268-48.379 24.38-72.944 12.754l-30.715-14.663c-27.696-12.305-59.331-12.305-87.023 0-28.048 11.831-49.698 35.024-59.508 63.76l-7.041 28.056c-9.159 25.244-33.209 42.070-60.151 42.080h-47.351c-26.941-0.010-50.986-16.836-60.145-42.080l-11.521-31.885c-9.81-28.73-31.459-51.929-59.508-63.76-27.696-12.3-59.332-12.3-87.023 0l-30.715 14.669c-24.565 11.625-53.824 6.509-72.949-12.754l-33.909-33.795c-19.336-19.058-24.467-48.208-12.799-72.685l14.715-30.605c12.349-27.599 12.349-59.121 0-86.714-11.873-27.955-35.149-49.528-63.987-59.303l-31.994-11.475c-22.56-9.79-37.486-31.606-38.393-56.108v-47.183c0.108-27.013 17.283-51.026 42.872-59.938l31.994-11.479c28.837-9.776 52.114-31.348 63.987-59.298 12.348-27.593 12.348-59.116 0-86.714l-14.716-30.605c-11.668-24.478-6.537-53.629 12.799-72.686l33.909-33.794c19.127-19.268 48.386-24.38 72.951-12.754l30.714 14.668c27.691 12.3 59.327 12.3 87.023 0 28.050-11.83 49.698-35.029 59.509-63.764l11.52-31.88c9.159-25.244 33.204-42.070 60.146-42.080h47.351c26.941 0.010 50.991 16.836 60.15 42.080l11.521 31.245c10.026 28.814 31.9 52.006 60.145 63.76 27.3 12.085 58.45 12.085 85.744 0l31.358-14.664c24.565-11.63 53.819-6.514 72.944 12.75l33.914 33.794c19.336 19.058 24.467 48.213 12.799 72.685l-14.72 30.605c-12.153 27.418-12.153 58.668 0 86.080 11.878 27.949 35.154 49.521 63.992 59.296l31.992 11.48c22.526 11.855 35.846 35.899 33.916 61.211v47.183c-0.108 27.006-17.284 51.020-42.872 59.931z" />
<glyph unicode="&#xe91d;" glyph-name="message" d="M18.286 692c-23.672 11.467-23.672 30.133 0 41.6l450.028 217.867c11.703 5.6 27.395 8.533 42.822 8.533s31.119-2.933 42.822-8.533l450.028-217.867c23.672-11.467 23.672-30.133 0-41.6l-450.028-217.867c-11.703-5.6-27.395-8.533-42.822-8.533s-31.119 2.933-42.822 8.533l-450.028 217.867zM1003.985 468.8c23.672-11.467 23.672-30.133-0.532-41.333l-450.028-217.867c-11.703-5.6-27.395-8.533-42.822-8.533s-31.119 2.933-42.822 8.533l-450.028 217.867c-23.672 11.467-23.672 30.133 0 41.6 0 0 73.941 35.733 88.835 42.933 14.363 6.933 18.884 6.933 34.843-0.8 14.629-7.2 326.616-158.133 326.616-158.133 11.703-5.6 27.395-8.533 42.822-8.533s30.853 2.933 42.822 8.533c0 0 320.499 155.2 331.936 160.533s14.363 5.6 25.268 0.267c10.905-5.333 93.091-45.067 93.091-45.067zM1003.985 204c23.672-11.467 23.672-30.133-0.266-41.6l-450.028-217.867c-11.703-5.6-27.395-8.533-42.822-8.533s-31.119 2.667-42.822 8.533l-450.028 217.867c-23.672 11.467-23.672 30.133 0 41.6 0 0 73.941 35.733 88.835 42.933 14.363 6.933 18.884 6.933 34.843-0.8 14.629-7.2 326.616-158.133 326.616-158.133 11.703-5.6 27.395-8.533 42.822-8.533s30.853 2.933 42.822 8.533c0 0 320.233 155.467 331.67 160.8s14.363 5.6 25.268 0.267c10.905-5.333 93.091-45.067 93.091-45.067z" />
<glyph unicode="&#xe91e;" glyph-name="news" d="M856.615 266.323v264.258c-2.025 154.086-115.339 285.433-275.692 330.323v33.032c10.136 33.231-24.118 66.065-68.923 66.065s-79.059-32.833-68.923-66.065v-33.032c-160.356-44.89-273.667-176.237-275.692-330.323v-264.258l-103.385-99.097v-66.065h896v66.065l-103.385 99.097zM512-64c56.869 0 103.385 44.591 103.385 99.097h-206.769c0-54.506 46.518-99.097 103.385-99.097v0z" />
<glyph unicode="&#xe91f;" glyph-name="other" d="M64 672h224v224h-224v-224zM400 0h224v224h-224v-224zM64 0h224v224h-224v-224zM64 336h224v224h-224v-224zM400 336h224v224h-224v-224zM736 896v-224h224v224h-224zM400 672h224v224h-224v-224zM736 336h224v224h-224v-224zM736 0h224v224h-224v-224z" />
<glyph unicode="&#xe920;" glyph-name="question" d="M596.67 425.043c-33.392-22.512-50.087-47.517-47.703-77.533v-27.51h-93.018v30.010c-2.384 57.526 23.852 107.548 76.322 147.561 47.703 32.515 69.172 70.029 64.399 105.048-4.773 40.013-28.619 62.525-73.938 67.524h-4.773c-57.238 0-90.629-30.010-100.173-95.039v-7.504l-97.786 30.015 2.384 7.504c23.851 112.547 95.402 167.568 212.271 162.568 102.563-5.005 159.806-60.026 169.345-162.568-2.384-67.529-35.774-127.554-107.33-180.076v0zM448 128v128h128v-128h-128zM512.003 960c-281.603 0-512.003-230.4-512.003-512.003 0-281.597 230.4-511.997 512.003-511.997 281.597 0 511.997 230.4 511.997 511.997 0 281.603-230.4 512.003-511.997 512.003v0z" />
<glyph unicode="&#xe921;" glyph-name="report" d="M693.914 853.722c0 18.048 7.136 34.912 20.064 47.52 12.448 12.096 28.736 18.72 46.048 18.752h0.16c0.64 0 1.248 0 1.888-0.032 35.488-0.96 64.384-31.488 64.384-68.032v-166.56c0-5.216-4.256-9.504-9.504-9.504h-123.040v177.856zM653.914 854.554c0-0.128 0-0.256 0-0.352v-843.264c0-19.264-15.68-34.944-34.912-34.944h-544.064c-19.264 0-34.944 15.68-34.944 34.944v842.784c0 36.544 29.728 66.272 66.272 66.272h570.816c-14.848-18.528-22.976-41.312-23.168-65.44v0zM866.458 685.402v166.528c0 58.016-46.336 106.464-103.296 108.032-1.12 0.032-2.272 0.032-3.392 0.032h-653.504c-58.304 0-105.824-47.232-106.272-105.44 0-0.128 0-0.256 0-0.352v-843.264c0-41.312 33.632-74.944 74.944-74.944h544.064c41.312 0 74.912 33.632 74.912 74.944v624.928h123.040c27.296 0 49.504 22.208 49.504 49.536v0zM126.954 408.765h423.776c11.040 0 20 8.96 20 20s-8.96 20-20 20h-423.776c-11.040 0-20-8.96-20-20s8.96-20 20-20zM126.954 323.962h423.776c11.040 0 20 8.96 20 20s-8.96 20-20 20h-423.776c-11.040 0-20-8.96-20-20s8.96-20 20-20zM126.954 234.426h220c11.040 0 20 8.96 20 20s-8.96 20-20 20h-220c-11.040 0-20-8.96-20-20s8.96-20 20-20zM245.088 800.806v-104.928h-96.992c5.088 53.152 45.056 96 96.992 104.928zM281.792 665.542c1.888 3.040 3.296 6.464 3.296 10.336v124.928c55.584-9.568 98.144-57.824 98.144-116.096 0-65.152-52.992-118.144-118.144-118.144-55.136 0-101.216 38.144-114.176 89.312h114.176c7.168 0 13.184 3.968 16.704 9.664zM108.64 667.91c8.544-79.232 75.008-141.344 156.448-141.344 87.2 0 158.144 70.944 158.144 158.112 0 87.2-70.944 158.144-158.144 158.144s-158.144-70.944-158.144-158.112c0-2.016 0.544-3.904 0.608-5.888-0.16-0.992-0.608-1.92-0.608-2.944 0-2.848 0.64-5.536 1.696-7.968zM126.954 42.8h92c11.040 0 20 8.96 20 20s-8.96 20-20 20h-92c-11.040 0-20-8.96-20-20s8.96-20 20-20zM831.219 74.259l-2.304 297.248h92.576l2.336-297.248h-92.608zM923.827-7.885c0-5.216-10.496-13.184-19.552-13.184h-59.904c-7.232 0-13.152 5.92-13.152 13.184v38.56h92.608v-38.56zM875.507 486.579l33.504-71.488h-67.424l33.92 71.488zM965.075 393.299c0 0.224-0.032 0.384-0.032 0.576-0.096 2.944-0.736 5.92-2.016 8.672l-67.648 144.352c-3.584 7.616-11.232 12.512-19.68 12.544-5.888 0-11.424-2.368-15.456-6.4-1.728-1.728-3.2-3.776-4.288-6.048l-68.512-144.352c-1.376-2.88-2.048-5.984-2.080-9.12 0-0.064-0.032-0.128-0.032-0.224l2.304-401.184c0-31.296 25.472-56.736 56.736-56.736h59.904c29.792 0 63.104 24.256 63.104 56.736l-2.304 401.184z" />
<glyph unicode="&#xe922;" glyph-name="rise" d="M50.864 11.32c-10.41 0-18.87-8.43-18.87-18.87 0-10.41 8.46-18.87 18.87-18.87s18.87 8.46 18.87 18.87c0 10.44-8.46 18.87-18.87 18.87zM532.637 489.67c-10.41 0-18.84-8.43-18.84-18.84 0-10.38 8.43-18.81 18.84-18.81s18.84 8.43 18.84 18.81c0 10.41-8.43 18.84-18.84 18.84zM752.534 622.798c-16.56-16.56-43.5-16.56-60.060 0s-16.56 43.5 0 60.060c8.010 8.040 18.69 12.45 30.030 12.45s21.99-4.41 30.030-12.45c16.56-16.56 16.56-43.5 0-60.060zM722.504 732.958c-21.42 0-41.52-8.34-56.67-23.46-31.23-31.26-31.23-82.080 0-113.31 15.63-15.63 36.15-23.43 56.67-23.43s41.040 7.8 56.64 23.43c31.26 31.23 31.26 82.050 0 113.31-15.12 15.12-35.25 23.46-56.64 23.46zM267.143 159.325c-9.3 4.62-20.61 0.84-25.23-8.46l-22.44-45.030c-9.75-19.59-29.34-32.67-51.18-34.17l-26.070-1.77c-4.41-0.3-7.32 1.89-8.64 3.24-1.35 1.35-3.54 4.23-3.24 8.64l1.77 26.070c1.5 21.84 14.58 41.43 34.17 51.18l45.030 22.44c9.3 4.62 13.080 15.93 8.46 25.23-4.65 9.3-15.93 13.11-25.26 8.46l-45.030-22.41c-31.47-15.69-52.53-47.22-54.93-82.32l-1.77-26.070c-0.99-14.070 4.2-27.87 14.16-37.83 9.18-9.21 21.6-14.31 34.5-14.31 1.11 0 2.25 0.030 3.36 0.12l26.070 1.77c35.1 2.4 66.63 23.46 82.32 54.96l22.41 45.030c4.62 9.3 0.84 20.58-8.46 25.23zM953.9 874.963c-7.56-154.32-81.9-297.12-203.94-391.83l-295.23-229.11c-24.48 14.31-47.31 31.2-68.19 50.34l99.54 99.54c7.35 7.35 7.35 19.26 0 26.61s-19.29 7.35-26.64 0l-99.45-99.45c-18.27 20.25-34.47 42.27-48.24 65.82l242.070 298.050c92.67 114.090 229.98 184.92 376.71 194.28l17.52 1.11c2.28 0.15 3.84-0.99 4.53-1.68 0.72-0.69 1.89-2.22 1.77-4.53l-0.45-9.15zM608.9 116.353l-80.64-80.64-11.25 218.97 174.75 135.63v-73.89c0-75.57-29.43-146.64-82.86-200.070v0zM378.44 229.783c-9.81-8.19-19.89-16.62-29.25-24.3-18.060 9.81-34.44 22.020-48.72 36.42-13.86 13.98-25.62 29.88-35.13 47.37l40.65 48.24c12.27-16.47 25.74-32.1 40.26-46.71 0-0.030 0.030-0.030 0.030-0.030 0-0.030 0-0.030 0-0.030 0.030 0 0.030 0 0.030 0 16.11-16.23 33.45-31.11 51.84-44.55-6.51-5.4-13.14-10.95-19.71-16.41v0zM94.1 469.873l80.64 80.67c53.37 53.37 124.32 82.77 199.8 82.86l78.9-2.31-140.070-172.47-219.27 11.25zM979.010 915.463c-8.82 8.7-21 13.26-33.36 12.45l-17.52-1.11c-157.17-10.050-304.26-85.92-403.53-208.14l-41.28-50.79-107.97 3.15c-0.18 0.030-0.36 0.030-0.54 0.030-85.62 0-166.14-33.36-226.68-93.9l-110.58-110.58c-5.25-5.28-6.93-13.14-4.26-20.070 2.67-6.96 9.18-11.67 16.59-12.060l234.090-12-9.54-11.76c-4.8-5.94-5.58-14.16-1.92-20.88s7.5-13.38 11.52-19.89l-55.5-65.91c-4.77-5.64-5.79-13.53-2.64-20.19 12.12-25.62 28.23-48.63 47.85-68.4 20.1-20.28 43.59-36.84 69.84-49.26 2.55-1.23 5.31-1.83 8.040-1.83 4.26 0 8.46 1.44 11.88 4.23 11.94 9.69 25.74 21.21 39.060 32.31 9.51 7.95 19.23 16.050 28.32 23.55 5.43-3.27 10.92-6.45 16.5-9.48 2.82-1.53 5.91-2.28 9-2.28 4.080 0 8.16 1.32 11.52 3.96l12.84 9.96 12.090-235.080c0.39-7.44 5.1-13.95 12.030-16.62 2.19-0.84 4.5-1.26 6.75-1.26 4.92 0 9.72 1.92 13.32 5.52l110.58 110.61c60.57 60.54 93.9 141.030 93.9 226.68v103.11l43.62 33.84c130.74 101.46 210.39 254.46 218.46 419.76l0.45 9.15c0.63 12.39-4.11 24.48-12.93 33.18v0z" />
</font>
</defs>
</svg>
