<?xml version="1.0" encoding="UTF-8" standalone="no"?>
<svg width="14px" height="14px" viewBox="0 0 14 14" version="1.1" xmlns="http://www.w3.org/2000/svg" xmlns:xlink="http://www.w3.org/1999/xlink">
    <!-- Generator: Sketch 46 (44423) - http://www.bohemiancoding.com/sketch -->
    <title>icon－download</title>
    <desc>Created with Sketch.</desc>
    <defs></defs>
    <g id="运营概览" stroke="none" stroke-width="1" fill="none" fill-rule="evenodd">
        <g id="2运营概览－操作" transform="translate(-1063.000000, -1280.000000)" fill="#FFFFFF">
            <g id="四象限分布图" transform="translate(276.000000, 51.000000)">
                <g id="展开－下载" transform="translate(782.000000, 1197.000000)">
                    <path d="M17.25,46 L6.75,46 C5.783125,46 5,45.216413 5,44.2499453 L5,33.7496172 C5,32.7831495 5.783125,32 6.75,32 L17.25,32 C18.216875,32 19,32.7831495 19,33.7496172 L19,44.2499453 C19,45.216413 18.216875,46 17.25,46 Z M17.25,34.6246445 C17.25,34.1416294 16.860625,33.7496172 16.375,33.7496172 L7.625,33.7496172 C7.14375,33.7496172 6.75,34.1416294 6.75,34.6246445 L6.75,40.7498359 C6.75,41.2332885 7.14375,41.6248633 7.625,41.6248633 L8.5,41.6248633 C9.370625,41.6248633 9.375,42.4998906 9.375,42.4998906 L9.375,42.9374043 L9.375,43.374918 C9.375,43.8579331 9.76875,44.2499453 10.25,44.2499453 L13.75,44.2499453 C14.235625,44.2499453 14.625,43.8579331 14.625,43.374918 L14.625,42.4998906 C14.625,42.4998906 14.743125,41.6248633 15.5,41.6248633 L16.375,41.6248633 C16.860625,41.6248633 17.25,41.2332885 17.25,40.7498359 L17.25,34.6246445 Z M8.5,38.9997812 L11.125,38.9997812 L11.125,35.4996719 L12.875,35.4996719 L12.875,38.9997812 L15.5,38.9997812 L12,42.4998906 L8.5,38.9997812 Z" id="icon－download"></path>
                </g>
            </g>
        </g>
    </g>
</svg>